<svg width="204" height="153" viewBox="0 0 204 153" fill="none" xmlns="http://www.w3.org/2000/svg">
<path d="M136.801 44.7835C138.275 45.2793 139.844 45.6053 141.488 45.6053C149.687 45.6053 156.345 38.9529 156.345 30.759C156.345 22.5716 149.687 15.9092 141.488 15.9092C133.289 15.9092 126.642 22.5716 126.642 30.759C126.642 32.0561 126.862 33.2991 127.168 34.4943C131.427 36.6711 134.79 40.2671 136.801 44.7835H136.801Z" fill="#875E4A"/>
<path d="M155.459 48.8449H138.18C138.658 50.801 138.9 52.8075 138.9 54.8213V98.5693C138.9 104.501 134.104 109.31 128.225 109.31C127.141 109.31 126.095 109.123 125.104 108.818V153H139.964V110.132H143.003V153H157.881V68.8833H159.558V104.23C159.558 107.29 162.038 109.762 165.095 109.762C168.152 109.762 170.55 107.29 170.55 104.23V65.0324C170.55 56.0948 164.395 48.8447 155.459 48.8447V48.8449Z" fill="#875E4A"/>
<path d="M172.209 57.3356C173.4 57.7364 174.668 57.9998 175.996 57.9998C182.621 57.9998 188 52.6235 188 46.0012C188 39.3843 182.621 33.9998 175.996 33.9998C169.371 33.9998 164 39.3843 164 46.0012C164 47.0496 164.178 48.0541 164.425 49.0201C167.867 50.7794 170.584 53.6856 172.209 57.3356Z" fill="#545454"/>
<path d="M189.389 60.0001H172.66C173.124 61.7468 173.358 63.5384 173.358 65.3364V104.399C173.358 109.696 168.714 113.989 163.022 113.989C161.973 113.989 160.96 113.823 160 113.55V153H174.387V114.723H177.33V153H191.734V77.8924H193.358V109.453C193.358 112.185 195.759 114.393 198.719 114.393C201.678 114.393 204 112.185 204 109.453V74.454C204 66.4736 198.041 60 189.389 60V60.0001Z" fill="#545454"/>
<path d="M31.7914 57.3356C30.6002 57.7364 29.3324 57.9998 28.0042 57.9998C21.3791 57.9998 16 52.6235 16 46.0012C16 39.3843 21.3791 33.9998 28.0041 33.9998C34.6292 33.9998 40 39.3843 40 46.0012C40 47.0496 39.8216 48.0541 39.5746 49.0201C36.1331 50.7794 33.4163 53.6856 31.7914 57.3356Z" fill="#545454"/>
<path d="M14.6108 60.0001H31.3395C30.8765 61.7468 30.6424 63.5384 30.6423 65.3364V104.399C30.6423 109.696 35.2858 113.989 40.978 113.989C42.027 113.989 43.0399 113.823 44 113.55V153H29.6129V114.723H26.6698V153H12.2661V77.8924H10.6417V109.453C10.6417 112.185 8.24098 114.393 5.28132 114.393C2.32181 114.393 0 112.185 0 109.453V74.454C0 66.4736 5.95878 60 14.6108 60V60.0001Z" fill="#545454"/>
<path d="M62.0646 45.6051C63.7595 45.6051 65.3491 45.2657 66.8742 44.7494C68.8917 40.3894 72.2033 36.8576 76.327 34.664C76.6734 33.4109 76.9179 32.1171 76.9179 30.7588C76.9179 22.5715 70.2675 15.9091 62.0646 15.9091C53.8619 15.9091 47.2148 22.5715 47.2148 30.7588C47.2148 38.9527 53.8621 45.6051 62.0646 45.6051Z" fill="#875E4A"/>
<path d="M64.6495 98.5694V54.8214C64.6495 52.7433 64.9347 50.7432 65.4137 48.845H48.1047C39.1547 48.845 33 56.0949 33 65.0325V104.23C33 107.29 35.4015 109.762 38.4616 109.762C41.5154 109.762 43.9914 107.29 43.9914 104.23V68.8833H45.6763V153H60.55V110.132H63.5933V153H78.4568V108.811C77.4513 109.12 76.4155 109.31 75.3217 109.31C69.4422 109.31 64.6497 104.502 64.6497 98.5692L64.6495 98.5694Z" fill="#875E4A"/>
<path d="M101.893 33.1428C111.04 33.1428 118.465 25.7163 118.465 16.5749C118.465 7.42641 111.04 0 101.893 0C92.7354 0 85.3105 7.42641 85.3105 16.5749C85.3105 25.7163 92.7354 33.1428 101.893 33.1428Z" fill="#FF7229"/>
<path d="M128.224 104.749C131.644 104.749 134.331 101.978 134.331 98.5693V54.8212C134.331 52.7261 134.008 50.7226 133.437 48.8448C131.281 41.8086 125.353 36.7523 117.48 36.7523H111.115L110.381 37.3737L103.194 43.537L108.486 57.711L101.418 73.0565L95.0762 57.9554L99.8994 43.537L93.1299 37.3943L92.4235 36.7523H86.3028C78.4227 36.7523 72.3496 41.8086 70.1451 48.8448C69.535 50.7783 69.2246 52.7937 69.2246 54.8212V98.569C69.2246 101.978 71.9149 104.749 75.3215 104.749C76.4661 104.749 77.5362 104.41 78.4565 103.866C79.1869 103.425 79.8357 102.858 80.3281 102.175C81.0584 101.153 81.5033 99.9137 81.5033 98.569V59.1238H83.599V153H100.185V105.16H103.571V153H120.18V109.15V59.1239H122.052V98.5692C122.052 99.9072 122.501 101.143 123.231 102.169C123.723 102.855 124.368 103.422 125.102 103.867C126.026 104.41 127.079 104.749 128.224 104.749Z" fill="#FF7229"/>
</svg>
