<svg width="400" height="400" viewBox="0 0 400 400" fill="none" xmlns="http://www.w3.org/2000/svg">
<rect width="400" height="400" fill="#FCEAE2"/>
<path d="M345.841 103.308C340.515 99.7647 333.361 95.7876 324.447 92.6105C321.064 91.4219 318.161 90.5762 315.99 90.0277C307.007 87.7191 299.099 87.0563 293.11 86.9648C296.173 93.1362 300.47 104.153 299.327 117.707C298.253 130.576 292.402 144.61 288.813 144.153C287.442 143.97 285.773 141.57 284.722 131.307" stroke="black" stroke-width="3" stroke-miterlimit="10" stroke-linecap="round" stroke-linejoin="round"/>
<path d="M322.116 162.256C319.281 159.056 314.459 154.393 307.327 150.576C300.653 147.01 294.527 145.57 290.413 144.93" stroke="black" stroke-width="3" stroke-miterlimit="10" stroke-linecap="round" stroke-linejoin="round"/>
<path d="M308.31 150.187C311.487 145.73 318.184 135.101 319.395 119.833C320.538 105.456 316.241 94.439 313.955 89.479" stroke="black" stroke-width="3" stroke-miterlimit="10" stroke-linecap="round" stroke-linejoin="round"/>
<path d="M336.905 100.199C335.511 102.119 333.705 105.182 333.202 109.136C331.9 119.445 340.86 123.925 339.031 130.919C337.065 138.439 325.568 137.593 321.911 146.667C319.968 151.513 321.248 156.656 322.688 160.29" stroke="black" stroke-width="3" stroke-miterlimit="10" stroke-linecap="round" stroke-linejoin="round"/>
<path d="M255.578 118.279C259.03 118.165 262.824 118.256 266.869 118.667C278.138 119.787 287.441 122.964 294.298 126.05" stroke="black" stroke-width="3" stroke-miterlimit="10" stroke-linecap="round" stroke-linejoin="round"/>
<path d="M291.76 93.5933C282.274 88.7933 274.046 86.1648 268.217 84.6562C255.189 81.2734 243.212 81.0448 219.784 80.7706C208.858 80.6334 203.327 80.5877 200.332 81.3648C187.418 84.6791 179.715 93.6619 166.298 107.239C156.676 116.953 154.321 121.844 153.064 125.524C150.687 132.519 153.11 134.759 150.139 146.141C147.213 157.341 146.047 160.541 146.047 160.541C144.219 165.57 142.23 169.798 143.899 171.444C144.539 172.084 145.499 172.061 147.007 172.038C150.367 171.947 153.43 170.758 155.373 169.501C163.921 164.015 165.613 148.13 165.681 147.33C166.55 138.347 164.058 135.719 166.847 131.97C169.864 127.879 174.253 129.022 180.264 124.77C184.904 121.479 187.532 117.113 189.018 113.867" stroke="black" stroke-width="3" stroke-miterlimit="10" stroke-linecap="round" stroke-linejoin="round"/>
<path d="M154.048 122.964C148.448 127.696 144.585 132.199 141.98 135.604C138.3 140.45 137.865 142.233 138.482 143.193C139.671 145.044 144.791 143.947 145.477 143.787C147.328 143.353 148.791 142.644 149.751 142.027" stroke="black" stroke-width="3" stroke-miterlimit="10" stroke-linecap="round" stroke-linejoin="round"/>
<path d="M172.334 139.307C172.654 143.536 172.197 146.941 171.739 149.227C170.985 153.044 170.231 156.907 167.077 160.13C165.454 161.776 163.74 162.713 162.597 163.238" stroke="black" stroke-width="3" stroke-miterlimit="10" stroke-linecap="round" stroke-linejoin="round"/>
<path d="M194.507 117.89C197.501 122.393 197.959 125.982 197.821 128.404C197.501 134.05 193.867 136.107 188.29 147.079C185.822 151.924 184.587 154.416 184.404 157.593C184.016 164.084 187.307 171.65 190.621 171.787C194.941 171.993 193.867 159.467 203.078 149.021C215.558 134.873 232.793 140.61 242.37 126.462C245.867 121.296 246.804 115.742 247.032 111.879" stroke="black" stroke-width="3" stroke-miterlimit="10" stroke-linecap="round" stroke-linejoin="round"/>
<path d="M181.362 83.9933C168.654 84.9533 158.802 83.8104 152.082 82.5533C142.117 80.7019 135.191 77.8676 133.271 80.1533C131.557 82.2104 135.031 87.1933 138.003 89.9589C145.591 97.0217 157.271 96.4503 160.677 96.176" stroke="black" stroke-width="3" stroke-miterlimit="10" stroke-linecap="round" stroke-linejoin="round"/>
<path d="M116.312 46.3252C115.855 47.788 115.032 51.0566 115.924 55.0794C116.929 59.5822 119.512 62.3708 120.587 63.445" fill="black"/>
<path d="M116.312 46.3252C115.855 47.788 115.032 51.0566 115.924 55.0794C116.929 59.5822 119.512 62.3708 120.587 63.445" stroke="black" stroke-width="3" stroke-miterlimit="10" stroke-linecap="round" stroke-linejoin="round"/>
<path d="M97.8213 66.3476C100.313 66.1191 104.838 66.0734 109.89 68.1076C112.884 69.319 115.147 70.8962 116.701 72.199" fill="black"/>
<path d="M97.8213 66.3476C100.313 66.1191 104.838 66.0734 109.89 68.1076C112.884 69.319 115.147 70.8962 116.701 72.199" stroke="black" stroke-width="3" stroke-miterlimit="10" stroke-linecap="round" stroke-linejoin="round"/>
<path d="M101.521 91.2394C102.527 89.9822 104.059 88.4051 106.184 86.9651C109.27 84.8623 112.264 84.0394 114.161 83.6509" fill="black"/>
<path d="M101.521 91.2394C102.527 89.9822 104.059 88.4051 106.184 86.9651C109.27 84.8623 112.264 84.0394 114.161 83.6509" stroke="black" stroke-width="3" stroke-miterlimit="10" stroke-linecap="round" stroke-linejoin="round"/>
<path d="M125.062 207.97C128.079 202.941 131.781 197.478 136.353 191.833C143.279 183.238 150.364 176.541 156.581 171.398C156.696 171.536 156.856 171.764 157.038 172.016C159.255 175.033 164.627 182.621 169.313 192.884C174.707 204.632 177.175 215.375 178.364 221.958C160.581 217.295 142.821 212.632 125.062 207.97Z" stroke="black" stroke-width="3" stroke-miterlimit="10" stroke-linecap="round" stroke-linejoin="round"/>
<path d="M157.932 170.621C160.194 170.278 163.554 169.844 167.669 169.547C172.377 169.227 174.731 169.044 176.423 169.25C181.954 169.913 184.606 174.621 195.303 190.552C203.943 203.444 206.525 206.781 205.04 210.004C203.966 212.335 201.611 212.769 193.954 215.832C187.211 218.529 181.931 221.021 178.686 222.643" stroke="black" stroke-width="3" stroke-miterlimit="10" stroke-linecap="round" stroke-linejoin="round"/>
<path d="M157.36 187.353C158.755 189.158 160.72 192.175 161.84 196.29C162.526 198.804 162.709 201.067 162.709 202.804" stroke="black" stroke-width="3" stroke-miterlimit="10" stroke-linecap="round" stroke-linejoin="round"/>
<path d="M152.673 216.769C151.325 217.775 138.388 227.809 139.096 243.032C139.851 259.397 155.965 272.997 172.788 272.06C186.707 271.283 200.902 260.563 202.25 245.5C203.667 229.843 190.319 219.489 189.405 218.803" stroke="black" stroke-width="3" stroke-miterlimit="10" stroke-linecap="round" stroke-linejoin="round"/>
<path d="M154.135 229.752C153.472 230.003 149.518 231.649 147.872 236.015C145.838 241.363 149.06 246.003 149.335 246.369" stroke="black" stroke-width="3" stroke-miterlimit="10" stroke-linecap="round" stroke-linejoin="round"/>
<path d="M153.771 217.569L176.125 226.941L188.719 220.335" fill="black"/>
<path d="M153.771 217.569L176.125 226.941L188.719 220.335" stroke="black" stroke-width="3" stroke-miterlimit="10"/>
<path d="M171.734 274.003C176.443 273.98 189.38 275.26 199.117 269.729C208.694 264.289 211.414 256.997 212.923 255.192C212.991 255.123 196.786 260.243 196.786 260.243" fill="black"/>
<path d="M155.734 273.66L143.186 293.957L195.139 280.951L213.036 256.312" stroke="black" stroke-width="3" stroke-miterlimit="10" stroke-linecap="round" stroke-linejoin="round"/>
<path d="M143.785 297.02L157.934 329.98L210.162 314.071L226.07 290.003L216.013 259.672" stroke="black" stroke-width="3" stroke-miterlimit="10" stroke-linecap="round" stroke-linejoin="round"/>
<path d="M197.037 283.877L210.157 314.071" stroke="black" stroke-width="3" stroke-miterlimit="10" stroke-linecap="round" stroke-linejoin="round"/>
<path d="M197.997 281.912L210.591 310.734L223.757 290.46L213.563 261.455L197.997 281.912Z" fill="#666666"/>
<path d="M157.064 329.546C151.601 330.094 147.189 333.637 146.069 338.208C144.492 344.563 149.818 350.802 155.806 352.311C162.092 353.888 170.046 350.46 171.463 343.557C172.652 337.705 168.789 331.306 162.229 329.454" stroke="black" stroke-width="3" stroke-miterlimit="10" stroke-linecap="round" stroke-linejoin="round"/>
<path d="M154.593 331.442C154.068 331.625 148.81 333.591 147.668 338.345C146.319 343.854 151.119 350.551 157.587 350.825C164.353 351.099 168.902 344.128 168.467 339.031C168.17 335.534 165.45 332.425 164.353 331.877C163.485 331.442 162.616 331.122 162.616 331.122C161.953 330.894 161.679 330.871 161.45 330.711C161.427 330.688 161.29 330.597 161.13 330.597C161.016 330.597 160.925 330.62 160.902 330.642C160.216 330.894 159.507 331.077 158.822 331.305C158.342 331.465 158.227 331.488 158.067 331.465C157.679 331.42 157.405 331.214 157.222 331.054" fill="#808080"/>
<path d="M179.964 220.061C179.37 219.741 179.347 218.918 179.05 217.547C178.799 216.335 178.433 215.124 178.25 213.89C177.999 212.13 176.399 206.987 171.53 194.164C169.016 189.158 160.216 174.301 159.462 173.09C159.37 172.953 159.073 172.473 159.233 172.153C159.416 171.787 160.079 171.764 160.627 171.741C161.702 171.719 162.776 171.559 163.85 171.581C164.193 171.581 165.267 171.467 167.416 171.239C167.416 171.239 172.17 170.713 175.484 170.553C176.216 170.507 175.759 170.576 176.787 170.576C177.061 170.576 177.313 170.576 177.633 170.69C177.93 170.804 178.113 170.964 178.181 171.033C179.667 172.404 180.239 172.313 182.273 174.644C184.856 177.638 187.256 181.616 192.238 189.09C192.33 189.204 202.09 203.17 203.918 207.398C204.055 207.741 204.421 208.61 204.055 209.364C203.827 209.844 203.393 210.072 202.958 210.301C202.135 210.735 201.038 211.284 199.667 211.878C197.29 212.701 195.256 213.501 193.61 214.164C189.907 215.672 188.056 216.427 187.05 217.067C186.981 217.112 185.313 217.958 182.021 219.672C181.336 219.992 180.559 220.358 179.964 220.061Z" fill="#808080"/>
<path d="M260.215 257.752C263.674 257.752 266.478 254.948 266.478 251.489C266.478 248.03 263.674 245.226 260.215 245.226C256.756 245.226 253.952 248.03 253.952 251.489C253.952 254.948 256.756 257.752 260.215 257.752Z" stroke="black" stroke-width="3" stroke-miterlimit="10"/>
<path d="M108.036 256.312C111.103 256.312 113.59 253.825 113.59 250.757C113.59 247.69 111.103 245.203 108.036 245.203C104.968 245.203 102.481 247.69 102.481 250.757C102.481 253.825 104.968 256.312 108.036 256.312Z" stroke="black" stroke-width="3" stroke-miterlimit="10"/>
<path d="M285.152 187.444L278.729 200.289L293.335 207.581L297.701 197.958L288.947 190.644" stroke="black" stroke-width="3" stroke-miterlimit="10" stroke-linecap="round" stroke-linejoin="round"/>
<path d="M59.3027 139.307L54.3428 153.021L70.9826 148.633L59.3027 139.307Z" stroke="black" stroke-width="3" stroke-miterlimit="10" stroke-linecap="round" stroke-linejoin="round"/>
<path d="M74.4802 300.357L59.8975 303.877L70.3888 315.831L84.4001 310.574L80.903 305.043" stroke="black" stroke-width="3" stroke-miterlimit="10" stroke-linecap="round" stroke-linejoin="round"/>
<path d="M298.567 310.871L306.156 304.448L309.653 317.865L298.567 310.871Z" stroke="black" stroke-width="3" stroke-miterlimit="10" stroke-linecap="round" stroke-linejoin="round"/>
<path d="M319.437 230.62C320.485 230.62 321.334 229.771 321.334 228.723C321.334 227.676 320.485 226.826 319.437 226.826C318.389 226.826 317.54 227.676 317.54 228.723C317.54 229.771 318.389 230.62 319.437 230.62Z" fill="black" stroke="black" stroke-width="3" stroke-miterlimit="10" stroke-linecap="round" stroke-linejoin="round"/>
<path d="M237.588 200.861C239.519 200.861 241.085 199.295 241.085 197.364C241.085 195.432 239.519 193.867 237.588 193.867C235.657 193.867 234.091 195.432 234.091 197.364C234.091 199.295 235.657 200.861 237.588 200.861Z" fill="black" stroke="black" stroke-width="3" stroke-miterlimit="10" stroke-linecap="round" stroke-linejoin="round"/>
<path d="M286.547 203.055L290.775 194.164L296.238 197.524C296.238 197.524 293.404 205.843 293.313 206.049" fill="black"/>
<path d="M286.547 203.055L290.775 194.164L296.238 197.524C296.238 197.524 293.404 205.843 293.313 206.049" stroke="black" stroke-width="3" stroke-miterlimit="10" stroke-linecap="round" stroke-linejoin="round"/>
<path d="M70.1123 301.82L78.1808 312.037L71.1637 314.185L62.6152 305.134L70.1123 301.82Z" fill="black" stroke="black" stroke-width="3" stroke-miterlimit="10" stroke-linecap="round" stroke-linejoin="round"/>
<path d="M58.2272 145.227L59.9872 141.73L62.7986 148.541L57.0615 150.667L57.4501 146.484L58.2272 145.227Z" fill="black" stroke="black" stroke-width="3" stroke-miterlimit="10" stroke-linecap="round" stroke-linejoin="round"/>
</svg>
