<svg width="400" height="400" viewBox="0 0 400 400" fill="none" xmlns="http://www.w3.org/2000/svg">
<rect width="400" height="400" fill="#FCEAE2"/>
<path d="M147.625 80.6794C151.16 84.9413 156.149 92.0918 158.795 101.989C162.532 115.906 160.997 132.712 155.704 134.126C150.513 135.52 145.221 121.158 137.647 122.269C133.082 122.936 130.032 128.894 128.012 134.813C125.184 132.833 111.671 122.936 109.449 105.423C109.126 102.878 106.56 80.2754 121.487 72.2362C130.961 67.146 141.565 71.0849 144.009 72.0544C167.016 38.6857 198.183 18.9715 225.149 24.2636C228.704 24.9706 255.386 30.6465 260.214 48.8458C262.274 56.6426 259.386 63.5506 258.497 65.6917C250.862 84.093 227.451 87.1632 224.28 87.5268C212.666 88.8599 203.152 85.5271 197.799 83.0628C193.456 85.2443 182.771 89.8295 168.915 88.2136C158.957 87.0824 151.604 83.2042 147.625 80.6794Z" fill="black" stroke="black" stroke-width="3" stroke-miterlimit="10" stroke-linecap="round" stroke-linejoin="round"/>
<path d="M151 51.3101C149.525 53.1684 147.748 55.7538 146.294 59.1069C144.375 63.5102 143.728 67.5096 143.526 70.2567" fill="black"/>
<path d="M151 51.3101C149.525 53.1684 147.748 55.7538 146.294 59.1069C144.375 63.5102 143.728 67.5096 143.526 70.2567" stroke="black" stroke-width="3" stroke-miterlimit="10" stroke-linecap="round" stroke-linejoin="round"/>
<path d="M134.678 64.1968C135.728 64.4998 137.304 65.0653 138.94 66.2571C140.737 67.57 141.828 69.0445 142.414 69.9939" fill="black"/>
<path d="M134.678 64.1968C135.728 64.4998 137.304 65.0653 138.94 66.2571C140.737 67.57 141.828 69.0445 142.414 69.9939" stroke="black" stroke-width="3" stroke-miterlimit="10" stroke-linecap="round" stroke-linejoin="round"/>
<path d="M170.491 44.5838C174.592 40.7864 194.205 23.3143 221.473 25.6169C231.755 26.4855 239.935 29.8991 245.45 32.8886C235.673 30.7879 218.726 28.5256 198.729 33.2724C186.772 36.1204 177.278 40.645 170.491 44.5838Z" fill="#FCEAE2"/>
<path d="M110.134 101.484C107.993 88.2741 113.447 76.3365 122.677 72.0947C128.515 69.4082 134.373 70.4586 137.281 71.2261C134.393 71.4483 127.162 72.4179 120.597 77.9322C110.235 86.6783 110.134 99.5855 110.134 101.484Z" fill="#FCEAE2"/>
<path d="M159.137 148.083C171.216 187.249 203.372 203.772 220.683 196.561C233.752 191.107 241.427 170.828 240.276 148.427" stroke="black" stroke-width="3" stroke-miterlimit="10" stroke-linecap="round" stroke-linejoin="round"/>
<path d="M156.734 148.245C155.219 149.336 152.613 150.891 149.179 151.335C141.988 152.285 132.434 148.326 130.435 140.165C128.758 133.257 132.858 124.875 137.484 124.188C143.887 123.218 149.038 137.317 154.855 135.883C157.259 135.297 158.653 132.328 159.501 129.521" stroke="black" stroke-width="3" stroke-miterlimit="10" stroke-linecap="round" stroke-linejoin="round"/>
<path d="M160.209 152.204C160.977 157.213 162.673 164.445 166.794 172.322C171.924 182.119 178.489 188.502 182.771 192.057C184.044 195.309 187.053 201.671 193.739 206.378C198.769 209.913 210.666 215.871 217.857 210.115C222.583 206.337 222.785 199.47 222.765 197.086C220.806 198.157 217.11 199.894 212.322 200.439C188.75 203.126 169.844 173.433 168.349 171.05C165.521 166.485 162.39 160.263 160.209 152.204Z" fill="black" stroke="black" stroke-width="3" stroke-miterlimit="10" stroke-linecap="round" stroke-linejoin="round"/>
<path d="M156.552 119.704L165.157 118.492L163.945 113.684L165.662 120.552C166.833 136.287 179.154 146.79 190.244 145.821C200.868 144.892 207.393 133.661 209.332 126.228C210.927 120.067 211.23 109.422 205.554 105.766C204.282 104.938 203.05 104.696 202.121 104.554C192.627 103.12 180.831 107.16 175.135 109.362" stroke="black" stroke-width="3" stroke-miterlimit="10" stroke-linecap="round" stroke-linejoin="round"/>
<path d="M235.287 92.8995C233.874 92.6571 220.502 90.4958 215.351 97.8887C213.553 100.474 213.553 103.08 213.634 108.21C213.715 113.785 214.099 126.995 223.774 138.973C225.552 141.175 228.218 144.043 232.035 146.871" stroke="black" stroke-width="3" stroke-miterlimit="10" stroke-linecap="round" stroke-linejoin="round"/>
<path d="M215.695 104.756C218.968 103.08 224.724 100.676 232.198 100.454C236.803 100.313 240.419 100.212 243.368 102.514C249.084 106.998 248.357 117.563 245.61 124.168C241.631 133.722 232.42 137.317 230.319 138.085" stroke="black" stroke-width="3" stroke-miterlimit="10" stroke-linecap="round" stroke-linejoin="round"/>
<path d="M228.239 113.179C229.249 121.097 226.946 126.854 224.461 127.278C222.078 127.682 218.402 123.481 216.382 116.956" stroke="black" stroke-width="3" stroke-miterlimit="10" stroke-linecap="round" stroke-linejoin="round"/>
<path d="M200.041 117.987C203.01 124.592 200.445 131.217 196.768 132.772C192.85 134.449 185.659 131.197 183.538 123.481" stroke="black" stroke-width="3" stroke-miterlimit="10" stroke-linecap="round" stroke-linejoin="round"/>
<path d="M172.206 102.514C176.205 100.555 182.063 98.3329 189.395 97.7067C192.365 97.4441 195.091 97.5047 197.475 97.7067" stroke="black" stroke-width="3" stroke-miterlimit="10" stroke-linecap="round" stroke-linejoin="round"/>
<path d="M218.098 160.97C216.745 161.354 214.583 161.819 211.917 161.839C208.14 161.859 206.746 160.93 206.08 161.657C204.282 163.636 210.483 174.726 214.684 173.857C215.27 173.736 217.209 173.09 218.462 167.676" stroke="black" stroke-width="3" stroke-miterlimit="10" stroke-linecap="round" stroke-linejoin="round"/>
<path d="M226.095 198.358C226.418 200.782 227.448 210.478 221.712 215.891C214.4 222.799 197.493 221.405 184.586 207.63" stroke="black" stroke-width="3" stroke-miterlimit="10" stroke-linecap="round" stroke-linejoin="round"/>
<path d="M169.116 227.243C169.419 225.627 170.146 222.84 172.207 220.032C175.095 216.053 178.872 214.417 180.468 213.851" stroke="black" stroke-width="3" stroke-miterlimit="10" stroke-linecap="round" stroke-linejoin="round"/>
<path d="M176.325 220.799C181.941 224.496 189.778 230.333 197.736 238.857C207.553 249.361 211.714 257.723 214.501 256.653C217.652 255.441 216.117 243.341 214.501 236.534C213.087 230.555 210.966 225.91 209.351 222.86" stroke="black" stroke-width="3" stroke-miterlimit="10" stroke-linecap="round" stroke-linejoin="round"/>
<path d="M218.622 221.567C219.672 224.738 221.086 229.525 222.238 235.484C224.621 247.826 223.672 253.986 225.328 254.309C227.853 254.794 233.246 241.221 235.65 228.515C236.397 224.617 236.741 221.325 236.943 218.981" stroke="black" stroke-width="3" stroke-miterlimit="10" stroke-linecap="round" stroke-linejoin="round"/>
<path d="M233.568 210.478C249.425 224.637 268.917 244.917 286.954 272.367C309.395 306.544 321.091 338.903 327.433 362.111" stroke="black" stroke-width="3" stroke-miterlimit="10" stroke-linecap="round" stroke-linejoin="round"/>
<path d="M240.801 221.567C237.852 242.412 235.791 266.893 236.155 294.283C236.559 324.38 239.811 350.982 243.891 373.18" stroke="black" stroke-width="3" stroke-miterlimit="10" stroke-linecap="round" stroke-linejoin="round"/>
<path d="M190.242 248.896C197.837 263.682 205.917 282.447 212.158 304.848C219.854 332.399 222.419 356.941 222.985 376.009" stroke="black" stroke-width="3" stroke-miterlimit="10" stroke-linecap="round" stroke-linejoin="round"/>
<path d="M201.008 270.428C203.896 272.408 208.158 274.731 213.652 275.579C219.752 276.528 224.802 275.296 225.509 277.134C226.095 278.669 223.206 281.073 222.681 281.517C217.248 286.042 209.592 284.87 206.946 284.345" fill="black"/>
<path d="M201.008 270.428C203.896 272.408 208.158 274.731 213.652 275.579C219.752 276.528 224.802 275.296 225.509 277.134C226.095 278.669 223.206 281.073 222.681 281.517C217.248 286.042 209.592 284.87 206.946 284.345" stroke="black" stroke-width="3" stroke-miterlimit="10" stroke-linecap="round" stroke-linejoin="round"/>
<path d="M210.988 301.838C212.847 303.272 215.594 304.969 219.108 305.595C223.027 306.302 226.279 305.393 226.743 306.726C227.127 307.837 225.269 309.594 224.926 309.917C221.431 313.21 216.503 312.362 214.806 311.978" fill="black"/>
<path d="M210.988 301.838C212.847 303.272 215.594 304.969 219.108 305.595C223.027 306.302 226.279 305.393 226.743 306.726C227.127 307.837 225.269 309.594 224.926 309.917C221.431 313.21 216.503 312.362 214.806 311.978" stroke="black" stroke-width="3" stroke-miterlimit="10" stroke-linecap="round" stroke-linejoin="round"/>
<path d="M217.554 325.875C219.008 326.985 221.412 328.541 224.684 329.349C228.158 330.217 230.784 329.813 231.269 331.086C231.774 332.459 229.289 334.459 229.067 334.641C226.078 337.004 222.159 336.378 221.028 336.156" fill="black"/>
<path d="M217.554 325.875C219.008 326.985 221.412 328.541 224.684 329.349C228.158 330.217 230.784 329.813 231.269 331.086C231.774 332.459 229.289 334.459 229.067 334.641C226.078 337.004 222.159 336.378 221.028 336.156" stroke="black" stroke-width="3" stroke-miterlimit="10" stroke-linecap="round" stroke-linejoin="round"/>
<path d="M220.197 344.074C222.136 345.75 224.641 347.346 227.772 348.033C230.721 348.699 233.024 348.295 233.448 349.386C233.872 350.477 232.135 352.234 230.802 353.123C227.146 355.567 222.48 354.133 221.167 353.688" fill="black"/>
<path d="M220.197 344.074C222.136 345.75 224.641 347.346 227.772 348.033C230.721 348.699 233.024 348.295 233.448 349.386C233.872 350.477 232.135 352.234 230.802 353.123C227.146 355.567 222.48 354.133 221.167 353.688" stroke="black" stroke-width="3" stroke-miterlimit="10" stroke-linecap="round" stroke-linejoin="round"/>
<path d="M56.1621 316.724C58.4244 308.907 62.5248 298.303 70.3418 287.456C74.1392 282.204 78.0578 277.902 81.6936 274.428C85.6728 291.94 93.4696 302.403 98.58 307.958C100.378 309.897 112.194 322.501 116.88 319.694C121.587 316.886 116.214 300.323 115.85 299.192" stroke="black" stroke-width="3" stroke-miterlimit="10" stroke-linecap="round" stroke-linejoin="round"/>
<path d="M111.61 325.875C109.408 329.632 106.944 334.6 105.025 340.701C102.763 347.891 102.015 354.294 101.793 359.142" stroke="black" stroke-width="3" stroke-miterlimit="10" stroke-linecap="round" stroke-linejoin="round"/>
<path d="M97.167 306.665C98.5607 308.524 100.742 311.089 103.873 313.634C104.661 314.26 113.124 321.148 115.225 319.573C116.619 318.522 115.79 313.351 105.166 294.304" fill="black"/>
<path d="M97.167 306.665C98.5607 308.524 100.742 311.089 103.873 313.634C104.661 314.26 113.124 321.148 115.225 319.573C116.619 318.522 115.79 313.351 105.166 294.304" stroke="black" stroke-width="3" stroke-miterlimit="10" stroke-linecap="round" stroke-linejoin="round"/>
<path d="M114.438 273.519C110.58 278.589 106.217 285.497 102.843 294.284C101.288 298.323 100.157 302.141 99.3691 305.635" stroke="black" stroke-width="3" stroke-miterlimit="10" stroke-linecap="round" stroke-linejoin="round"/>
<path d="M83.1104 273.66C93.6542 261.945 101.835 251.502 107.733 243.483C120.6 226.011 122.721 220.093 122.559 213.831C122.256 202.863 115.065 195.612 117.267 193.854C119.206 192.299 126.296 196.541 130.033 202.5C133.588 208.155 133.264 214.074 133.002 216.417" stroke="black" stroke-width="3" stroke-miterlimit="10" stroke-linecap="round" stroke-linejoin="round"/>
<path d="M126.173 229.95C128.456 228.011 132.273 225.345 137.525 224.274C151.159 221.507 166.066 231.364 165.5 236.393C165.399 237.403 164.652 238.393 163.945 238.979C162.248 240.393 159.825 240.09 156.209 239.625C154.128 239.363 152.795 238.979 151.179 238.595C144.716 237.06 140.858 236.595 140.858 236.535C140.878 236.454 146.675 237.464 153.098 239.12C159.461 240.756 161.158 241.645 161.743 243.241C162.39 245.039 161.501 247.483 159.946 248.917C154.492 253.886 140.09 246.109 139.969 246.473C139.908 246.654 143.1 248.573 148.089 249.826C152.472 250.916 154.452 250.533 155.563 252.149C156.795 253.906 156.27 257.037 154.795 258.592C150.796 262.854 137.586 255.421 137.525 255.623C137.505 255.704 139.282 256.653 143.463 258.329C147.544 259.966 149.382 260.491 149.907 262.066C149.907 262.066 150.371 263.44 149.382 265.157C146.958 269.439 127.425 265.157 113.286 261.42" stroke="black" stroke-width="3" stroke-miterlimit="10" stroke-linecap="round" stroke-linejoin="round"/>
<path d="M103.348 173.09C102.601 171.514 101.045 167.555 102.055 162.768C102.459 160.829 103.187 159.253 103.853 158.122" stroke="black" stroke-width="3" stroke-miterlimit="10" stroke-linecap="round" stroke-linejoin="round"/>
<path d="M84.0195 163.293C84.5447 164.929 85.5749 167.454 87.6352 169.999C90.0388 172.968 92.7253 174.604 94.3412 175.412" stroke="black" stroke-width="3" stroke-miterlimit="10" stroke-linecap="round" stroke-linejoin="round"/>
<path d="M77.0508 197.591C77.273 197.147 79.9796 192.259 85.5546 191.653C89.4328 191.249 92.2808 193.168 93.0282 193.713" stroke="black" stroke-width="3" stroke-miterlimit="10" stroke-linecap="round" stroke-linejoin="round"/>
<path d="M26.896 113.523C29.3837 113.523 31.4003 111.506 31.4003 109.019C31.4003 106.531 29.3837 104.514 26.896 104.514C24.4083 104.514 22.3916 106.531 22.3916 109.019C22.3916 111.506 24.4083 113.523 26.896 113.523Z" stroke="black" stroke-width="3" stroke-miterlimit="10" stroke-linecap="round" stroke-linejoin="round"/>
<path d="M317.641 171.272C321.556 171.272 324.73 168.098 324.73 164.182C324.73 160.267 321.556 157.092 317.641 157.092C313.725 157.092 310.551 160.267 310.551 164.182C310.551 168.098 313.725 171.272 317.641 171.272Z" stroke="black" stroke-width="3" stroke-miterlimit="10" stroke-linecap="round" stroke-linejoin="round"/>
<path d="M333.457 99.0809C339.158 99.0809 343.779 94.4597 343.779 88.7592C343.779 83.0587 339.158 78.4375 333.457 78.4375C327.757 78.4375 323.136 83.0587 323.136 88.7592C323.136 94.4597 327.757 99.0809 333.457 99.0809Z" stroke="black" stroke-width="3" stroke-miterlimit="10" stroke-linecap="round" stroke-linejoin="round"/>
<path d="M87.2912 58.5009C90.7048 58.5009 93.4721 55.7337 93.4721 52.32C93.4721 48.9064 90.7048 46.1392 87.2912 46.1392C83.8776 46.1392 81.1104 48.9064 81.1104 52.32C81.1104 55.7337 83.8776 58.5009 87.2912 58.5009Z" stroke="black" stroke-width="3" stroke-miterlimit="10" stroke-linecap="round" stroke-linejoin="round"/>
<path d="M87.1688 54.461C88.1281 54.461 88.9059 53.6833 88.9059 52.7239C88.9059 51.7645 88.1281 50.9868 87.1688 50.9868C86.2094 50.9868 85.4316 51.7645 85.4316 52.7239C85.4316 53.6833 86.2094 54.461 87.1688 54.461Z" fill="black" stroke="black" stroke-width="3" stroke-miterlimit="10" stroke-linecap="round" stroke-linejoin="round"/>
<path d="M56.2857 119.178C58.2045 119.178 59.76 117.623 59.76 115.704C59.76 113.785 58.2045 112.23 56.2857 112.23C54.367 112.23 52.8115 113.785 52.8115 115.704C52.8115 117.623 54.367 119.178 56.2857 119.178Z" fill="black" stroke="black" stroke-width="3" stroke-miterlimit="10" stroke-linecap="round" stroke-linejoin="round"/>
<path d="M334.143 93.93C336.854 93.93 339.051 91.7324 339.051 89.0216C339.051 86.3108 336.854 84.1133 334.143 84.1133C331.432 84.1133 329.234 86.3108 329.234 89.0216C329.234 91.7324 331.432 93.93 334.143 93.93Z" fill="black" stroke="black" stroke-width="3" stroke-miterlimit="10" stroke-linecap="round" stroke-linejoin="round"/>
<path d="M301.138 69.166C306.906 69.166 311.581 64.4906 311.581 58.7231C311.581 52.9557 306.906 48.2803 301.138 48.2803C295.371 48.2803 290.695 52.9557 290.695 58.7231C290.695 64.4906 295.371 69.166 301.138 69.166Z" fill="black" stroke="black" stroke-width="3" stroke-miterlimit="10" stroke-linecap="round" stroke-linejoin="round"/>
<path d="M277.928 131.055C279.925 131.055 281.544 129.437 281.544 127.44C281.544 125.443 279.925 123.824 277.928 123.824C275.931 123.824 274.312 125.443 274.312 127.44C274.312 129.437 275.931 131.055 277.928 131.055Z" fill="black" stroke="black" stroke-width="3" stroke-miterlimit="10" stroke-linecap="round" stroke-linejoin="round"/>
</svg>
