<svg width="499" height="524" viewBox="0 0 499 524" fill="none" xmlns="http://www.w3.org/2000/svg">
<g clip-path="url(#clip0_491_6184)">
<g opacity="0.5">
<mask id="path-1-inside-1_491_6184" fill="white">
<path d="M-499 24.9999C-499 -250.59 -275.59 -474 8.72479e-05 -474C275.59 -474 499 -250.59 499 25C499 300.59 275.59 524 0 524C-275.59 524 -499 300.59 -499 24.9999ZM479.04 25C479.04 -239.566 264.567 -454.04 8.5503e-05 -454.04C-264.566 -454.04 -479.04 -239.567 -479.04 24.9999C-479.04 289.566 -264.566 504.04 1.74496e-06 504.04C264.566 504.04 479.04 289.566 479.04 25Z"/>
</mask>
<path d="M-499 24.9999C-499 -250.59 -275.59 -474 8.72479e-05 -474C275.59 -474 499 -250.59 499 25C499 300.59 275.59 524 0 524C-275.59 524 -499 300.59 -499 24.9999ZM479.04 25C479.04 -239.566 264.567 -454.04 8.5503e-05 -454.04C-264.566 -454.04 -479.04 -239.567 -479.04 24.9999C-479.04 289.566 -264.566 504.04 1.74496e-06 504.04C264.566 504.04 479.04 289.566 479.04 25Z" stroke="#FF7229" stroke-width="2" mask="url(#path-1-inside-1_491_6184)"/>
<mask id="path-2-inside-2_491_6184" fill="white">
<path d="M-374.25 24.9999C-374.25 -181.693 -206.693 -349.25 6.5436e-05 -349.25C206.693 -349.25 374.25 -181.693 374.25 25C374.25 231.693 206.693 399.25 0 399.25C-206.693 399.25 -374.25 231.693 -374.25 24.9999ZM366.765 25C366.765 -177.559 202.559 -341.765 6.47816e-05 -341.765C-202.559 -341.765 -366.765 -177.559 -366.765 24.9999C-366.765 227.559 -202.559 391.765 6.54358e-07 391.765C202.559 391.765 366.765 227.559 366.765 25Z"/>
</mask>
<path d="M-374.25 24.9999C-374.25 -181.693 -206.693 -349.25 6.5436e-05 -349.25C206.693 -349.25 374.25 -181.693 374.25 25C374.25 231.693 206.693 399.25 0 399.25C-206.693 399.25 -374.25 231.693 -374.25 24.9999ZM366.765 25C366.765 -177.559 202.559 -341.765 6.47816e-05 -341.765C-202.559 -341.765 -366.765 -177.559 -366.765 24.9999C-366.765 227.559 -202.559 391.765 6.54358e-07 391.765C202.559 391.765 366.765 227.559 366.765 25Z" stroke="#FF7229" stroke-width="2" mask="url(#path-2-inside-2_491_6184)"/>
<mask id="path-3-inside-3_491_6184" fill="white">
<path d="M-244.509 25C-244.509 -112.795 -132.805 -224.5 4.99052 -224.5C142.786 -224.5 254.491 -112.795 254.491 25C254.49 162.795 142.786 274.5 4.99048 274.5C-132.805 274.5 -244.51 162.795 -244.509 25ZM247.006 25C247.006 -108.661 138.652 -217.015 4.99052 -217.015C-128.671 -217.015 -237.025 -108.661 -237.025 25C-237.025 158.661 -128.671 267.015 4.99048 267.015C138.652 267.015 247.006 158.661 247.006 25Z"/>
</mask>
<path d="M-244.509 25C-244.509 -112.795 -132.805 -224.5 4.99052 -224.5C142.786 -224.5 254.491 -112.795 254.491 25C254.49 162.795 142.786 274.5 4.99048 274.5C-132.805 274.5 -244.51 162.795 -244.509 25ZM247.006 25C247.006 -108.661 138.652 -217.015 4.99052 -217.015C-128.671 -217.015 -237.025 -108.661 -237.025 25C-237.025 158.661 -128.671 267.015 4.99048 267.015C138.652 267.015 247.006 158.661 247.006 25Z" stroke="#FF7229" stroke-width="2" mask="url(#path-3-inside-3_491_6184)"/>
</g>
</g>
<defs>
<clipPath id="clip0_491_6184">
<rect width="499" height="524" fill="white" transform="translate(499 524) rotate(-180)"/>
</clipPath>
</defs>
</svg>
