<svg width="279" height="217" viewBox="0 0 279 217" fill="none" xmlns="http://www.w3.org/2000/svg">
<path d="M278.398 191.409H0V191.548H278.398V191.409Z" fill="#EBEBEB"/>
<path d="M201.559 195.824H183.118V195.963H201.559V195.824Z" fill="#EBEBEB"/>
<path d="M245.502 195.895H222.596V196.034H245.502V195.895Z" fill="#EBEBEB"/>
<path d="M209.327 199.526H198.643V199.665H209.327V199.526Z" fill="#EBEBEB"/>
<path d="M125.652 198.476H96.8828V198.615H125.652V198.476Z" fill="#EBEBEB"/>
<path d="M91.926 198.476H72.7778V198.615H91.926V198.476Z" fill="#EBEBEB"/>
<path d="M61.3196 196.129H35.2393V196.268H61.3196V196.129Z" fill="#EBEBEB"/>
<path d="M131.96 166.611H24.4481C23.6059 166.609 22.7987 166.274 22.2036 165.679C21.6086 165.084 21.2744 164.277 21.2744 163.436V12.521C21.2817 11.6848 21.6192 10.8852 22.2134 10.296C22.8077 9.70677 23.6107 9.37546 24.4481 9.37402H131.96C132.803 9.37402 133.612 9.70851 134.208 10.3039C134.804 10.8993 135.139 11.7068 135.139 12.5488V163.436C135.139 164.278 134.804 165.086 134.208 165.681C133.612 166.276 132.803 166.611 131.96 166.611ZM24.4481 9.48522C23.6428 9.4867 22.871 9.80718 22.3021 10.3763C21.7331 10.9455 21.4136 11.7168 21.4136 12.521V163.436C21.4136 164.24 21.7331 165.012 22.3021 165.581C22.871 166.15 23.6428 166.47 24.4481 166.472H131.96C132.766 166.47 133.538 166.15 134.108 165.581C134.678 165.012 134.998 164.241 135 163.436V12.521C134.998 11.7163 134.678 10.945 134.108 10.376C133.538 9.807 132.766 9.48669 131.96 9.48522H24.4481Z" fill="#EBEBEB"/>
<path d="M252.401 166.611H144.883C144.041 166.609 143.233 166.274 142.637 165.679C142.041 165.084 141.706 164.278 141.704 163.436V12.521C141.713 11.6843 142.052 10.8847 142.647 10.2956C143.242 9.70657 144.045 9.37544 144.883 9.37402H252.401C253.237 9.37692 254.039 9.70887 254.632 10.2979C255.225 10.887 255.561 11.6857 255.569 12.521V163.436C255.569 164.276 255.235 165.082 254.642 165.677C254.048 166.272 253.242 166.608 252.401 166.611ZM144.883 9.48522C144.078 9.48669 143.305 9.807 142.735 10.376C142.166 10.945 141.845 11.7163 141.843 12.521V163.436C141.845 164.241 142.166 165.012 142.735 165.581C143.305 166.15 144.078 166.47 144.883 166.472H252.401C253.206 166.47 253.979 166.15 254.549 165.581C255.118 165.012 255.439 164.241 255.441 163.436V12.521C255.439 11.7163 255.118 10.945 254.549 10.376C253.979 9.807 253.206 9.48669 252.401 9.48522H144.883Z" fill="#EBEBEB"/>
<path d="M96.9218 0H19.3657V151.087H96.9218V0Z" fill="#F5F5F5"/>
<path d="M56.7928 151.093H36.5645V60.8212L56.7928 54.2214V151.093Z" fill="#EBEBEB"/>
<path d="M73.68 151.093H53.4517V82.4437L73.68 75.844V151.093Z" fill="#E6E6E6"/>
<path d="M71.2649 80.5258H66.4375V64.146L71.2649 62.5725V80.5258Z" fill="#E6E6E6"/>
<path d="M177.812 0H100.256V151.087H177.812V0Z" fill="#F5F5F5"/>
<path d="M123.024 97.4279H100.256V151.093H123.024V97.4279Z" fill="#E6E6E6"/>
<path d="M259.038 0H181.482V151.087H259.038V0Z" fill="#F5F5F5"/>
<path d="M242.145 151.093H225.686V42.467L242.145 35.8617V151.093Z" fill="#EBEBEB"/>
<path d="M259.032 151.093H238.803V82.4437L259.032 75.844V151.093Z" fill="#E6E6E6"/>
<path d="M186.525 151.088H226.982V97.7172L186.525 92.5853V151.088Z" fill="#E6E6E6"/>
<path d="M256.622 80.5258H254.205V64.146L256.622 62.5725V80.5258Z" fill="#E6E6E6"/>
<path d="M248.726 84.4682H246.315V68.0884L248.726 66.5094V84.4682Z" fill="#E6E6E6"/>
<path d="M31.4925 106.241H40.7075V151.093H25.4902V112.235C25.4902 110.645 26.1226 109.121 27.2483 107.996C28.3739 106.872 29.9006 106.241 31.4925 106.241Z" fill="#EBEBEB"/>
<path d="M96.9204 107.814H76.7031V151.093H96.9204V107.814Z" fill="#EBEBEB"/>
<path d="M143.241 114.52L123.024 107.814V151.093H143.241V114.52Z" fill="#EBEBEB"/>
<path d="M150.897 114.52L130.68 107.814V151.093H150.897V114.52Z" fill="#E6E6E6"/>
<path d="M150.898 107.648L171.115 100.942V151.093H150.898V107.648Z" fill="#F0F0F0"/>
<path opacity="0.5" d="M61.7207 151.087H40.8799L83.8367 0H104.678L61.7207 151.087Z" fill="white"/>
<path opacity="0.5" d="M124.194 151.087H103.353L146.304 0H167.151L124.194 151.087Z" fill="white"/>
<path opacity="0.5" d="M150.28 151.087H129.439L172.396 0H193.237L150.28 151.087Z" fill="white"/>
<path opacity="0.5" d="M200.446 151.087H190.028L232.985 0H243.403L200.446 151.087Z" fill="white"/>
<path d="M61.7158 163.942C67.7292 131.738 83.5756 116.626 97.0612 108.931C84.1435 121.13 75.3573 163.336 61.7158 163.942Z" fill="#FAFAFA"/>
<path d="M48.5357 161.406C44.0814 137.131 33.3742 127.635 24.3096 123.598C33.0568 131.238 39.46 162.935 48.5357 161.406Z" fill="#FAFAFA"/>
<path d="M56.3197 167.834C54.6048 132.918 41.2862 117.589 29.3096 110.227C40.1782 122.604 43.2851 168.307 56.3197 167.834Z" fill="#FAFAFA"/>
<path d="M56.3193 164.838C59.1033 129.754 73.9586 113.335 87.1658 105.001C75.0388 118.256 70.4619 164.248 56.3193 164.838Z" fill="#FAFAFA"/>
<path d="M58.5146 170.325C62.969 134.285 53.1193 112.568 43.1304 99.5131C51.2262 117.094 46.1705 164.676 58.5146 170.325Z" fill="#FAFAFA"/>
<path d="M72.3828 159.361C83.6245 138.367 97.7281 133.363 108.575 132.851C97.099 136.832 81.7258 164.043 72.3828 159.361Z" fill="#FAFAFA"/>
<path d="M70.0503 160.156C77.1383 136.365 90.5571 126.24 101.582 121.558C90.6517 129.709 80.6684 160.823 70.0503 160.156Z" fill="#FAFAFA"/>
<path d="M57.6114 170.442C69.7272 133.128 64.2539 110.121 56.8263 96.1099C61.353 114.753 46.2137 164.053 57.6114 170.442Z" fill="#FAFAFA"/>
<path d="M37.0557 157.026V180.5C37.0557 186.499 47.8965 191.409 61.1538 191.409C74.4055 191.409 85.2519 186.499 85.2519 180.5V157.026H37.0557Z" fill="#F5F5F5"/>
<path d="M222.718 172.538C221.388 150.392 211.839 140.001 203.27 134.73C211.087 143.098 213.448 172.132 222.718 172.538Z" fill="#E0E0E0"/>
<path d="M231.983 170.809C237.117 154.129 245.291 147.579 251.85 144.799C245.196 150.042 238.069 171.854 231.983 170.809Z" fill="#E0E0E0"/>
<path d="M226.098 175.229C230.29 151.221 240.736 140.679 249.578 135.619C241.092 144.121 234.967 175.546 226.098 175.229Z" fill="#E0E0E0"/>
<path d="M226.36 173.166C227.474 149.036 218.732 137.749 210.408 132.022C217.569 141.146 216.722 172.761 226.36 173.166Z" fill="#E0E0E0"/>
<path d="M224.389 176.936C224.45 152.155 233.08 137.22 241.054 128.241C233.993 140.334 233.325 173.049 224.389 176.936Z" fill="#E0E0E0"/>
<path d="M215.842 169.397C209.946 154.941 200.72 151.516 193.336 151.166C200.848 153.901 209.027 172.616 215.842 169.397Z" fill="#E0E0E0"/>
<path d="M217.357 169.947C214.573 153.584 206.249 146.639 199.105 143.404C205.881 149.008 210.029 170.403 217.357 169.947Z" fill="#E0E0E0"/>
<path d="M224.989 177.019C219.917 151.36 225.657 135.542 231.955 125.912C227.244 138.722 233.33 172.621 224.989 177.019Z" fill="#E0E0E0"/>
<path d="M239.01 167.834V183.958C239.01 188.078 231.566 191.448 222.467 191.448C213.369 191.448 205.931 188.078 205.931 183.958V167.834H239.01Z" fill="#F5F5F5"/>
<path d="M139.198 216.517C198.821 216.517 247.155 213.699 247.155 210.223C247.155 206.747 198.821 203.929 139.198 203.929C79.5752 203.929 31.2412 206.747 31.2412 210.223C31.2412 213.699 79.5752 216.517 139.198 216.517Z" fill="#F5F5F5"/>
<path d="M148.666 50.4564V57.7455C148.665 58.2597 148.46 58.7524 148.095 59.116C147.731 59.4796 147.238 59.6845 146.723 59.686H128.811C128.296 59.6845 127.803 59.4796 127.438 59.116C127.074 58.7524 126.869 58.2597 126.868 57.7455V31.3189C126.872 30.8066 127.079 30.3167 127.442 29.9555C127.806 29.5944 128.298 29.391 128.811 29.3895H146.695C146.952 29.3866 147.206 29.4342 147.444 29.5297C147.682 29.6251 147.899 29.7665 148.082 29.9457C148.265 30.1249 148.411 30.3385 148.511 30.5741C148.611 30.8097 148.664 31.0628 148.666 31.3189V42.8503" fill="white"/>
<path d="M146.695 60.0031H128.811C128.22 60.0031 127.653 59.7688 127.236 59.3517C126.818 58.9347 126.583 58.369 126.583 57.7791V31.3191C126.583 30.7293 126.818 30.1636 127.236 29.7465C127.653 29.3294 128.22 29.0951 128.811 29.0951H146.695C147.286 29.0951 147.852 29.3294 148.27 29.7465C148.687 30.1636 148.922 30.7293 148.922 31.3191V42.8505H148.332V31.3191C148.332 30.8767 148.156 30.4524 147.843 30.1396C147.529 29.8268 147.105 29.6511 146.662 29.6511H128.811C128.368 29.6511 127.943 29.8268 127.63 30.1396C127.316 30.4524 127.14 30.8767 127.14 31.3191V57.7458C127.14 58.1882 127.316 58.6124 127.63 58.9252C127.943 59.238 128.368 59.4138 128.811 59.4138H146.695C147.138 59.4138 147.563 59.238 147.876 58.9252C148.189 58.6124 148.365 58.1882 148.365 57.7458V50.4566H148.956V57.7458C148.96 58.0435 148.905 58.339 148.793 58.6149C148.681 58.8908 148.514 59.1415 148.303 59.352C148.093 59.5625 147.842 59.7286 147.565 59.8405C147.289 59.9523 146.993 60.0076 146.695 60.0031Z" fill="#FF7229"/>
<path d="M136.417 56.0778C136.784 55.8482 137.165 55.6421 137.558 55.4606C137.74 55.3784 137.926 55.306 138.115 55.2438C138.325 55.1585 138.547 55.1078 138.772 55.0936L138.544 54.9658C138.505 54.9046 138.483 55.0603 138.472 55.0992L138.394 55.2938C138.328 55.4315 138.281 55.5774 138.254 55.7275C138.24 55.7809 138.239 55.8371 138.25 55.8912C138.262 55.9453 138.287 55.9958 138.322 56.0383C138.358 56.0809 138.403 56.1142 138.454 56.1356C138.506 56.157 138.561 56.1658 138.616 56.1611C139.2 56.0567 139.758 55.8395 140.259 55.5218H140.053C140.114 55.5218 140.187 55.6052 140.248 55.6274C140.339 55.6603 140.435 55.679 140.532 55.683C140.749 55.683 140.966 55.6496 141.183 55.683C141.523 55.7163 141.517 55.1882 141.183 55.1604C140.955 55.1604 140.715 55.2104 140.493 55.1604C140.27 55.1103 140.203 54.9546 139.969 55.0603C139.736 55.1659 139.546 55.3049 139.318 55.3994C139.212 55.4441 139.105 55.4831 138.995 55.5162L138.783 55.5774C138.722 55.5774 138.611 55.5773 138.7 55.6663L138.778 55.8498C138.778 55.4939 139.156 55.1604 139.056 54.7934C138.956 54.4264 138.499 54.5877 138.227 54.6544C137.487 54.8685 136.784 55.1907 136.139 55.6107C136.078 55.6454 136.034 55.7026 136.016 55.7699C135.997 55.8371 136.006 55.9089 136.041 55.9693C136.076 56.0298 136.133 56.074 136.201 56.0923C136.268 56.1105 136.34 56.1013 136.4 56.0666L136.417 56.0778Z" fill="#E0E0E0"/>
<path d="M146.562 33.3318H128.939V33.9156H146.562V33.3318Z" fill="#E0E0E0"/>
<path d="M144.568 37.4736H128.939V38.0574H144.568V37.4736Z" fill="#E0E0E0"/>
<path d="M146.562 41.6219H128.939V42.2057H146.562V41.6219Z" fill="#E0E0E0"/>
<path d="M133.783 45.7697H128.939V46.3535H133.783V45.7697Z" fill="#E0E0E0"/>
<path d="M142.258 45.7697H135.816V46.3535H142.258V45.7697Z" fill="#E0E0E0"/>
<path d="M146.562 49.912H128.939V50.4958H146.562V49.912Z" fill="#E0E0E0"/>
<path d="M131.361 57.3171C130.823 57.3171 130.298 57.1579 129.851 56.8598C129.404 56.5617 129.056 56.1379 128.85 55.6421C128.645 55.1463 128.591 54.6008 128.696 54.0745C128.801 53.5481 129.059 53.0647 129.439 52.6852C129.819 52.3058 130.304 52.0473 130.831 51.9426C131.358 51.8379 131.904 51.8917 132.401 52.097C132.897 52.3024 133.321 52.6502 133.62 53.0964C133.919 53.5426 134.078 54.0672 134.078 54.6038C134.078 55.3234 133.792 56.0135 133.282 56.5224C132.772 57.0312 132.081 57.3171 131.361 57.3171ZM131.361 52.4799C130.939 52.4799 130.526 52.6049 130.175 52.8391C129.825 53.0734 129.551 53.4063 129.39 53.7957C129.229 54.1852 129.187 54.6136 129.27 55.0268C129.352 55.4401 129.556 55.8195 129.855 56.1171C130.154 56.4147 130.534 56.6171 130.948 56.6986C131.362 56.7801 131.791 56.7372 132.181 56.5751C132.57 56.4131 132.903 56.1393 133.137 55.7884C133.37 55.4374 133.494 55.0252 133.493 54.6038C133.492 54.04 133.266 53.4998 132.867 53.1016C132.467 52.7035 131.925 52.4799 131.361 52.4799Z" fill="#FF7229"/>
<path d="M132.965 54.6043C132.966 54.9212 132.873 55.2313 132.697 55.4954C132.522 55.7595 132.272 55.9656 131.979 56.0876C131.686 56.2097 131.363 56.2422 131.052 56.181C130.741 56.1199 130.454 55.9678 130.229 55.7441C130.005 55.5204 129.851 55.235 129.789 54.9243C129.727 54.6135 129.758 54.2913 129.879 53.9983C130.001 53.7054 130.206 53.455 130.47 53.2788C130.734 53.1026 131.044 53.0085 131.361 53.0085C131.786 53.0085 132.193 53.1765 132.493 53.4756C132.794 53.7747 132.963 54.1805 132.965 54.6043Z" fill="#FF7229"/>
<path d="M142.03 54.1262C142.124 53.3647 142.395 52.6356 142.82 51.9967C143.221 51.3907 143.706 50.8847 144.151 50.2898C145.048 49.1778 145.977 48.0658 146.935 46.9538C148.817 44.7687 150.727 42.6059 152.809 40.5765C152.862 40.5311 152.93 40.5056 152.999 40.5043C153.069 40.503 153.137 40.5261 153.192 40.5695C153.247 40.6129 153.285 40.674 153.299 40.7422C153.314 40.8105 153.304 40.8816 153.271 40.9435C151.768 43.4288 150.092 45.7807 148.388 48.1103C147.531 49.2668 146.662 50.4177 145.771 51.5519C145.32 52.1079 144.908 52.7084 144.407 53.2199C143.883 53.7802 143.235 54.2105 142.514 54.4765C142.427 54.5054 142.332 54.4996 142.249 54.4602C142.166 54.4209 142.101 54.351 142.069 54.2652C142.047 54.2219 142.034 54.1746 142.03 54.1262Z" fill="#FF7229"/>
<path d="M143.47 73.8138L139.811 77.0004L140.195 77.4404L143.854 74.2538L143.47 73.8138Z" fill="#FF7229"/>
<path d="M139.112 68.8802L137.564 75.7755L138.134 75.903L139.681 69.0077L139.112 68.8802Z" fill="#FF7229"/>
<path d="M133.662 74.164L133.235 74.5627L135.27 76.7325L135.697 76.3338L133.662 74.164Z" fill="#FF7229"/>
<path d="M176.537 205.804H171.799L171.22 194.851H175.952L176.537 205.804Z" fill="#7F3E3B"/>
<path d="M200.424 205.804H195.685L193.831 194.851H198.564L200.424 205.804Z" fill="#7F3E3B"/>
<path d="M195.379 205.254H200.696C200.789 205.252 200.879 205.284 200.951 205.343C201.022 205.402 201.07 205.485 201.086 205.576L201.821 209.779C201.836 209.885 201.829 209.992 201.799 210.094C201.769 210.196 201.717 210.29 201.647 210.37C201.578 210.45 201.491 210.514 201.395 210.558C201.298 210.602 201.193 210.625 201.086 210.625C199.232 210.591 198.336 210.48 195.991 210.48C194.555 210.48 190.674 210.63 188.686 210.63C186.699 210.63 186.532 208.667 187.35 208.49C191.042 207.694 193.375 206.594 194.588 205.548C194.808 205.358 195.089 205.254 195.379 205.254Z" fill="#263238"/>
<path d="M171.682 205.254H176.85C176.942 205.252 177.033 205.284 177.104 205.343C177.175 205.402 177.223 205.485 177.239 205.576L177.974 209.779C177.991 209.884 177.985 209.991 177.957 210.093C177.928 210.195 177.878 210.289 177.809 210.37C177.74 210.45 177.654 210.515 177.558 210.559C177.461 210.603 177.356 210.625 177.25 210.625C175.391 210.591 172.696 210.48 170.352 210.48C167.612 210.48 166.916 210.63 163.698 210.63C161.755 210.63 161.309 208.667 162.133 208.49C165.875 207.683 167.228 207.594 170.519 205.626C170.866 205.399 171.268 205.27 171.682 205.254Z" fill="#263238"/>
<path d="M171.532 58.5304L165.062 56.6344C165.062 56.6344 158.47 72.2747 156.237 73.3144C153.202 74.7044 145.101 78.9689 141.671 80.9816C141.437 81.7545 141.432 83.8728 141.805 84.4844C147.423 84.0396 158.949 80.231 161.165 78.1071C166.22 73.2588 171.532 58.5304 171.532 58.5304Z" fill="#7F3E3B"/>
<path d="M173.492 55.5778C175.329 59.67 162.712 77.6177 162.712 77.6177L156.587 71.2682C156.587 71.2682 162.005 57.6851 164.939 52.4754C167.935 47.1211 171.493 51.0742 173.492 55.5778Z" fill="#FF7229"/>
<path opacity="0.4" d="M173.492 55.5778C175.329 59.67 162.712 77.6177 162.712 77.6177L156.587 71.2682C156.587 71.2682 162.005 57.6851 164.939 52.4754C167.935 47.1211 171.493 51.0742 173.492 55.5778Z" fill="white"/>
<path d="M156.142 70.7071C155.758 70.935 154.934 72.4307 154.75 73.1757C154.566 73.9207 158.876 79.6698 160.552 79.4363C162.228 79.2027 164.143 77.5737 164.488 76.6952C164.833 75.8167 156.949 70.2345 156.142 70.7071Z" fill="#FF7229"/>
<path d="M142.389 80.6254L138.491 79.9137L138.725 85.4737C138.725 85.4737 140.095 86.0297 143.046 84.206L142.389 80.6254Z" fill="#7F3E3B"/>
<path d="M133.781 81.7662L134.494 85.1856L138.698 85.497L138.464 79.9203L133.781 81.7662Z" fill="#7F3E3B"/>
<path opacity="0.2" d="M171.22 194.856L171.52 200.499H176.253L175.958 194.856H171.22Z" fill="black"/>
<path opacity="0.2" d="M198.569 194.856H193.831L194.789 200.499H199.527L198.569 194.856Z" fill="black"/>
<path d="M167.473 49.9957C167.473 49.9957 161.154 66.242 165.196 92.8355H190.524C190.881 88.9435 189.411 68.0434 194.016 49.751C191.232 49.209 188.416 48.8505 185.586 48.678C181.999 48.4721 178.404 48.4721 174.817 48.678C172.339 48.9297 169.884 49.3702 167.473 49.9957Z" fill="#FF7229"/>
<path opacity="0.2" d="M167.473 49.9957C167.473 49.9957 161.154 66.242 165.196 92.8355H190.524C190.881 88.9435 189.411 68.0434 194.016 49.751C191.232 49.209 188.416 48.8505 185.586 48.678C181.999 48.4721 178.404 48.4721 174.817 48.678C172.339 48.9297 169.884 49.3702 167.473 49.9957Z" fill="black"/>
<path opacity="0.2" d="M188.296 54.2658C187.74 57.2794 188.335 64.4796 190.813 72.8029C191.115 65.6571 192.046 58.5517 193.597 51.5692V51.5359C191.916 51.3635 188.837 51.4414 188.296 54.2658Z" fill="black"/>
<path d="M184.662 38.6255C183.815 42.0838 183.275 46.3706 185.586 48.678C185.586 48.678 184.027 52.1919 177.59 52.1919C171.705 52.1919 174.806 48.678 174.806 48.678C178.704 47.7606 178.743 42.9901 178.197 40.299L184.662 38.6255Z" fill="#7F3E3B"/>
<path d="M177.619 52.1864C181.41 53.3706 182.162 54.5827 182.162 54.5827C182.162 54.5827 186.889 52.6645 186.711 48.5056C186.137 48.0817 185.517 47.7236 184.863 47.4381C184.863 47.4381 184.462 50.5184 177.619 52.1864Z" fill="#FF7229"/>
<path d="M177.618 52.1865C175.491 52.3867 173.721 54.2048 173.721 54.2048C173.721 54.2048 172.368 52.787 173.665 48.6726C173.665 48.6726 174.929 48.2445 175.976 48.0221C175.948 48.0277 175.096 51.2969 177.618 52.1865Z" fill="#FF7229"/>
<path opacity="0.2" d="M178.207 40.3046C178.53 41.8781 178.653 44.1966 177.907 45.9814C178.515 45.8818 179.106 45.6945 179.661 45.4254C181.888 44.4023 183.035 42.7844 184.271 40.4214C184.382 39.8042 184.516 39.2037 184.661 38.6255L178.207 40.3046Z" fill="black"/>
<path d="M177.457 27.5723C175.942 28.0671 172.557 30.9695 175.786 32.4317C179.016 33.894 180.096 26.7161 177.457 27.5723Z" fill="#263238"/>
<path d="M187.673 34.3942C186.198 38.9311 185.563 41.6222 182.662 43.5126C178.302 46.2926 173.263 42.9566 173.38 38.1638C173.481 33.8215 175.875 27.1328 180.78 26.271C185.686 25.4092 189.149 29.8739 187.673 34.3942Z" fill="#7F3E3B"/>
<path d="M180.557 29.4292C178.051 29.8518 175.963 29.7184 175.206 27.6389C174.449 25.5595 177.895 23.38 180.273 24.3585C182.027 22.5348 186.815 23.936 187.433 25.6874C190.217 25.5094 192.851 28.712 190.963 30.3522C191.39 30.6171 191.751 30.9756 192.019 31.4006C192.286 31.8255 192.453 32.3058 192.506 32.8047C192.56 33.3037 192.499 33.8084 192.328 34.2804C192.157 34.7523 191.881 35.1792 191.52 35.5286C192.333 37.9416 189.404 40.3491 187.094 39.3705C184.816 38.6922 183.575 39.2482 183.257 37.7804C182.94 36.3125 183.742 34.8947 185.679 34.6112C184.699 33.4436 184.46 31.5976 185.123 30.8026C182.779 31.8645 180.858 30.5301 180.557 29.4292Z" fill="#263238"/>
<path d="M177.551 39.2097C177.994 39.2468 178.44 39.1962 178.863 39.0607C179.286 38.9252 179.679 38.7075 180.017 38.4202C180.038 38.3985 180.05 38.3696 180.05 38.3396C180.05 38.3095 180.038 38.2807 180.017 38.259C180.007 38.2482 179.995 38.2396 179.982 38.2337C179.969 38.2278 179.954 38.2247 179.939 38.2247C179.925 38.2247 179.91 38.2278 179.897 38.2337C179.883 38.2396 179.871 38.2482 179.861 38.259C179.49 38.5667 179.054 38.7865 178.585 38.902C178.116 39.0176 177.628 39.0258 177.155 38.9262C177.126 38.9211 177.096 38.9276 177.071 38.9441C177.046 38.9606 177.028 38.986 177.022 39.0151C177.018 39.029 177.017 39.0437 177.019 39.0581C177.021 39.0725 177.026 39.0862 177.034 39.0984C177.042 39.1105 177.052 39.1208 177.065 39.1285C177.077 39.1362 177.091 39.1412 177.105 39.143C177.253 39.1727 177.401 39.195 177.551 39.2097Z" fill="#263238"/>
<path d="M187.936 40.661C186.988 41.3999 185.791 41.7446 184.595 41.6229C183.042 41.4505 182.925 39.9215 183.899 38.765C184.779 37.7198 186.65 36.541 187.947 37.3083C189.244 38.0756 189.1 39.738 187.936 40.661Z" fill="#7F3E3B"/>
<path d="M181.843 92.8355C181.843 92.8355 181.198 98.7847 180.374 106.841C179.427 115.976 178.252 127.836 177.506 136.865C177.506 136.91 177.506 136.948 177.506 136.987C177.361 138.705 177.233 140.323 177.127 141.78C176.069 156.52 177.963 199.398 177.963 199.398H169.934C169.934 199.398 162.539 155.641 162.723 140.64C162.896 126.223 165.19 92.8243 165.19 92.8243L181.843 92.8355Z" fill="#FF7229"/>
<path d="M178.62 196.269C178.659 196.269 178.481 199.571 178.481 199.571H169.232L168.999 195.946L178.62 196.269Z" fill="#263238"/>
<path opacity="0.2" d="M180.402 106.841C179.456 115.976 178.281 127.836 177.535 136.865C177.535 136.91 177.535 136.949 177.535 136.988C175.77 128.42 175.218 117.767 175.903 100.225L180.402 106.841Z" fill="black"/>
<path d="M174.176 92.8359C174.176 92.8359 177.873 127.008 180.173 140.546C182.695 155.375 192.651 199.404 192.651 199.404H201.326C201.326 199.404 195.479 156.592 194.332 141.892C193.096 125.957 190.54 92.8359 190.54 92.8359H174.176Z" fill="#FF7229"/>
<path d="M201.432 196.469C201.471 196.469 201.732 199.572 201.732 199.572H192.2L191.504 196.108L201.432 196.469Z" fill="#263238"/>
<path d="M179.805 34.1944C179.705 34.567 179.432 34.8283 179.193 34.7504C178.954 34.6726 178.837 34.3501 178.932 33.9776C179.026 33.6051 179.304 33.3438 179.543 33.4216C179.782 33.4994 179.899 33.8386 179.805 34.1944Z" fill="#263238"/>
<path d="M175.64 33.2824C175.54 33.6549 175.267 33.9163 175.028 33.8384C174.789 33.7606 174.672 33.4437 174.767 33.0656C174.861 32.6875 175.139 32.4317 175.378 32.5096C175.617 32.5874 175.734 32.9099 175.64 33.2824Z" fill="#263238"/>
<path d="M177.585 33.7607C176.848 34.8085 175.978 35.756 174.996 36.5797C175.486 37.3358 176.666 37.2969 176.666 37.2969L177.585 33.7607Z" fill="#630F0F"/>
<path d="M182.072 33.1048C182.039 33.0961 182.008 33.0801 181.982 33.058C181.956 33.0358 181.936 33.0082 181.922 32.977C181.824 32.7198 181.664 32.4909 181.456 32.3104C181.248 32.13 180.999 32.0037 180.73 31.9428C180.701 31.9389 180.673 31.929 180.648 31.9137C180.623 31.8984 180.602 31.8781 180.585 31.8541C180.568 31.83 180.556 31.8028 180.551 31.774C180.545 31.7452 180.546 31.7156 180.552 31.687C180.563 31.628 180.596 31.5754 180.645 31.5402C180.694 31.505 180.754 31.4899 180.814 31.498C181.156 31.568 181.475 31.7228 181.742 31.9482C182.008 32.1736 182.214 32.4624 182.339 32.7879C182.36 32.8442 182.36 32.9063 182.337 32.9619C182.314 33.0176 182.271 33.0626 182.217 33.0882C182.172 33.1098 182.121 33.1157 182.072 33.1048Z" fill="#263238"/>
<path d="M174.834 31.3814C174.803 31.3689 174.775 31.352 174.75 31.3313C174.729 31.3106 174.712 31.286 174.701 31.2588C174.689 31.2316 174.684 31.2024 174.684 31.1729C174.684 31.1434 174.689 31.1142 174.701 31.087C174.712 31.0598 174.729 31.0351 174.75 31.0144C174.985 30.7418 175.282 30.529 175.616 30.3937C175.95 30.2583 176.312 30.2043 176.671 30.236C176.7 30.2399 176.728 30.2498 176.753 30.2651C176.778 30.2804 176.8 30.3007 176.816 30.3248C176.833 30.3488 176.845 30.3761 176.85 30.4048C176.856 30.4336 176.856 30.4632 176.849 30.4918C176.837 30.5502 176.803 30.602 176.755 30.637C176.707 30.672 176.647 30.6876 176.587 30.6808C176.302 30.6597 176.016 30.7061 175.752 30.8163C175.487 30.9264 175.253 31.0971 175.067 31.3147C175.038 31.3451 175 31.3673 174.959 31.379C174.918 31.3907 174.875 31.3915 174.834 31.3814Z" fill="#263238"/>
<path d="M196.821 56.2064L190.841 59.8204C190.841 59.8204 197.522 74.2764 197.483 76.7061C197.372 81.2431 199.326 91.0787 198.797 96.2607C199.532 96.522 201.581 96.5831 202.227 96.2217C203.413 91.5347 205.056 79.2193 204.583 76.1335C203.547 69.4225 196.821 56.2064 196.821 56.2064Z" fill="#7F3E3B"/>
<path d="M194.016 49.7511C198.47 50.4016 204.817 72.9752 204.817 72.9752L196.577 76.0944C196.577 76.0944 189.4 63.8624 187.64 58.3635C185.747 52.6256 189.244 49.0505 194.016 49.7511Z" fill="#FF7229"/>
<path opacity="0.4" d="M194.016 49.7511C198.47 50.4016 204.817 72.9752 204.817 72.9752L196.577 76.0944C196.577 76.0944 189.4 63.8624 187.64 58.3635C185.747 52.6256 189.244 49.0505 194.016 49.7511Z" fill="white"/>
<path d="M193.765 206.082C193.447 206.109 193.129 206.023 192.869 205.837C192.786 205.765 192.724 205.673 192.688 205.57C192.651 205.466 192.643 205.355 192.663 205.248C192.666 205.181 192.687 205.117 192.723 205.062C192.76 205.006 192.81 204.961 192.869 204.931C193.426 204.664 194.89 205.598 195.057 205.709C195.076 205.72 195.09 205.737 195.098 205.757C195.106 205.777 195.107 205.8 195.102 205.82C195.096 205.842 195.085 205.862 195.07 205.877C195.054 205.893 195.034 205.904 195.013 205.909C194.605 206.015 194.186 206.073 193.765 206.082ZM193.114 205.086C193.064 205.083 193.014 205.093 192.969 205.114C192.946 205.126 192.926 205.145 192.912 205.167C192.899 205.19 192.891 205.216 192.891 205.242C192.877 205.316 192.882 205.393 192.905 205.465C192.929 205.537 192.97 205.602 193.025 205.654C193.27 205.87 193.888 205.898 194.695 205.737C194.218 205.416 193.68 205.194 193.114 205.086Z" fill="#FF7229"/>
<path d="M194.99 205.915C194.974 205.92 194.956 205.92 194.94 205.915C194.461 205.654 193.564 204.614 193.693 204.086C193.713 204.004 193.761 203.931 193.827 203.879C193.894 203.827 193.975 203.798 194.06 203.797C194.144 203.786 194.23 203.792 194.311 203.816C194.393 203.84 194.469 203.881 194.533 203.936C195.062 204.386 195.09 205.754 195.09 205.81C195.09 205.83 195.085 205.851 195.075 205.869C195.066 205.888 195.052 205.903 195.034 205.915C195.02 205.917 195.005 205.917 194.99 205.915ZM194.127 203.975H194.077C193.932 203.975 193.915 204.058 193.91 204.086C193.832 204.397 194.4 205.198 194.867 205.548C194.866 205.017 194.696 204.499 194.383 204.069C194.312 204.008 194.221 203.974 194.127 203.975Z" fill="#FF7229"/>
<path d="M169.672 206.082C169.269 206.12 168.866 206.018 168.53 205.793C168.457 205.722 168.402 205.635 168.37 205.538C168.338 205.441 168.33 205.338 168.347 205.237C168.353 205.175 168.375 205.115 168.41 205.062C168.445 205.01 168.492 204.967 168.547 204.937C169.137 204.614 170.997 205.582 171.208 205.693C171.228 205.705 171.244 205.722 171.253 205.743C171.262 205.764 171.264 205.788 171.259 205.81C171.254 205.833 171.243 205.855 171.226 205.872C171.209 205.889 171.187 205.9 171.164 205.904C170.673 206.009 170.173 206.068 169.672 206.082ZM168.859 205.087C168.786 205.083 168.714 205.097 168.647 205.126C168.626 205.139 168.607 205.157 168.594 205.178C168.58 205.199 168.572 205.223 168.569 205.248C168.558 205.314 168.563 205.381 168.585 205.445C168.606 205.508 168.643 205.564 168.692 205.61C168.97 205.865 169.744 205.91 170.802 205.738C170.197 205.41 169.539 205.19 168.859 205.087Z" fill="#FF7229"/>
<path d="M171.147 205.915H171.097C170.541 205.659 169.427 204.636 169.566 204.103C169.566 203.975 169.694 203.819 170 203.791C170.11 203.777 170.222 203.787 170.327 203.819C170.433 203.852 170.53 203.907 170.613 203.98C171.17 204.475 171.259 205.748 171.264 205.804C171.264 205.824 171.259 205.843 171.249 205.861C171.239 205.878 171.225 205.893 171.209 205.904C171.19 205.916 171.169 205.92 171.147 205.915ZM170.078 203.975H170.012C169.811 203.975 169.794 204.075 169.789 204.097C169.722 204.42 170.451 205.209 171.019 205.57C170.991 205.039 170.796 204.529 170.463 204.114C170.357 204.02 170.219 203.971 170.078 203.975Z" fill="#FF7229"/>
<path d="M213.057 100.83L184.596 104.536C183.348 104.699 182.469 105.84 182.632 107.085L185.055 125.643C185.218 126.888 186.361 127.766 187.608 127.604L216.07 123.897C217.317 123.735 218.196 122.594 218.034 121.348L215.61 102.791C215.447 101.545 214.305 100.667 213.057 100.83Z" fill="#263238"/>
<path opacity="0.3" d="M213.057 100.83L184.596 104.536C183.348 104.699 182.469 105.84 182.632 107.085L185.055 125.643C185.218 126.888 186.361 127.766 187.608 127.604L216.07 123.897C217.317 123.735 218.196 122.594 218.034 121.348L215.61 102.791C215.447 101.545 214.305 100.667 213.057 100.83Z" fill="black"/>
<path d="M197.491 106.964C197.015 106.963 196.552 106.805 196.177 106.513C195.722 106.163 195.424 105.647 195.347 105.079L194.846 101.22C194.809 100.939 194.828 100.653 194.902 100.38C194.976 100.106 195.103 99.8493 195.276 99.6247C195.45 99.4001 195.665 99.2117 195.912 99.0705C196.158 98.9292 196.429 98.8378 196.711 98.8015L203.142 97.9619C203.711 97.8878 204.287 98.0423 204.742 98.3915C205.197 98.7408 205.495 99.2562 205.57 99.8245L206.076 103.683C206.148 104.251 205.992 104.824 205.643 105.278C205.293 105.732 204.779 106.03 204.211 106.107L197.775 106.941C197.68 106.954 197.586 106.962 197.491 106.964ZM203.426 99.1795H203.309L196.873 100.019C196.755 100.034 196.641 100.072 196.538 100.131C196.435 100.191 196.345 100.269 196.272 100.363C196.2 100.457 196.147 100.565 196.116 100.679C196.085 100.794 196.077 100.913 196.093 101.031L196.594 104.89C196.627 105.128 196.753 105.344 196.945 105.49C197.039 105.562 197.146 105.615 197.261 105.646C197.376 105.677 197.495 105.684 197.613 105.668L204.044 104.834C204.282 104.801 204.498 104.676 204.645 104.485C204.791 104.295 204.858 104.055 204.829 103.817L204.345 100.002C204.33 99.8845 204.291 99.7708 204.232 99.6677C204.173 99.5647 204.094 99.4743 204 99.4019C203.837 99.2702 203.635 99.1977 203.426 99.1962V99.1795Z" fill="#263238"/>
<path d="M215.768 100.477L187.306 104.184C186.059 104.346 185.18 105.487 185.342 106.733L187.766 125.291C187.929 126.536 189.071 127.414 190.319 127.252L218.78 123.545C220.028 123.383 220.907 122.242 220.744 120.996L218.32 102.438C218.158 101.193 217.015 100.315 215.768 100.477Z" fill="#263238"/>
<path d="M199.066 95.4819L197.25 99.0125L202.573 99.2572C202.958 98.4862 203.097 97.6166 202.974 96.7643C202.85 95.9121 202.47 95.1176 201.883 94.4867L199.066 95.4819Z" fill="#7F3E3B"/>
<path d="M199.283 101.749L202.457 101.315L202.573 99.2577L197.25 99.0131L197.334 100.164C197.35 100.399 197.414 100.628 197.523 100.837C197.631 101.045 197.781 101.23 197.964 101.379C198.147 101.527 198.358 101.637 198.585 101.7C198.812 101.764 199.049 101.78 199.283 101.749Z" fill="#7F3E3B"/>
<path d="M195.335 74.8102C195.251 75.2438 195.841 76.8507 196.276 77.4734C196.71 78.0961 203.893 78.6466 204.817 77.2343C205.741 75.8221 205.78 73.309 205.34 72.4694C204.9 71.6298 195.507 73.8705 195.335 74.8102Z" fill="#FF7229"/>
<path d="M90.4123 57.4566C89.5158 58.6298 88.5414 59.9142 87.6283 61.1763C86.7151 62.4384 85.8354 63.7228 84.9946 65.0238C83.3084 67.5204 81.8529 70.1649 80.6461 72.9246C80.5069 73.2526 80.3788 73.5806 80.2674 73.9087C80.208 74.0718 80.1524 74.233 80.1004 74.3924L80.0224 74.637L79.989 74.7538V74.7872C79.8871 75.2132 79.8663 75.6545 79.9278 76.0882C80.1199 77.4869 80.45 78.8632 80.9133 80.197C81.8654 83.0716 83.1405 86.035 84.3933 88.9096L81.5481 90.711C79.4135 88.0808 77.5656 85.231 76.0358 82.2098C75.1931 80.5789 74.5518 78.852 74.126 77.0668C73.8495 75.912 73.8041 74.7141 73.9923 73.5417L74.0369 73.2748L74.0814 73.0969L74.165 72.7522C74.2151 72.5242 74.2707 72.2963 74.3376 72.0739C74.4601 71.6235 74.5937 71.1898 74.7385 70.7562C75.903 67.4848 77.4228 64.3507 79.2708 61.4098C80.1616 59.9698 81.0748 58.5575 82.0547 57.1953C83.0347 55.8331 84.0035 54.5098 85.1338 53.1532L90.4123 57.4566Z" fill="#263238"/>
<path d="M83.6421 87.8807L86.5709 89.432L83.2301 93.374C83.2301 93.374 81.1254 91.9507 81.0029 89.7823L83.6421 87.8807Z" fill="#FFC3BD"/>
<path d="M90.5119 91.862L86.9039 94.7254L83.2012 93.3743L86.5698 89.4323L90.5119 91.862Z" fill="#FFC3BD"/>
<path d="M134.287 79.4301L137.75 81.2148L137.444 82.4603L134.66 85.2403C134.66 85.2403 132.655 83.6835 132.7 81.5151L134.287 79.4301Z" fill="#FFC3BD"/>
<path d="M134.788 79.9193L137.962 79.3243L140 80.1917L138.641 80.4197L137.75 81.2259L134.788 79.9193Z" fill="#FFC3BD"/>
<path d="M141.219 85.6512L137.778 86.3907C137.417 86.4671 137.041 86.4221 136.709 86.2628L134.643 85.262L137.427 82.482L139.27 81.926L141.575 84.567C141.647 84.6552 141.695 84.7599 141.716 84.8716C141.737 84.9833 141.729 85.0983 141.693 85.2062C141.658 85.3142 141.596 85.4114 141.513 85.4892C141.43 85.5669 141.329 85.6227 141.219 85.6512Z" fill="#FFC3BD"/>
<path d="M103.102 34.9165C103.179 35.2891 103.435 35.5504 103.658 35.4725C103.88 35.3947 104.036 35.0778 103.963 34.7053C103.891 34.3327 103.624 34.0714 103.407 34.1493C103.191 34.2271 103.007 34.544 103.102 34.9165Z" fill="#263238"/>
<path d="M103.403 35.5562C104.08 36.6063 104.899 37.5585 105.836 38.3862C105.279 39.1368 104.121 39.0812 104.121 39.0812L103.403 35.5562Z" fill="#FF5652"/>
<path d="M101.337 33.1208C101.281 33.1185 101.228 33.0969 101.186 33.0596C101.145 33.0171 101.122 32.9603 101.122 32.9012C101.122 32.8421 101.145 32.7852 101.186 32.7427C101.422 32.4767 101.717 32.2707 102.048 32.1421C102.38 32.0134 102.737 31.9658 103.09 32.0032C103.142 32.02 103.187 32.0548 103.215 32.1013C103.243 32.1478 103.254 32.2029 103.245 32.2567C103.237 32.3104 103.209 32.3593 103.167 32.3944C103.126 32.4295 103.073 32.4485 103.018 32.448C102.738 32.422 102.455 32.4629 102.194 32.5673C101.933 32.6717 101.7 32.8366 101.515 33.0485C101.493 33.0734 101.465 33.0929 101.434 33.1054C101.403 33.118 101.37 33.1232 101.337 33.1208Z" fill="#263238"/>
<path d="M92.9841 41.5048C93.63 44.7852 94.0142 49.3277 91.7202 51.5128C91.7202 51.5128 92.6167 54.8488 98.7191 54.8488C105.434 54.8488 101.949 51.9242 101.949 51.9242C99.1646 51.0624 99.1646 47.8876 99.8216 45.3412L92.9841 41.5048Z" fill="#FFC3BD"/>
<path d="M90.7569 53.7597C90.2001 52.8812 90.3838 50.218 91.052 49.7843C92.121 49.0837 96.5308 49.1616 102.383 50.8685C101.592 53.415 102.878 54.8494 102.878 54.8494L90.7569 53.7597Z" fill="#FF7229"/>
<path opacity="0.2" d="M85.8571 58.4801C83.7691 60.5373 83.1622 64.7518 83.3905 67.6263C83.9027 66.7534 84.4484 65.8805 85.0108 65.0298C85.8515 63.7232 86.748 62.4499 87.65 61.1711C87.9005 60.8209 88.1567 60.465 88.4183 60.1092C88.4685 59.8812 88.513 59.6533 88.5575 59.4309L85.8571 58.4801Z" fill="black"/>
<path d="M71.0687 205.086C71.4334 205.213 71.8337 205.191 72.1823 205.025C72.2495 204.964 72.2959 204.883 72.3149 204.795C72.3339 204.706 72.3245 204.613 72.2881 204.53C72.2674 204.462 72.2324 204.399 72.1854 204.345C72.1383 204.291 72.0803 204.248 72.0152 204.219C71.4083 203.93 70.0108 204.497 69.9551 204.519C69.9359 204.527 69.9194 204.54 69.9076 204.556C69.8957 204.573 69.889 204.593 69.8883 204.614C69.8874 204.635 69.8928 204.655 69.9037 204.673C69.9146 204.691 69.9305 204.705 69.9495 204.714C70.3083 204.877 70.6835 205.002 71.0687 205.086ZM71.8037 204.369L71.9261 204.408C71.9648 204.425 71.9993 204.45 72.0272 204.482C72.0551 204.514 72.0757 204.551 72.0876 204.591C72.1433 204.78 72.0876 204.842 72.0486 204.864C71.8092 205.07 70.935 204.864 70.2836 204.625C70.7701 204.418 71.2977 204.324 71.8259 204.352L71.8037 204.369Z" fill="#FF7229"/>
<path d="M69.9768 204.708H70.0269C70.5392 204.563 71.6249 203.791 71.6361 203.285C71.6379 203.204 71.6116 203.126 71.5618 203.063C71.512 203 71.4418 202.957 71.3633 202.94C71.2864 202.911 71.2041 202.9 71.1222 202.906C71.0404 202.913 70.9611 202.938 70.89 202.979C70.2942 203.285 69.9156 204.524 69.8989 204.575C69.8906 204.591 69.8862 204.609 69.8862 204.627C69.8862 204.646 69.8906 204.664 69.8989 204.68C69.9206 204.699 69.9483 204.708 69.9768 204.708ZM71.2463 203.118H71.2964C71.4245 203.162 71.4245 203.229 71.4245 203.257C71.4245 203.557 70.7007 204.158 70.1717 204.402C70.3137 203.911 70.5986 203.474 70.9902 203.146C71.0323 203.122 71.0787 203.108 71.1266 203.103C71.1744 203.098 71.2227 203.103 71.2686 203.118H71.2463Z" fill="#FF7229"/>
<path d="M104.225 205.82C104.782 205.82 105.339 205.742 105.545 205.481C105.593 205.413 105.618 205.332 105.618 205.25C105.618 205.167 105.593 205.087 105.545 205.019C105.469 204.894 105.347 204.805 105.205 204.769C104.459 204.569 102.889 205.458 102.822 205.497C102.803 205.508 102.787 205.524 102.778 205.544C102.769 205.564 102.767 205.587 102.772 205.608C102.775 205.63 102.785 205.65 102.8 205.666C102.815 205.682 102.834 205.693 102.856 205.697C103.308 205.777 103.766 205.818 104.225 205.82ZM104.938 204.952C105.007 204.944 105.076 204.944 105.144 204.952C105.187 204.962 105.228 204.98 105.263 205.005C105.299 205.031 105.328 205.064 105.35 205.103C105.428 205.236 105.4 205.297 105.35 205.336C105.144 205.625 104.008 205.631 103.173 205.514C103.72 205.215 104.319 205.025 104.938 204.952Z" fill="#FF7229"/>
<path d="M102.867 205.697H102.912C103.468 205.458 104.526 204.485 104.448 203.979C104.448 203.857 104.343 203.712 104.053 203.679C103.947 203.669 103.841 203.68 103.74 203.712C103.638 203.743 103.544 203.794 103.463 203.862C102.906 204.335 102.767 205.53 102.761 205.591C102.761 205.61 102.765 205.628 102.772 205.644C102.78 205.66 102.792 205.675 102.806 205.686C102.825 205.696 102.846 205.7 102.867 205.697ZM103.981 203.879H104.047C104.237 203.879 104.248 203.973 104.253 203.996C104.304 204.301 103.574 205.063 103.023 205.391C103.072 204.882 103.279 204.4 103.613 204.012C103.711 203.929 103.835 203.882 103.964 203.879H103.981Z" fill="#FF7229"/>
<path d="M97.9346 205.592H102.422L102.868 195.206H98.38L97.9346 205.592Z" fill="#FFC3BD"/>
<path d="M65.0493 203.673L69.3812 204.591L73.3122 194.655L68.9803 193.738L65.0493 203.673Z" fill="#FFC3BD"/>
<path d="M69.7826 204.024L64.8494 202.956C64.7631 202.938 64.6732 202.95 64.5943 202.989C64.5154 203.028 64.4522 203.093 64.4151 203.173L62.7002 206.882C62.6588 206.972 62.6385 207.071 62.6408 207.171C62.6431 207.271 62.6679 207.369 62.7134 207.457C62.759 207.546 62.824 207.623 62.9036 207.684C62.9833 207.744 63.0755 207.785 63.1734 207.805C64.9051 208.144 65.7625 208.227 67.9285 208.694C69.2648 208.983 72.2771 209.717 74.12 210.112C75.963 210.507 76.5922 208.744 75.874 208.416C72.6557 206.948 71.3082 205.636 70.4341 204.446C70.2769 204.23 70.0447 204.079 69.7826 204.024Z" fill="#263238"/>
<path d="M102.394 205.086H97.4888C97.3998 205.087 97.3138 205.118 97.2443 205.173C97.1747 205.229 97.1256 205.305 97.1046 205.392L96.2193 209.378C96.1975 209.475 96.1978 209.575 96.2201 209.671C96.2425 209.767 96.2864 209.857 96.3485 209.934C96.4106 210.011 96.4893 210.073 96.5788 210.116C96.6683 210.158 96.7662 210.18 96.8652 210.179C98.6358 210.146 101.191 210.045 103.413 210.045C106.013 210.045 106.938 210.184 109.983 210.184C111.826 210.184 112.339 208.327 111.57 208.155C108.057 207.388 106.509 207.304 103.474 205.436C103.153 205.223 102.779 205.102 102.394 205.086Z" fill="#263238"/>
<path opacity="0.2" d="M102.868 195.212L102.64 200.56H98.1465L98.3748 195.212H102.868Z" fill="black"/>
<path opacity="0.2" d="M68.9808 193.738L73.3127 194.655L71.286 199.776L66.9541 198.864L68.9808 193.738Z" fill="black"/>
<path d="M101.147 91.5231C101.147 91.5231 96.047 125.795 93.2519 138.633C90.1895 152.694 73.7641 199.237 73.7641 199.237L65.7017 197.469C65.7017 197.469 77.1939 159.561 79.7607 139.906C81.7374 124.811 85.6294 91.5342 85.6294 91.5342L101.147 91.5231Z" fill="#263238"/>
<path opacity="0.1" d="M101.147 91.5231C101.147 91.5231 96.047 125.795 93.2519 138.633C90.1895 152.694 73.7641 199.237 73.7641 199.237L65.7017 197.469C65.7017 197.469 77.1939 159.561 79.7607 139.906C81.7374 124.811 85.6294 91.5342 85.6294 91.5342L101.147 91.5231Z" fill="white"/>
<path d="M75.6842 196.529C75.7176 196.529 74.1864 199.431 74.1864 199.431L65.144 197.474L65.9069 194.761L75.6842 196.529Z" fill="#263238"/>
<path opacity="0.3" d="M97.923 103.732C92.0321 104.889 92.6557 126.834 93.3629 138.121C95.0333 130.142 97.55 114.769 99.2538 103.894C98.8407 103.693 98.3722 103.636 97.923 103.732Z" fill="black"/>
<path d="M109.688 91.5231C109.688 91.5231 110.306 125.05 109.816 138.727C109.309 152.95 104.337 199.526 104.337 199.526H96.7031C96.7031 199.526 96.4247 153.784 96.0851 139.812C95.7176 124.583 93.8579 91.5231 93.8579 91.5231H109.688Z" fill="#263238"/>
<path opacity="0.1" d="M109.688 91.5231C109.688 91.5231 110.306 125.05 109.816 138.727C109.309 152.95 104.337 199.526 104.337 199.526H96.7031C96.7031 199.526 96.4247 153.784 96.0851 139.812C95.7176 124.583 93.8579 91.5231 93.8579 91.5231H109.688Z" fill="white"/>
<path d="M105.791 196.501C105.825 196.501 105.357 199.654 105.357 199.654H96.0919L95.8413 196.841L105.791 196.501Z" fill="#263238"/>
<path d="M110.278 57.0286C111.197 61.8769 112.9 75.4211 110.239 95.1257L84.2477 94.7254C84.0974 91.2837 86.8368 72.6021 84.3034 56.0167C84.2328 55.5462 84.2567 55.0664 84.3738 54.6053C84.491 54.1442 84.6989 53.7111 84.9856 53.3311C85.2723 52.9512 85.6319 52.6321 86.0434 52.3925C86.4549 52.1529 86.9102 51.9976 87.3825 51.9356C88.6965 51.7577 90.2221 51.5909 91.7255 51.5186C95.1247 51.3239 98.5323 51.3239 101.932 51.5186C103.045 51.6243 104.159 51.7855 105.15 51.9579C106.419 52.1845 107.588 52.7908 108.504 53.6964C109.42 54.6019 110.038 55.764 110.278 57.0286Z" fill="#263238"/>
<path opacity="0.2" d="M110.991 61.844L106.615 62.9282C106.281 67.0092 108.976 71.6296 111.671 75.1602C111.698 70.7122 111.471 66.2662 110.991 61.844Z" fill="black"/>
<path d="M109.193 54.8499C109.934 56.1787 110.736 57.6299 111.56 58.9809C112.384 60.332 113.23 61.7165 114.082 63.0509C115.724 65.6732 117.586 68.1508 119.65 70.4568C119.906 70.7181 120.157 70.985 120.413 71.2296L120.602 71.4131L120.752 71.5465C120.836 71.6355 120.981 71.7356 121.086 71.8301C121.599 72.2304 122.2 72.653 122.863 73.0589C124.171 73.8651 125.574 74.6546 127 75.4163C129.85 76.9453 132.801 78.4465 135.713 79.9644L134.561 83.128C131.266 82.3402 128.021 81.3542 124.845 80.1757C123.252 79.5807 121.654 78.9358 120.056 78.1518C119.206 77.7476 118.383 77.2908 117.59 76.7841C117.373 76.6284 117.167 76.5061 116.933 76.3226L116.599 76.0668L116.326 75.8389C115.953 75.5386 115.613 75.2273 115.268 74.9159C113.953 73.6909 112.725 72.3756 111.593 70.9794C110.479 69.6283 109.438 68.1994 108.453 66.815C107.467 65.4305 106.532 63.9627 105.669 62.4893C104.806 61.0159 103.948 59.5703 103.146 57.969L109.193 54.8499Z" fill="#263238"/>
<path d="M90.4728 36.6515C91.6866 41.1774 92.1431 43.8795 94.9661 45.7699C99.1755 48.6055 104.432 45.3529 104.576 40.5547C104.721 36.2401 102.711 29.5625 97.8503 28.6507C96.7786 28.443 95.6715 28.5126 94.6344 28.8529C93.5973 29.1932 92.6646 29.7929 91.9251 30.5948C91.1856 31.3968 90.664 32.3743 90.4098 33.4345C90.1555 34.4946 90.1772 35.6021 90.4728 36.6515Z" fill="#FFC3BD"/>
<path d="M99.8882 36.7064C100.968 35.1218 101.38 32.6865 100.623 31.5134C101.33 31.808 106.431 32.1583 104.432 28.5332C102.433 24.9081 98.4239 23.9073 94.9328 24.9081L96.631 25.3974C96.631 25.3974 91.8592 25.0526 89.5374 26.982C90.2445 27.0209 90.857 26.982 90.857 26.982C90.857 26.982 85.7456 29.3894 87.9728 31.2187C84.3815 33.9486 86.8147 37.7294 92.7278 43.3673C93.7579 44.2958 96.6755 43.9566 97.3214 43.4006C96.9094 40.9431 99.2813 37.6071 99.8882 36.7064Z" fill="#263238"/>
<path d="M100.491 33.621C101.549 34.3938 102.857 36.6679 103.464 37.8021C104.071 38.9363 104.712 38.7918 105.018 39.2421C105.324 39.6925 106.577 47.3097 105.235 48.5273C103.893 49.745 99.8563 47.8212 99.3274 46.4201C98.7984 45.019 99.7673 41.5829 100.029 40.7989C100.304 39.4449 100.224 38.0427 99.7951 36.729C99.3274 35.4002 100.491 33.621 100.491 33.621Z" fill="#263238"/>
<path d="M98.1067 36.9184C98.2509 37.4729 98.5051 37.9928 98.8542 38.4474C99.2033 38.902 99.6402 39.282 100.139 39.5649C101.37 40.1209 101.52 38.692 101.28 37.3409C101.063 36.1122 100.724 35.1169 99.727 34.6388C98.5522 34.0327 97.7003 35.5729 98.1067 36.9184Z" fill="#FFC3BD"/>
</svg>
