<svg width="255" height="190" viewBox="0 0 255 190" fill="none" xmlns="http://www.w3.org/2000/svg">
<path d="M255 166.735H0V166.863H255V166.735Z" fill="#EBEBEB"/>
<path d="M229.449 174.93H212.558V175.057H229.449V174.93Z" fill="#EBEBEB"/>
<path d="M168.922 176.315H164.49V176.442H168.922V176.315Z" fill="#EBEBEB"/>
<path d="M212.048 170.203H202.261V170.331H212.048V170.203Z" fill="#EBEBEB"/>
<path d="M48.7818 171.059H26.7549V171.186H48.7818V171.059Z" fill="#EBEBEB"/>
<path d="M56.554 171.059H53.3257V171.186H56.554V171.059Z" fill="#EBEBEB"/>
<path d="M114.827 173.208H67.0498V173.335H114.827V173.208Z" fill="#EBEBEB"/>
<path d="M120.87 144.022H22.3938C21.6224 144.021 20.883 143.714 20.3379 143.168C19.7929 142.623 19.4868 141.884 19.4868 141.114V2.88248C19.4935 2.11654 19.8026 1.38419 20.3469 0.844483C20.8912 0.304778 21.6268 0.00131208 22.3938 0H120.87C121.642 0 122.383 0.306371 122.929 0.851716C123.475 1.39706 123.782 2.13671 123.782 2.90794V141.114C123.782 141.885 123.475 142.625 122.929 143.17C122.383 143.716 121.642 144.022 120.87 144.022ZM22.3938 0.101855C21.6562 0.103204 20.9492 0.396756 20.4281 0.918077C19.907 1.4394 19.6143 2.14589 19.6143 2.88248V141.114C19.6143 141.851 19.907 142.557 20.4281 143.078C20.9492 143.6 21.6562 143.893 22.3938 143.895H120.87C121.608 143.893 122.315 143.6 122.837 143.079C123.359 142.558 123.653 141.851 123.654 141.114V2.88248C123.653 2.14542 123.359 1.43894 122.837 0.917766C122.315 0.39659 121.608 0.103201 120.87 0.101855H22.3938Z" fill="#EBEBEB"/>
<path d="M231.189 144.022H132.708C131.936 144.021 131.196 143.714 130.65 143.169C130.104 142.624 129.797 141.885 129.795 141.114V2.88248C129.803 2.11608 130.114 1.38373 130.659 0.844165C131.204 0.3046 131.94 0.00129777 132.708 0H231.189C231.955 0.0026505 232.689 0.306708 233.232 0.846271C233.775 1.38583 234.084 2.11742 234.09 2.88248V141.114C234.09 141.883 233.785 142.622 233.241 143.167C232.697 143.712 231.959 144.019 231.189 144.022ZM132.708 0.101855C131.969 0.103201 131.262 0.39659 130.74 0.917766C130.218 1.43894 129.924 2.14542 129.923 2.88248V141.114C129.924 141.851 130.218 142.558 130.74 143.079C131.262 143.6 131.969 143.893 132.708 143.895H231.189C231.927 143.893 232.634 143.6 233.156 143.079C233.678 142.558 233.972 141.851 233.973 141.114V2.88248C233.972 2.14542 233.678 1.43894 233.156 0.917766C232.634 0.39659 231.927 0.103201 231.189 0.101855H132.708Z" fill="#EBEBEB"/>
<path d="M117.076 83.281V19.3369L34.6704 19.3369V83.281H117.076Z" fill="#E0E0E0"/>
<path d="M35.8121 82.1403L115.933 82.1403L115.933 20.4777L35.8121 20.4777L35.8121 82.1403Z" fill="#EBEBEB"/>
<path d="M74.7803 31.6156H74.271V40.2121H74.7803V31.6156Z" fill="#E0E0E0"/>
<path d="M55.2029 67.8961H54.6929V39.9625H91.5455V56.0962H91.0355V40.4718H55.2029V67.8961Z" fill="#E0E0E0"/>
<path d="M102.122 64.8405H101.612V56.3509H82.1457V64.5451H81.6357V55.8417H102.122V64.8405Z" fill="#E0E0E0"/>
<path d="M83.7163 28.458H65.3359V34.7781H83.7163V28.458Z" fill="#F5F5F5"/>
<path d="M100.322 43.6189H82.8032V50.4839H100.322V43.6189Z" fill="#F5F5F5"/>
<path d="M87.9035 61.0056H75.8726V68.0845H87.9035V61.0056Z" fill="#F5F5F5"/>
<path d="M108.314 62.1515H95.4263V67.5294H108.314V62.1515Z" fill="#F5F5F5"/>
<path d="M66.3965 45.0704H46.4912V54.2424H66.3965V45.0704Z" fill="#F5F5F5"/>
<path d="M61.302 64.545H48.5928V71.2471H61.302V64.545Z" fill="#F5F5F5"/>
<path d="M77.2727 40.437L74.5283 37.6965L71.784 40.437L74.5283 43.1774L77.2727 40.437Z" fill="#F5F5F5"/>
<path d="M94.0398 56.0916L91.2954 53.3512L88.5511 56.0916L91.2954 58.8321L94.0398 56.0916Z" fill="#F5F5F5"/>
<path d="M201.43 30.1082H150.639V32.7156H201.43V30.1082Z" fill="#E0E0E0"/>
<path d="M155.214 20.5034H152.975V30.1083H155.214V20.5034Z" fill="#EBEBEB"/>
<path d="M166.036 20.5034H163.797V30.1083H166.036V20.5034Z" fill="#EBEBEB"/>
<path d="M178.319 20.2529L176.112 20.6327L177.746 30.098L179.953 29.7182L178.319 20.2529Z" fill="#EBEBEB"/>
<path d="M157.988 21.7661H155.749V30.108H157.988V21.7661Z" fill="#EBEBEB"/>
<path d="M163.129 21.7661H160.89V30.108H163.129V21.7661Z" fill="#EBEBEB"/>
<path d="M176.114 21.7661H173.875V30.108H176.114V21.7661Z" fill="#EBEBEB"/>
<path d="M168.973 21.4667L166.787 21.9518L168.599 30.095L170.785 29.6099L168.973 21.4667Z" fill="#EBEBEB"/>
<path d="M159.919 20.0244H158.804V30.108H159.919V20.0244Z" fill="#EBEBEB"/>
<path d="M173.225 20.0244H172.109V30.108H173.225V20.0244Z" fill="#EBEBEB"/>
<path d="M196.559 22.5046H185.655V30.0215H196.559V22.5046Z" fill="#EBEBEB"/>
<path d="M150.638 52.1698L201.429 52.1698V49.5623L150.638 49.5623V52.1698Z" fill="#E0E0E0"/>
<path d="M196.855 49.5621H199.094V39.9573H196.855V49.5621Z" fill="#EBEBEB"/>
<path d="M186.033 49.5621H188.272V39.9573H186.033V49.5621Z" fill="#EBEBEB"/>
<path d="M172.12 49.1791L174.326 49.5588L175.96 40.0936L173.754 39.7138L172.12 49.1791Z" fill="#EBEBEB"/>
<path d="M194.08 49.5621H196.319V41.2203H194.08V49.5621Z" fill="#EBEBEB"/>
<path d="M188.934 49.5621H191.173V41.2203H188.934V49.5621Z" fill="#EBEBEB"/>
<path d="M175.955 49.5621H178.194V41.2203H175.955V49.5621Z" fill="#EBEBEB"/>
<path d="M181.291 49.0673L183.477 49.5524L185.289 41.4092L183.103 40.9242L181.291 49.0673Z" fill="#EBEBEB"/>
<path d="M192.149 49.5621H193.265V39.4786H192.149V49.5621Z" fill="#EBEBEB"/>
<path d="M178.843 49.5621H179.958V39.4786H178.843V49.5621Z" fill="#EBEBEB"/>
<path d="M155.514 49.4757H166.418V41.9589H155.514V49.4757Z" fill="#EBEBEB"/>
<path d="M190.307 64.9474H161.818V166.364H190.307V64.9474Z" fill="#F5F5F5"/>
<path d="M187.849 67.84H164.276V164.062H187.849V67.84Z" fill="#EBEBEB"/>
<path d="M183.554 70.6715H168.565V71.6646H183.554V70.6715Z" fill="#E0E0E0"/>
<path d="M183.554 74.9547H168.565V75.9478H183.554V74.9547Z" fill="#E0E0E0"/>
<path d="M183.554 79.2427H168.565V80.2358H183.554V79.2427Z" fill="#E0E0E0"/>
<path d="M183.554 83.5306H168.565V84.5237H183.554V83.5306Z" fill="#E0E0E0"/>
<path d="M183.554 87.8187H168.565V88.8118H183.554V87.8187Z" fill="#E0E0E0"/>
<path d="M183.554 92.1016H168.565V93.0946H183.554V92.1016Z" fill="#E0E0E0"/>
<path d="M183.554 96.3899H168.565V97.383H183.554V96.3899Z" fill="#E0E0E0"/>
<path d="M183.554 131.254H168.565V132.247H183.554V131.254Z" fill="#E0E0E0"/>
<path d="M183.554 135.542H168.565V136.536H183.554V135.542Z" fill="#E0E0E0"/>
<path d="M183.554 139.831H168.565V140.824H183.554V139.831Z" fill="#E0E0E0"/>
<path d="M183.554 144.114H168.565V145.107H183.554V144.114Z" fill="#E0E0E0"/>
<path d="M183.554 148.402H168.565V149.395H183.554V148.402Z" fill="#E0E0E0"/>
<path d="M183.554 152.69H168.565V153.683H183.554V152.69Z" fill="#E0E0E0"/>
<path d="M183.554 156.978H168.565V157.971H183.554V156.978Z" fill="#E0E0E0"/>
<path d="M184.294 111.067C184.294 111.394 184.196 111.714 184.014 111.987C183.832 112.259 183.573 112.471 183.27 112.596C182.967 112.721 182.634 112.754 182.313 112.69C181.991 112.626 181.696 112.469 181.464 112.237C181.232 112.006 181.074 111.711 181.01 111.39C180.946 111.069 180.979 110.736 181.105 110.434C181.23 110.131 181.443 109.873 181.715 109.691C181.988 109.509 182.308 109.412 182.636 109.412C182.854 109.411 183.07 109.454 183.271 109.537C183.473 109.619 183.655 109.741 183.81 109.895C183.964 110.049 184.086 110.232 184.169 110.433C184.252 110.634 184.294 110.849 184.294 111.067Z" fill="#E0E0E0"/>
<path d="M160.982 64.9474H132.493V166.364H160.982V64.9474Z" fill="#F5F5F5"/>
<path d="M158.523 67.84H134.951V164.062H158.523V67.84Z" fill="#EBEBEB"/>
<path d="M154.229 70.6715H139.24V71.6646H154.229V70.6715Z" fill="#E0E0E0"/>
<path d="M154.229 74.9547H139.24V75.9478H154.229V74.9547Z" fill="#E0E0E0"/>
<path d="M154.229 79.2427H139.24V80.2358H154.229V79.2427Z" fill="#E0E0E0"/>
<path d="M154.229 83.5306H139.24V84.5237H154.229V83.5306Z" fill="#E0E0E0"/>
<path d="M154.229 87.8187H139.24V88.8118H154.229V87.8187Z" fill="#E0E0E0"/>
<path d="M154.229 92.1016H139.24V93.0946H154.229V92.1016Z" fill="#E0E0E0"/>
<path d="M154.229 96.3899H139.24V97.383H154.229V96.3899Z" fill="#E0E0E0"/>
<path d="M154.229 131.254H139.24V132.247H154.229V131.254Z" fill="#E0E0E0"/>
<path d="M154.229 135.542H139.24V136.536H154.229V135.542Z" fill="#E0E0E0"/>
<path d="M154.229 139.831H139.24V140.824H154.229V139.831Z" fill="#E0E0E0"/>
<path d="M154.229 144.114H139.24V145.107H154.229V144.114Z" fill="#E0E0E0"/>
<path d="M154.229 148.402H139.24V149.395H154.229V148.402Z" fill="#E0E0E0"/>
<path d="M154.229 152.69H139.24V153.683H154.229V152.69Z" fill="#E0E0E0"/>
<path d="M154.229 156.978H139.24V157.971H154.229V156.978Z" fill="#E0E0E0"/>
<path d="M154.968 111.067C154.968 111.394 154.871 111.714 154.689 111.987C154.507 112.259 154.248 112.471 153.945 112.596C153.642 112.721 153.309 112.754 152.987 112.69C152.666 112.626 152.371 112.469 152.139 112.237C151.907 112.006 151.749 111.711 151.685 111.39C151.621 111.069 151.654 110.736 151.779 110.434C151.905 110.131 152.117 109.873 152.39 109.691C152.663 109.509 152.983 109.412 153.311 109.412C153.529 109.411 153.745 109.454 153.946 109.537C154.147 109.619 154.33 109.741 154.484 109.895C154.638 110.049 154.76 110.232 154.844 110.433C154.927 110.634 154.969 110.849 154.968 111.067Z" fill="#E0E0E0"/>
<path d="M219.632 64.9474H191.144V166.364H219.632V64.9474Z" fill="#F5F5F5"/>
<path d="M217.173 67.84H193.601V164.062H217.173V67.84Z" fill="#EBEBEB"/>
<path d="M212.879 70.6715H197.89V71.6646H212.879V70.6715Z" fill="#E0E0E0"/>
<path d="M212.879 74.9547H197.89V75.9478H212.879V74.9547Z" fill="#E0E0E0"/>
<path d="M212.879 79.2427H197.89V80.2358H212.879V79.2427Z" fill="#E0E0E0"/>
<path d="M212.879 83.5306H197.89V84.5237H212.879V83.5306Z" fill="#E0E0E0"/>
<path d="M212.879 87.8187H197.89V88.8118H212.879V87.8187Z" fill="#E0E0E0"/>
<path d="M212.879 92.1016H197.89V93.0946H212.879V92.1016Z" fill="#E0E0E0"/>
<path d="M212.879 96.3899H197.89V97.383H212.879V96.3899Z" fill="#E0E0E0"/>
<path d="M212.879 131.254H197.89V132.247H212.879V131.254Z" fill="#E0E0E0"/>
<path d="M212.879 135.542H197.89V136.536H212.879V135.542Z" fill="#E0E0E0"/>
<path d="M212.879 139.831H197.89V140.824H212.879V139.831Z" fill="#E0E0E0"/>
<path d="M212.879 144.114H197.89V145.107H212.879V144.114Z" fill="#E0E0E0"/>
<path d="M212.879 148.402H197.89V149.395H212.879V148.402Z" fill="#E0E0E0"/>
<path d="M212.879 152.69H197.89V153.683H212.879V152.69Z" fill="#E0E0E0"/>
<path d="M212.879 156.978H197.89V157.971H212.879V156.978Z" fill="#E0E0E0"/>
<path d="M213.618 111.067C213.618 111.394 213.521 111.714 213.339 111.987C213.157 112.259 212.898 112.471 212.595 112.596C212.292 112.721 211.959 112.754 211.637 112.69C211.316 112.626 211.02 112.469 210.789 112.237C210.557 112.006 210.399 111.711 210.335 111.39C210.271 111.069 210.304 110.736 210.429 110.434C210.555 110.131 210.767 109.873 211.04 109.691C211.312 109.509 211.633 109.412 211.961 109.412C212.179 109.411 212.394 109.454 212.596 109.537C212.797 109.619 212.98 109.741 213.134 109.895C213.288 110.049 213.41 110.232 213.493 110.433C213.576 110.634 213.619 110.849 213.618 111.067Z" fill="#E0E0E0"/>
<path d="M127.5 189.734C182.112 189.734 226.384 187.153 226.384 183.969C226.384 180.785 182.112 178.204 127.5 178.204C72.888 178.204 28.6162 180.785 28.6162 183.969C28.6162 187.153 72.888 189.734 127.5 189.734Z" fill="#F5F5F5"/>
<path d="M47.8934 177.089C47.8934 177.089 45.2057 164.413 50.0966 157.549C54.9875 150.684 45.68 157.472 44.609 163.899C44.609 163.899 43.0025 152.405 47.7455 144.323C52.4885 136.241 43.6145 142.876 42.8597 151.203C42.8597 151.203 41.4062 140.956 43.589 135.191C45.7718 129.427 41.9723 133.154 40.529 136.75C39.0857 140.345 40.9829 149.303 40.9829 149.303C40.9829 149.303 37.1783 132.767 33.5777 134.081C29.9771 135.395 38.9582 146.233 40.2077 151.865C40.2077 151.865 35.9594 144.282 32.7362 145.861C29.513 147.439 37.7291 148.224 41.4878 159.535L42.8087 164.836C42.8087 164.836 38.8919 157.365 36.3368 159.713C33.7817 162.061 43.9103 166.15 46.2665 177.492L47.8934 177.089Z" fill="#FF7229"/>
<path d="M47.368 177.817C47.368 177.817 46.8019 161.837 38.8969 155.073C30.9919 148.31 44.1652 153.663 47.368 161.042C47.368 161.042 45.8635 146.782 37.7647 138.527C29.6659 130.272 42.2833 135.568 45.6748 145.321C45.6748 145.321 44.3539 132.589 40.024 126.361C35.6941 120.132 41.3449 123.417 44.1652 127.308C46.9855 131.199 47.368 142.479 47.368 142.479C47.368 142.479 46.9906 121.543 51.6979 122.047C56.4052 122.551 48.8725 138.201 49.0612 145.321C49.0612 145.321 51.8866 134.972 56.2012 135.904C60.5158 136.836 50.9278 140.223 49.8007 154.885V161.628C49.8007 161.628 52.2487 151.498 56.0125 153.566C59.7763 155.634 48.8725 163.532 49.4233 177.817H47.368Z" fill="#FF7229"/>
<path opacity="0.2" d="M47.368 177.817C47.368 177.817 46.8019 161.837 38.8969 155.073C30.9919 148.31 44.1652 153.663 47.368 161.042C47.368 161.042 45.8635 146.782 37.7647 138.527C29.6659 130.272 42.2833 135.568 45.6748 145.321C45.6748 145.321 44.3539 132.589 40.024 126.361C35.6941 120.132 41.3449 123.417 44.1652 127.308C46.9855 131.199 47.368 142.479 47.368 142.479C47.368 142.479 46.9906 121.543 51.6979 122.047C56.4052 122.551 48.8725 138.201 49.0612 145.321C49.0612 145.321 51.8866 134.972 56.2012 135.904C60.5158 136.836 50.9278 140.223 49.8007 154.885V161.628C49.8007 161.628 52.2487 151.498 56.0125 153.566C59.7763 155.634 48.8725 163.532 49.4233 177.817H47.368Z" fill="white"/>
<path d="M36.6328 176.886H59.8786V179.391C59.8786 180.877 59.2876 182.302 58.2355 183.352C57.1834 184.403 55.7565 184.993 54.2686 184.993H42.2428C40.7549 184.993 39.328 184.403 38.2759 183.352C37.2239 182.302 36.6328 180.877 36.6328 179.391V176.886Z" fill="#263238"/>
<path d="M33.5879 175.546V177.318C33.5892 177.887 33.8166 178.433 34.2201 178.835C34.6235 179.237 35.1702 179.462 35.7401 179.462H60.776C61.3454 179.462 61.8916 179.237 62.2942 178.834C62.6969 178.432 62.9231 177.887 62.9231 177.318V175.546H33.5879Z" fill="#263238"/>
<path opacity="0.2" d="M33.5879 175.546V177.318C33.5892 177.887 33.8166 178.433 34.2201 178.835C34.6235 179.237 35.1702 179.462 35.7401 179.462H60.776C61.3454 179.462 61.8916 179.237 62.2942 178.834C62.6969 178.432 62.9231 177.887 62.9231 177.318V175.546H33.5879Z" fill="white"/>
<path d="M213.899 175.037C213.984 174.863 214.025 174.672 214.02 174.479C214.015 174.286 213.963 174.097 213.869 173.928C213.775 173.76 213.641 173.616 213.479 173.511C213.317 173.405 213.133 173.34 212.94 173.32C213.106 172.828 213.117 172.297 212.973 171.798C212.828 171.299 212.533 170.857 212.129 170.53C212.032 170.44 211.909 170.384 211.777 170.372C211.637 170.387 211.505 170.445 211.4 170.54L209.156 172.144C208.976 172.255 208.824 172.407 208.712 172.587C208.253 173.473 209.906 174.624 209.222 175.337C209.028 175.546 208.712 175.592 208.467 175.745C207.957 176.076 207.871 176.809 207.621 177.384C207.371 177.96 206.509 178.403 206.178 177.894C206.422 177.344 205.668 176.875 205.076 176.794C204.484 176.712 203.847 176.692 203.515 176.127C202.664 176.875 200.751 174.792 200.792 173.957C200.455 174.018 200.146 174.182 199.908 174.427C199.669 174.671 199.513 174.984 199.461 175.322C199.363 176.013 199.339 176.713 199.389 177.41C199.389 178.77 198.93 180.099 198.951 181.454C198.951 182.513 199.379 183.684 200.348 184.107C200.828 184.281 201.339 184.35 201.848 184.311L212.874 184.239C213.139 184.259 213.405 184.216 213.649 184.112C214.159 183.852 214.256 183.2 214.302 182.64C214.496 180.247 214.693 177.855 214.893 175.465L213.899 175.037Z" fill="#FF7229"/>
<path opacity="0.3" d="M213.899 175.037C213.984 174.863 214.025 174.672 214.02 174.479C214.015 174.286 213.963 174.097 213.869 173.928C213.775 173.76 213.641 173.616 213.479 173.511C213.317 173.405 213.133 173.34 212.94 173.32C213.106 172.828 213.117 172.297 212.973 171.798C212.828 171.299 212.533 170.857 212.129 170.53C212.032 170.44 211.909 170.384 211.777 170.372C211.637 170.387 211.505 170.445 211.4 170.54L209.156 172.144C208.976 172.255 208.824 172.407 208.712 172.587C208.253 173.473 209.906 174.624 209.222 175.337C209.028 175.546 208.712 175.592 208.467 175.745C207.957 176.076 207.871 176.809 207.621 177.384C207.371 177.96 206.509 178.403 206.178 177.894C206.422 177.344 205.668 176.875 205.076 176.794C204.484 176.712 203.847 176.692 203.515 176.127C202.664 176.875 200.751 174.792 200.792 173.957C200.455 174.018 200.146 174.182 199.908 174.427C199.669 174.671 199.513 174.984 199.461 175.322C199.363 176.013 199.339 176.713 199.389 177.41C199.389 178.77 198.93 180.099 198.951 181.454C198.951 182.513 199.379 183.684 200.348 184.107C200.828 184.281 201.339 184.35 201.848 184.311L212.874 184.239C213.139 184.259 213.405 184.216 213.649 184.112C214.159 183.852 214.256 183.2 214.302 182.64C214.496 180.247 214.693 177.855 214.893 175.465L213.899 175.037Z" fill="white"/>
<path d="M214.541 163.4H197.436L197.573 165.126L197.675 166.359L197.935 169.567L198.083 171.406L198.282 173.86L198.364 174.909L198.394 175.225L198.496 176.463L198.629 178.153L198.716 179.208L198.802 180.277L198.904 181.509L198.981 182.447L199.068 183.501L199.103 183.954H214.806L214.842 183.501L214.923 182.452L215 181.509L215.102 180.272L215.189 179.208L215.275 178.153L215.413 176.457L215.51 175.225L215.535 174.909L215.622 173.86L215.821 171.406L215.969 169.567L216.229 166.359L216.326 165.126L216.469 163.4H214.541ZM215.561 164.53L215.229 164.199H215.592L215.561 164.53ZM215.479 165.579L215.444 165.997L213.914 167.525L212.159 165.773L213.735 164.199H214.102L215.479 165.579ZM215.036 171.044L213.914 172.164L212.159 170.412L213.919 168.661L215.133 169.873L215.036 171.044ZM198.756 169.873L199.97 168.661L201.725 170.412L199.97 172.164L198.848 171.044L198.756 169.873ZM213.348 168.09L211.588 169.847L209.834 168.09L211.588 166.338L213.348 168.09ZM210.583 164.199H212.593L211.573 165.218L210.583 164.199ZM211.017 170.412L209.268 172.164L207.508 170.412L209.268 168.661L211.017 170.412ZM205.188 172.73L206.942 170.983L208.696 172.73L206.942 174.487L205.188 172.73ZM206.371 175.052L204.616 176.809L202.862 175.057L204.621 173.3L206.371 175.052ZM209.268 173.3L211.017 175.057L209.268 176.809L207.508 175.052L209.268 173.3ZM206.942 169.847L205.188 168.09L206.942 166.338L208.696 168.09L206.942 169.847ZM206.371 170.412L204.621 172.164L202.862 170.412L204.621 168.661L206.371 170.412ZM202.291 169.847L200.536 168.09L202.291 166.338L204.05 168.09L202.291 169.847ZM202.291 170.983L204.05 172.73L202.291 174.487L200.536 172.73L202.291 170.983ZM204.05 177.374L202.291 179.126L200.536 177.374L202.291 175.622L204.05 177.374ZM204.616 177.945L206.371 179.696L204.621 181.453L202.862 179.696L204.616 177.945ZM205.188 177.374L206.942 175.622L208.696 177.374L206.942 179.126L205.188 177.374ZM209.268 177.945L211.017 179.696L209.268 181.453L207.508 179.696L209.268 177.945ZM211.598 180.282L213.358 182.039L212.22 183.175H210.981L209.844 182.039L211.598 180.282ZM209.844 177.395L211.598 175.643L213.358 177.395L211.598 179.146L209.844 177.395ZM209.844 172.75L211.598 171.003L213.358 172.75L211.598 174.507L209.844 172.75ZM211.027 165.793L209.278 167.55L207.518 165.798L209.089 164.225H209.461L211.027 165.793ZM206.947 165.228L205.927 164.21H207.931L206.947 165.228ZM206.376 165.793L204.632 167.55L202.872 165.798L204.443 164.225H204.815L206.376 165.793ZM203.316 164.22L202.296 165.238L201.276 164.22H203.316ZM200.174 164.22L201.745 165.793L199.98 167.55L198.45 166.023L198.42 165.605L199.792 164.225L200.174 164.22ZM198.644 164.22L198.318 164.546L198.292 164.22H198.644ZM198.537 167.275L199.394 168.131L198.665 168.864L198.537 167.275ZM199.017 173.152L198.945 172.322L199.394 172.77L199.017 173.152ZM199.098 174.212L199.965 173.341L201.72 175.098L199.965 176.85L199.256 176.142L199.098 174.212ZM199.358 177.456V177.379L199.394 177.415L199.358 177.456ZM199.664 181.189L199.445 178.5L199.955 177.99L201.709 179.742L199.955 181.494L199.654 181.194L199.664 181.189ZM199.827 183.195L199.792 182.793L199.965 182.625L200.531 183.195H199.827ZM200.531 182.059L202.286 180.302L204.045 182.059L202.908 183.195H201.669L200.531 182.059ZM204.045 183.195L204.616 182.625L205.182 183.195H204.045ZM206.32 183.195L205.182 182.059L206.937 180.302L208.691 182.059L207.569 183.154L206.32 183.195ZM208.691 183.195L209.262 182.625L209.834 183.195H208.691ZM214.046 183.195H213.337L213.909 182.625L214.077 182.793L214.046 183.195ZM214.209 181.189L213.909 181.489L212.159 179.696L213.919 177.945L214.429 178.454L214.209 181.189ZM214.521 177.374V177.456L214.485 177.415L214.531 177.374H214.521ZM214.617 176.142L213.909 176.85L212.159 175.057L213.919 173.3L214.786 174.171L214.617 176.142ZM214.862 173.157L214.475 172.77L214.929 172.322L214.862 173.157ZM215.342 167.27L215.209 168.869L214.475 168.131L215.342 167.27Z" fill="#FF7229"/>
<g opacity="0.6">
<path d="M214.541 163.4H197.436L197.573 165.126L197.675 166.359L197.935 169.567L198.083 171.406L198.282 173.86L198.364 174.909L198.394 175.225L198.496 176.463L198.629 178.153L198.716 179.208L198.802 180.277L198.904 181.509L198.981 182.447L199.068 183.501L199.103 183.954H214.806L214.842 183.501L214.923 182.452L215 181.509L215.102 180.272L215.189 179.208L215.275 178.153L215.413 176.457L215.51 175.225L215.535 174.909L215.622 173.86L215.821 171.406L215.969 169.567L216.229 166.359L216.326 165.126L216.469 163.4H214.541ZM215.561 164.53L215.229 164.199H215.592L215.561 164.53ZM215.479 165.579L215.444 165.997L213.914 167.525L212.159 165.773L213.735 164.199H214.102L215.479 165.579ZM215.036 171.044L213.914 172.164L212.159 170.412L213.919 168.661L215.133 169.873L215.036 171.044ZM198.756 169.873L199.97 168.661L201.725 170.412L199.97 172.164L198.848 171.044L198.756 169.873ZM213.348 168.09L211.588 169.847L209.834 168.09L211.588 166.338L213.348 168.09ZM210.583 164.199H212.593L211.573 165.218L210.583 164.199ZM211.017 170.412L209.268 172.164L207.508 170.412L209.268 168.661L211.017 170.412ZM205.188 172.73L206.942 170.983L208.696 172.73L206.942 174.487L205.188 172.73ZM206.371 175.052L204.616 176.809L202.862 175.057L204.621 173.3L206.371 175.052ZM209.268 173.3L211.017 175.057L209.268 176.809L207.508 175.052L209.268 173.3ZM206.942 169.847L205.188 168.09L206.942 166.338L208.696 168.09L206.942 169.847ZM206.371 170.412L204.621 172.164L202.862 170.412L204.621 168.661L206.371 170.412ZM202.291 169.847L200.536 168.09L202.291 166.338L204.05 168.09L202.291 169.847ZM202.291 170.983L204.05 172.73L202.291 174.487L200.536 172.73L202.291 170.983ZM204.05 177.374L202.291 179.126L200.536 177.374L202.291 175.622L204.05 177.374ZM204.616 177.945L206.371 179.696L204.621 181.453L202.862 179.696L204.616 177.945ZM205.188 177.374L206.942 175.622L208.696 177.374L206.942 179.126L205.188 177.374ZM209.268 177.945L211.017 179.696L209.268 181.453L207.508 179.696L209.268 177.945ZM211.598 180.282L213.358 182.039L212.22 183.175H210.981L209.844 182.039L211.598 180.282ZM209.844 177.395L211.598 175.643L213.358 177.395L211.598 179.146L209.844 177.395ZM209.844 172.75L211.598 171.003L213.358 172.75L211.598 174.507L209.844 172.75ZM211.027 165.793L209.278 167.55L207.518 165.798L209.089 164.225H209.461L211.027 165.793ZM206.947 165.228L205.927 164.21H207.931L206.947 165.228ZM206.376 165.793L204.632 167.55L202.872 165.798L204.443 164.225H204.815L206.376 165.793ZM203.316 164.22L202.296 165.238L201.276 164.22H203.316ZM200.174 164.22L201.745 165.793L199.98 167.55L198.45 166.023L198.42 165.605L199.792 164.225L200.174 164.22ZM198.644 164.22L198.318 164.546L198.292 164.22H198.644ZM198.537 167.275L199.394 168.131L198.665 168.864L198.537 167.275ZM199.017 173.152L198.945 172.322L199.394 172.77L199.017 173.152ZM199.098 174.212L199.965 173.341L201.72 175.098L199.965 176.85L199.256 176.142L199.098 174.212ZM199.358 177.456V177.379L199.394 177.415L199.358 177.456ZM199.664 181.189L199.445 178.5L199.955 177.99L201.709 179.742L199.955 181.494L199.654 181.194L199.664 181.189ZM199.827 183.195L199.792 182.793L199.965 182.625L200.531 183.195H199.827ZM200.531 182.059L202.286 180.302L204.045 182.059L202.908 183.195H201.669L200.531 182.059ZM204.045 183.195L204.616 182.625L205.182 183.195H204.045ZM206.32 183.195L205.182 182.059L206.937 180.302L208.691 182.059L207.569 183.154L206.32 183.195ZM208.691 183.195L209.262 182.625L209.834 183.195H208.691ZM214.046 183.195H213.337L213.909 182.625L214.077 182.793L214.046 183.195ZM214.209 181.189L213.909 181.489L212.159 179.696L213.919 177.945L214.429 178.454L214.209 181.189ZM214.521 177.374V177.456L214.485 177.415L214.531 177.374H214.521ZM214.617 176.142L213.909 176.85L212.159 175.057L213.919 173.3L214.786 174.171L214.617 176.142ZM214.862 173.157L214.475 172.77L214.929 172.322L214.862 173.157ZM215.342 167.27L215.209 168.869L214.475 168.131L215.342 167.27Z" fill="white"/>
</g>
<path d="M197.176 164.918H216.729C217.191 164.918 217.565 164.544 217.565 164.082V163.517C217.565 163.056 217.191 162.682 216.729 162.682H197.176C196.714 162.682 196.339 163.056 196.339 163.517V164.082C196.339 164.544 196.714 164.918 197.176 164.918Z" fill="#FF7229"/>
<path d="M215.199 182.752H198.706C198.244 182.752 197.87 183.126 197.87 183.587V184.153C197.87 184.614 198.244 184.988 198.706 184.988H215.199C215.661 184.988 216.036 184.614 216.036 184.153V183.587C216.036 183.126 215.661 182.752 215.199 182.752Z" fill="#FF7229"/>
<path d="M187.134 173.784L172.915 172.388V156.377H167.28V172.383L153 173.784C152.316 173.851 151.681 174.169 151.219 174.678C150.758 175.186 150.501 175.847 150.501 176.534V178.668H189.623V176.534C189.623 175.849 189.368 175.189 188.908 174.681C188.449 174.173 187.816 173.853 187.134 173.784Z" fill="#263238"/>
<path opacity="0.1" d="M187.134 173.784L172.915 172.388V156.377H167.28V172.383L153 173.784C152.316 173.851 151.681 174.169 151.219 174.678C150.758 175.186 150.501 175.847 150.501 176.534V178.668H189.623V176.534C189.623 175.849 189.368 175.189 188.908 174.681C188.449 174.173 187.816 173.853 187.134 173.784Z" fill="white"/>
<path d="M152.01 184.988C154.044 184.988 155.693 183.341 155.693 181.311C155.693 179.28 154.044 177.634 152.01 177.634C149.977 177.634 148.328 179.28 148.328 181.311C148.328 183.341 149.977 184.988 152.01 184.988Z" fill="#263238"/>
<path d="M188.124 184.988C190.157 184.988 191.806 183.341 191.806 181.311C191.806 179.28 190.157 177.634 188.124 177.634C186.09 177.634 184.441 179.28 184.441 181.311C184.441 183.341 186.09 184.988 188.124 184.988Z" fill="#263238"/>
<path d="M166.311 142.891H173.91V158.556C173.91 159.114 173.688 159.649 173.293 160.044C172.898 160.438 172.362 160.66 171.803 160.66H168.442C167.884 160.66 167.348 160.438 166.953 160.044C166.558 159.649 166.336 159.114 166.336 158.556V142.891H166.311Z" fill="#263238"/>
<path opacity="0.2" d="M166.311 142.891H173.91V158.556C173.91 159.114 173.688 159.649 173.293 160.044C172.898 160.438 172.362 160.66 171.803 160.66H168.442C167.884 160.66 167.348 160.438 166.953 160.044C166.558 159.649 166.336 159.114 166.336 158.556V142.891H166.311Z" fill="white"/>
<path d="M189.776 112.04C189.776 112.04 185.553 138.359 177.225 142.886H185.691C185.691 142.886 194.06 133.938 196.61 112.04H189.776Z" fill="#263238"/>
<path opacity="0.1" d="M189.776 112.04C189.776 112.04 185.553 138.359 177.225 142.886H185.691C185.691 142.886 194.06 133.938 196.61 112.04H189.776Z" fill="white"/>
<path d="M188.578 144.933H150.618V141.72C150.618 141.045 150.887 140.397 151.365 139.919C151.843 139.442 152.492 139.174 153.168 139.174H186.028C186.704 139.174 187.353 139.442 187.831 139.919C188.309 140.397 188.578 141.045 188.578 141.72V144.933Z" fill="#FF7229"/>
<path d="M150.062 144.933H189.134C189.7 144.933 190.159 144.475 190.159 143.91V143.075C190.159 142.509 189.7 142.051 189.134 142.051H150.062C149.496 142.051 149.037 142.509 149.037 143.075V143.91C149.037 144.475 149.496 144.933 150.062 144.933Z" fill="#263238"/>
<path opacity="0.6" d="M150.062 144.933H189.134C189.7 144.933 190.159 144.475 190.159 143.91V143.075C190.159 142.509 189.7 142.051 189.134 142.051H150.062C149.496 142.051 149.037 142.509 149.037 143.075V143.91C149.037 144.475 149.496 144.933 150.062 144.933Z" fill="white"/>
<path d="M197.609 117.392H184.038C180.065 117.392 177.485 114.209 178.275 110.262L179.331 105.022C180.116 101.096 183.982 97.8922 187.955 97.8922H201.521C205.499 97.8922 208.08 101.075 207.289 105.022L206.233 110.262C205.443 114.209 201.582 117.392 197.609 117.392Z" fill="#FF7229"/>
<path d="M128.887 99.7611L125.373 97.7801C124.824 97.3377 124.177 97.0337 123.486 96.8939C121.546 96.862 119.608 97.0137 117.697 97.3472C117.187 97.5458 117.371 101.635 117.697 101.701C118.024 101.768 123.098 101.829 123.552 101.701C124.006 101.574 125.113 100.337 125.113 100.337L127.719 102.078L128.887 99.7611Z" fill="#EBB376"/>
<path d="M144.788 94.2814C142.942 95.9314 137.138 102.842 136.231 103.092C135.323 103.341 126.836 97.999 126.836 97.999L125.633 101.365C125.633 101.365 133.619 107.93 136.231 108.383C139.061 108.892 148.496 101.253 148.496 101.253L144.788 94.2814Z" fill="#FF7229"/>
<path opacity="0.5" d="M148.496 101.253C148.496 101.253 146.369 102.975 143.819 104.727C141.014 106.662 137.699 108.643 136.225 108.383C133.609 107.935 125.623 101.37 125.623 101.37L126.826 98.0042C126.826 98.0042 135.323 103.336 136.225 103.097C137.128 102.858 142.937 95.9365 144.773 94.2865L147.201 98.8394L148.496 101.253Z" fill="white"/>
<path opacity="0.2" d="M148.496 101.253C148.496 101.253 146.369 102.975 143.819 104.727C144.253 102.328 146.211 99.919 147.201 98.8342L148.496 101.253Z" fill="black"/>
<path d="M153.78 115.88C153.78 115.88 145.207 100.917 144.789 94.2814C144.789 94.2814 147.731 88.8475 151.592 87.6608C155.453 86.4742 165.673 87.1516 165.673 87.1516C165.673 87.1516 173.757 95.4323 178.132 114.27L153.78 115.88Z" fill="#FF7229"/>
<path opacity="0.7" d="M153.78 115.88C153.78 115.88 145.207 100.917 144.789 94.2814C144.789 94.2814 147.731 88.8475 151.592 87.6608C155.453 86.4742 165.673 87.1516 165.673 87.1516C165.673 87.1516 173.757 95.4323 178.132 114.27L153.78 115.88Z" fill="white"/>
<path opacity="0.1" d="M159.828 98.5491L164.908 97.3574L166.759 102.048L164.806 104.131L161.623 103.092L159.828 98.5491Z" fill="black"/>
<path d="M158.319 179.926L153.963 180.735L150.098 171.044L154.448 170.239L158.319 179.926Z" fill="#EBB376"/>
<path opacity="0.2" d="M154.448 170.239L150.103 171.049L152.311 176.59L156.585 175.576L154.448 170.239Z" fill="black"/>
<path d="M112.001 181.586L108.375 179.05L112.597 169.511L116.218 172.047L112.001 181.586Z" fill="#EBB376"/>
<path opacity="0.2" d="M116.218 172.047L112.597 169.516L110.185 174.97L113.897 177.308L116.218 172.047Z" fill="black"/>
<path d="M172.589 130.603L158.691 134.855L130.968 143.35C124.577 158.17 116.749 173.662 116.749 173.662L109.497 170.687C109.497 170.687 117.305 144.669 119.584 138.165C123.226 127.786 162.129 120.85 162.129 120.85L172.589 130.603Z" fill="#263238"/>
<path d="M116.387 176.381L107.457 172.521L108.619 168.447L118.33 172.872L116.387 176.381Z" fill="#FF7229"/>
<path opacity="0.2" d="M116.387 176.381L107.457 172.521L108.619 168.447L118.33 172.872L116.387 176.381Z" fill="white"/>
<path d="M107.818 178.79C107.818 178.79 107.767 178.739 107.767 178.734L107.711 178.678L107.772 178.729C107.803 178.668 108.42 177.578 108.191 177.013C108.161 176.942 108.116 176.878 108.059 176.827C108.001 176.776 107.933 176.738 107.859 176.717C107.778 176.686 107.688 176.683 107.605 176.709C107.521 176.735 107.449 176.788 107.4 176.86C107.251 177.21 107.229 177.601 107.339 177.965C107.043 177.593 106.671 177.221 106.36 177.206C106.294 177.206 106.229 177.222 106.17 177.252C106.112 177.282 106.061 177.326 106.023 177.379C105.951 177.456 105.903 177.551 105.883 177.653C105.863 177.756 105.873 177.862 105.911 177.96C106.064 178.208 106.304 178.389 106.584 178.469C106.947 178.618 107.325 178.728 107.711 178.795H107.747H107.777L107.818 178.79ZM107.568 176.997C107.604 176.946 107.665 176.895 107.808 176.941H107.854C107.892 176.958 107.925 176.981 107.953 177.011C107.982 177.041 108.003 177.076 108.017 177.114C108.16 177.451 107.91 178.108 107.732 178.489C107.715 178.459 107.696 178.431 107.675 178.403C107.48 177.96 107.442 177.464 107.568 176.997ZM106.079 177.883C106.059 177.821 106.056 177.753 106.07 177.689C106.085 177.625 106.116 177.565 106.161 177.517C106.178 177.49 106.202 177.467 106.231 177.452C106.26 177.437 106.292 177.429 106.324 177.43C106.635 177.43 107.16 178.077 107.497 178.581C106.732 178.408 106.212 178.153 106.079 177.883Z" fill="#FF7229"/>
<path d="M108.323 178.428L112.873 180.414C112.911 180.429 112.947 180.451 112.977 180.48C113.007 180.508 113.031 180.543 113.048 180.581C113.064 180.619 113.073 180.66 113.074 180.701C113.074 180.742 113.067 180.784 113.051 180.822L111.689 184.519C111.606 184.707 111.453 184.854 111.263 184.931C111.072 185.007 110.859 185.005 110.669 184.927C109.094 184.209 108.38 183.786 106.385 182.89C105.156 182.35 102.678 181.402 101.117 180.399C99.5565 179.396 100.607 177.883 101.342 178.169C103.121 178.841 105.983 178.749 107.518 178.352C107.787 178.286 108.071 178.313 108.323 178.428Z" fill="#263238"/>
<path d="M153.423 180.282C153.423 180.206 153.346 178.953 152.887 178.556C152.815 178.502 152.732 178.465 152.644 178.446C152.556 178.426 152.465 178.426 152.377 178.444C152.287 178.45 152.201 178.486 152.132 178.545C152.064 178.605 152.018 178.686 152 178.775C152.017 179.155 152.171 179.517 152.433 179.793C152.065 179.575 151.632 179.494 151.209 179.564C151.149 179.593 151.097 179.637 151.058 179.691C151.019 179.745 150.994 179.808 150.985 179.875C150.957 179.975 150.957 180.081 150.986 180.181C151.015 180.28 151.071 180.37 151.148 180.44C151.399 180.597 151.699 180.655 151.99 180.603C152.381 180.57 152.768 180.493 153.142 180.374C153.148 180.376 153.154 180.377 153.16 180.377C153.166 180.377 153.172 180.376 153.178 180.374C153.178 180.374 153.178 180.374 153.178 180.343C153.178 180.313 153.285 180.318 153.29 180.303H153.382L153.423 180.282ZM152.204 178.815C152.204 178.754 152.245 178.683 152.388 178.658H152.439C152.479 178.655 152.521 178.661 152.559 178.675C152.598 178.689 152.633 178.711 152.663 178.739C152.943 178.973 153.02 179.671 153.04 180.089L152.949 180.038C152.562 179.732 152.298 179.299 152.204 178.815ZM151.301 180.282C151.255 180.235 151.222 180.177 151.205 180.114C151.188 180.051 151.188 179.984 151.204 179.921C151.206 179.888 151.217 179.856 151.236 179.829C151.255 179.802 151.281 179.781 151.311 179.768C151.592 179.635 152.331 179.961 152.882 180.252C152.102 180.455 151.521 180.466 151.301 180.282Z" fill="#FF7229"/>
<path d="M153.509 179.773L158.467 179.462C158.507 179.458 158.549 179.462 158.588 179.474C158.628 179.485 158.664 179.505 158.696 179.531C158.728 179.557 158.754 179.589 158.773 179.625C158.793 179.662 158.804 179.701 158.808 179.742L159.318 183.643C159.331 183.849 159.262 184.051 159.127 184.206C158.991 184.362 158.8 184.458 158.594 184.473C156.865 184.55 156.044 184.504 153.851 184.621C152.515 184.702 149.873 184.988 148.027 184.809C146.181 184.631 146.405 182.808 147.206 182.721C149.098 182.508 151.602 181.122 152.785 180.068C152.988 179.893 153.242 179.789 153.509 179.773Z" fill="#263238"/>
<path d="M145.298 90.0493C146.057 89.7818 146.885 89.7818 147.644 90.0493C147.819 90.7901 148.236 91.4514 148.83 91.9276C149.425 92.4039 150.162 92.6678 150.924 92.6772C151.3 92.6962 151.677 92.6809 152.051 92.6314C155.871 92.1221 155.452 86.4335 155.452 86.4335C154.06 86.5328 152.671 86.2002 151.474 85.4812C150.459 84.8863 149.573 84.0951 148.868 83.1538L145.298 90.0493Z" fill="#EBB376"/>
<path opacity="0.2" d="M145.298 90.0493C146.057 89.7818 146.885 89.7818 147.644 90.0493C147.819 90.7901 148.236 91.4514 148.83 91.9276C149.425 92.4039 150.162 92.6678 150.924 92.6772C151.908 90.248 151.78 87.4673 151.474 85.4812C150.459 84.8863 149.573 84.0951 148.868 83.1538L145.298 90.0493Z" fill="black"/>
<path d="M142.636 77.511C144.523 78.3258 144.126 80.3884 140.913 84.1315C139 82.4357 138.011 78.6212 139.046 77.4193C140.081 76.2175 140.989 76.8031 142.636 77.511Z" fill="#263238"/>
<path d="M150.414 79.2579C151.006 83.3728 151.557 85.7511 149.94 88.2618C147.502 92.0355 142.096 91.2155 140.281 87.3553C138.659 83.8922 137.96 77.7453 141.607 75.311C142.408 74.7713 143.334 74.4446 144.297 74.3619C145.26 74.2792 146.228 74.4432 147.11 74.8383C147.992 75.2335 148.758 75.8468 149.336 76.6201C149.914 77.3935 150.285 78.3013 150.414 79.2579Z" fill="#EBB376"/>
<path d="M144.568 81.6312C144.639 81.9622 144.517 82.2627 144.298 82.3085C144.079 82.3544 143.855 82.1252 143.789 81.7993C143.723 81.4733 143.835 81.1627 144.054 81.1168C144.273 81.071 144.476 81.3104 144.568 81.6312Z" fill="#263238"/>
<path d="M140.805 82.4153C140.876 82.7412 140.754 83.0468 140.54 83.0926C140.326 83.1384 140.092 82.9093 140.031 82.5833C139.97 82.2574 140.082 81.9467 140.301 81.906C140.52 81.8652 140.759 82.0842 140.805 82.4153Z" fill="#263238"/>
<path d="M142.065 82.3136C141.881 83.4067 141.546 84.4693 141.071 85.4711C141.331 85.5853 141.614 85.6413 141.898 85.6352C142.183 85.629 142.463 85.5609 142.718 85.4354L142.065 82.3136Z" fill="#D58745"/>
<path d="M148.048 75.9936C146.278 77.0376 146.936 79.0492 150.598 82.3187C152.281 80.3886 152.781 76.4774 151.618 75.4232C150.455 74.369 149.593 75.0871 148.048 75.9936Z" fill="#263238"/>
<path d="M153.025 82.1099C152.947 83.1526 152.457 84.1215 151.664 84.8039C150.603 85.6952 149.501 84.8905 149.312 83.5919C149.144 82.4206 149.491 80.5362 150.786 80.1594C152.082 79.7825 153.117 80.8316 153.025 82.1099Z" fill="#EBB376"/>
<path d="M146.257 79.6856C146.229 79.7114 146.194 79.7291 146.156 79.7372C146.119 79.7452 146.08 79.7433 146.043 79.7315C145.793 79.6365 145.525 79.6013 145.259 79.6288C144.994 79.6562 144.738 79.7454 144.513 79.8893C144.469 79.9238 144.413 79.9394 144.358 79.9327C144.302 79.926 144.252 79.8976 144.217 79.8537C144.183 79.8098 144.167 79.754 144.174 79.6986C144.181 79.6432 144.209 79.5928 144.253 79.5583C144.531 79.3718 144.849 79.2542 145.182 79.2153C145.515 79.1763 145.852 79.2171 146.165 79.3342C146.191 79.3423 146.216 79.3555 146.236 79.373C146.257 79.3905 146.274 79.412 146.287 79.4362C146.299 79.4604 146.306 79.4868 146.308 79.5139C146.31 79.541 146.307 79.5682 146.298 79.594C146.289 79.6265 146.276 79.6574 146.257 79.6856Z" fill="#263238"/>
<path d="M138.761 80.699C138.718 80.6929 138.679 80.6733 138.648 80.643C138.619 80.5967 138.608 80.5407 138.618 80.4866C138.629 80.4325 138.66 80.3846 138.705 80.3527C138.982 80.1651 139.301 80.0468 139.633 80.0078C139.966 79.9688 140.304 80.0102 140.617 80.1286C140.643 80.1391 140.666 80.1547 140.685 80.1744C140.704 80.1941 140.72 80.2175 140.73 80.2432C140.74 80.2689 140.744 80.2964 140.743 80.324C140.742 80.3516 140.736 80.3787 140.724 80.4036C140.702 80.4543 140.66 80.494 140.609 80.514C140.557 80.5341 140.499 80.5328 140.449 80.5106C140.196 80.4227 139.925 80.3953 139.659 80.4307C139.394 80.4661 139.14 80.5632 138.919 80.7143C138.893 80.7227 138.865 80.7257 138.838 80.7231C138.811 80.7205 138.784 80.7123 138.761 80.699Z" fill="#263238"/>
<path d="M151.153 75.8814C151.153 75.8814 152.061 74.0786 149.674 72.5151C147.288 70.9517 140.066 72.1739 137.48 75.4434C134.895 78.713 137.139 80.7042 137.139 80.7042C137.03 80.1629 137.115 79.6006 137.378 79.1153C137.649 79.664 138.086 80.1133 138.628 80.3987C139.449 80.7653 138.903 80.6482 138.903 80.6482C138.868 79.7867 139.147 78.9417 139.689 78.2699C140.309 78.8773 141.064 79.3308 141.892 79.594C142.072 78.883 142.496 78.2576 143.09 77.8268C143.09 77.8268 143.539 79.2681 144.228 79.4056C144.228 79.4056 144.166 78.2292 145.758 77.3685C145.758 77.3685 145.936 78.4889 146.385 78.7843C146.4 78.825 147.16 76.2888 151.153 75.8814Z" fill="#263238"/>
<path d="M143.778 86.8206C143.742 86.8207 143.707 86.8101 143.676 86.79C143.655 86.777 143.636 86.7597 143.621 86.7392C143.606 86.7187 143.595 86.6954 143.589 86.6706C143.584 86.6459 143.583 86.6203 143.587 86.5953C143.592 86.5703 143.601 86.5465 143.615 86.5252C144.208 85.6827 145.072 85.0681 146.063 84.7835C146.087 84.7757 146.112 84.7729 146.137 84.7752C146.162 84.7774 146.186 84.7847 146.208 84.7967C146.23 84.8086 146.249 84.8249 146.265 84.8445C146.28 84.8641 146.291 84.8867 146.298 84.9108C146.312 84.9594 146.307 85.0118 146.283 85.0565C146.259 85.1013 146.219 85.1349 146.17 85.1502C145.27 85.4124 144.484 85.9683 143.937 86.7289C143.92 86.7567 143.897 86.7797 143.87 86.7958C143.842 86.8119 143.81 86.8204 143.778 86.8206Z" fill="#263238"/>
<path d="M143.957 84.0297C143.499 83.9884 143.069 83.7939 142.735 83.4778C142.402 83.1617 142.186 82.7424 142.121 82.288C141.907 81.1625 142.509 80.0982 143.462 79.9148C144.416 79.7315 145.365 80.5056 145.579 81.6311C145.684 82.1509 145.605 82.6913 145.354 83.1589C145.242 83.3726 145.083 83.5588 144.89 83.7041C144.697 83.8494 144.474 83.9502 144.237 83.9992C144.145 84.0172 144.051 84.0274 143.957 84.0297ZM143.743 80.1593C143.666 80.1517 143.59 80.1517 143.513 80.1593C142.707 80.3121 142.197 81.2338 142.386 82.1964C142.57 83.1742 143.376 83.8566 144.186 83.6987C144.385 83.6576 144.572 83.5726 144.733 83.4502C144.895 83.3277 145.027 83.1708 145.12 82.9908C145.341 82.5776 145.41 82.0999 145.314 81.6413C145.261 81.2502 145.077 80.8886 144.791 80.6156C144.506 80.3427 144.136 80.1746 143.743 80.1389V80.1593Z" fill="#263238"/>
<path d="M139.571 84.7684C139.181 84.7626 138.806 84.6202 138.51 84.3661C138.104 84.0213 137.832 83.5457 137.74 83.0216C137.526 81.8961 138.128 80.8368 139.081 80.6535C139.32 80.6127 139.564 80.6254 139.797 80.6906C140.03 80.7558 140.245 80.8718 140.428 81.0303C140.833 81.3733 141.106 81.8471 141.198 82.3697C141.301 82.8896 141.221 83.429 140.973 83.8975C140.861 84.1107 140.702 84.2963 140.509 84.4408C140.316 84.5852 140.093 84.685 139.857 84.7327C139.763 84.7547 139.667 84.7666 139.571 84.7684ZM138.005 82.9757C138.085 83.4359 138.323 83.8539 138.678 84.1573C138.828 84.2903 139.007 84.3872 139.2 84.4406C139.394 84.4939 139.597 84.5021 139.794 84.4648C139.991 84.4274 140.177 84.3453 140.337 84.2249C140.497 84.1045 140.628 83.9489 140.718 83.7702C140.934 83.3527 141.003 82.8751 140.916 82.4136C140.828 81.9522 140.588 81.5333 140.234 81.2239C140.082 81.0909 139.903 80.9936 139.709 80.939C139.515 80.8843 139.311 80.8738 139.112 80.9081C138.301 81.0609 137.796 81.9827 137.985 82.9452L138.005 82.9757Z" fill="#263238"/>
<path d="M141.066 82.5274C141.037 82.5275 141.008 82.5186 140.984 82.502C140.97 82.4914 140.958 82.4781 140.949 82.4629C140.94 82.4476 140.934 82.4307 140.931 82.4131C140.929 82.3956 140.93 82.3777 140.935 82.3606C140.94 82.3435 140.948 82.3275 140.959 82.3135C141.125 82.1218 141.355 81.9969 141.606 81.9622C141.858 81.9275 142.113 81.9854 142.325 82.1251C142.355 82.144 142.376 82.1736 142.385 82.2076C142.393 82.2417 142.389 82.2778 142.371 82.3084C142.362 82.3243 142.35 82.3382 142.336 82.3492C142.321 82.3602 142.305 82.3681 142.287 82.3724C142.269 82.3767 142.251 82.3773 142.233 82.3742C142.215 82.3711 142.198 82.3643 142.183 82.3543C142.026 82.25 141.837 82.205 141.65 82.2274C141.463 82.2498 141.29 82.3381 141.163 82.4765C141.151 82.4914 141.136 82.5036 141.12 82.5124C141.103 82.5212 141.085 82.5263 141.066 82.5274Z" fill="#263238"/>
<path d="M145.446 81.7738C145.417 81.7735 145.388 81.7633 145.365 81.7448C145.342 81.7263 145.326 81.7007 145.319 81.672C145.309 81.6382 145.314 81.6021 145.331 81.5715C145.348 81.541 145.377 81.5185 145.411 81.509L149.236 80.4395C149.271 80.4315 149.308 80.437 149.339 80.4549C149.37 80.4729 149.393 80.5019 149.404 80.5363C149.412 80.5707 149.406 80.6068 149.388 80.6371C149.37 80.6674 149.341 80.6897 149.307 80.6993L145.482 81.7687L145.446 81.7738Z" fill="#263238"/>
<path opacity="0.2" d="M158.691 134.855L130.968 143.35C130.968 143.35 129.948 135.711 134.941 132.146C142.234 126.921 158.319 125.459 158.319 125.459C158.319 125.459 158.518 130.002 158.691 134.855Z" fill="black"/>
<path d="M153.137 126.07L154.208 119.373L153.78 115.88L178.132 114.255L178.5 118.151C178.5 118.151 181.396 131.82 179.387 135.527C175.817 142.148 161.027 141.888 148.18 141.888C150.97 150.037 156.57 170.662 156.57 170.662L149.853 173.718C149.853 173.718 136.894 150.179 133.951 139.989C131.365 130.99 143.967 128.291 153.137 126.07Z" fill="#263238"/>
<path d="M158.094 172.505L149.083 176.167L146.981 172.49L156.947 168.66L158.094 172.505Z" fill="#FF7229"/>
<path opacity="0.2" d="M158.094 172.505L149.083 176.167L146.981 172.49L156.947 168.66L158.094 172.505Z" fill="white"/>
<path d="M170.497 118.401L178.795 117.907L178.295 114.831L170.181 115.35L170.497 118.401Z" fill="black"/>
<path d="M155.157 116.307L153.78 116.399L154.208 119.373L155.396 119.302L155.157 116.307Z" fill="black"/>
<path d="M156.371 119.246L169.524 118.462L169.279 115.406L156.06 116.251L156.371 119.246Z" fill="black"/>
<path d="M160.236 119.286C159.95 119.287 159.674 119.18 159.463 118.987C159.252 118.793 159.122 118.528 159.099 118.242L159.002 117.132C158.975 116.834 159.067 116.537 159.258 116.306C159.449 116.076 159.724 115.929 160.022 115.9L162.383 115.696C162.534 115.682 162.685 115.698 162.829 115.743C162.973 115.789 163.106 115.863 163.22 115.961C163.334 116.057 163.428 116.175 163.496 116.308C163.565 116.441 163.606 116.586 163.618 116.735L163.715 117.845C163.728 117.995 163.712 118.146 163.666 118.29C163.621 118.433 163.547 118.566 163.449 118.68C163.354 118.796 163.236 118.891 163.103 118.96C162.97 119.03 162.824 119.071 162.674 119.083L160.313 119.281L160.236 119.286ZM162.501 116.2H162.45L160.088 116.404C160.006 116.41 159.925 116.433 159.851 116.471C159.777 116.509 159.711 116.561 159.657 116.625C159.604 116.688 159.563 116.762 159.538 116.841C159.513 116.92 159.505 117.004 159.512 117.086L159.604 118.202C159.619 118.368 159.7 118.522 159.828 118.63C159.957 118.735 160.121 118.788 160.287 118.777L162.649 118.574C162.732 118.566 162.813 118.543 162.888 118.505C162.962 118.466 163.028 118.413 163.082 118.349C163.189 118.221 163.242 118.057 163.23 117.891L163.133 116.781C163.126 116.698 163.103 116.616 163.064 116.542C163.026 116.468 162.973 116.402 162.909 116.348C162.795 116.251 162.65 116.199 162.501 116.2Z" fill="white"/>
<path d="M161.914 117.744C161.853 117.743 161.793 117.721 161.747 117.681C161.7 117.641 161.669 117.585 161.659 117.525C161.651 117.458 161.669 117.39 161.71 117.337C161.751 117.283 161.812 117.248 161.879 117.239L162.853 117.107C162.886 117.101 162.92 117.102 162.953 117.11C162.986 117.118 163.017 117.132 163.044 117.152C163.071 117.172 163.094 117.197 163.111 117.226C163.128 117.255 163.139 117.288 163.143 117.321C163.152 117.388 163.134 117.457 163.093 117.511C163.052 117.565 162.991 117.601 162.924 117.611L161.945 117.744H161.914Z" fill="white"/>
<path opacity="0.2" d="M153.239 94.8417C153.239 94.8417 155.708 103.555 158.691 109.453C158.691 109.453 153.994 100.708 152.24 93.9708L153.239 94.8417Z" fill="black"/>
<path d="M153.367 96.4663L154.637 94.8112H155.32L156.294 95.8297L156.391 96.9908C155.192 97.5256 153.367 96.9908 153.367 96.9908V96.4663Z" fill="#FF7229"/>
<path d="M154.586 95.2338C154.559 93.1187 154.33 91.0109 153.903 88.9392L154.586 89.2346C155.232 91.3136 155.464 93.4987 155.27 95.6667L154.586 95.2338Z" fill="#FF7229"/>
<path d="M153.724 96.517C153.724 96.517 148.924 94.6225 148.465 91.516L148.129 92.1017C148.129 92.1017 149.271 96.0281 154.32 97.0008L153.724 96.517Z" fill="#FF7229"/>
<path d="M155.723 96.2217C156.213 96.1433 156.677 95.947 157.074 95.6498C157.471 95.3525 157.79 94.9633 158.003 94.5157C159.14 91.9031 158.003 88.0683 160.818 86.3673L162.399 86.9275C161.519 87.5974 160.875 88.5306 160.563 89.591C159.992 91.7809 159.344 97.1995 155.723 96.9958V96.2217Z" fill="#FF7229"/>
<path d="M154.591 85.4863L152.24 91.2513L152.051 92.6314L150.383 91.8369L147.696 90.2378C147.696 90.2378 146.502 91.9031 148.496 94.5004L150.383 92.9421L153.03 95.8398L153.78 92.2749L156.865 93.268C156.865 93.268 158.1 88.104 158.1 86.6271L154.591 85.4863Z" fill="#FF7229"/>
<path opacity="0.6" d="M158.1 86.6271C158.1 88.1142 156.86 93.2833 156.86 93.2833L153.77 92.2902L153.025 95.8551L150.378 92.9573L148.491 94.5157C146.497 91.9184 147.685 90.2531 147.685 90.2531L150.378 91.8522L152.046 92.6467L152.235 91.2665L154.581 85.5016L158.1 86.6271Z" fill="white"/>
<path opacity="0.2" d="M156.866 93.2832L153.775 92.2901L153.03 95.8398L152.867 91.3785L156.866 93.2832Z" fill="black"/>
<path opacity="0.2" d="M153.03 95.8398L150.383 92.9421L148.496 94.5004L149.842 92.0967L153.03 95.8398Z" fill="black"/>
<path d="M140.178 101.406L136.225 100.963C135.677 100.52 135.03 100.216 134.338 100.077C132.397 100.043 130.458 100.193 128.545 100.525C128.035 100.724 128.218 104.813 128.545 104.885C128.871 104.956 133.946 105.012 134.405 104.885C134.864 104.757 135.965 103.52 135.965 103.52L139.428 104.131L140.178 101.406Z" fill="#EBB376"/>
<path d="M165.673 87.1363C164.041 87.4673 156.493 101.783 156.493 101.783L137.067 100.836L136.776 104.156C136.776 104.156 154.183 107.94 158.105 107.212C162.026 106.484 169.1 94.261 169.523 92.9165C170.487 89.8558 166.769 86.9122 165.673 87.1363Z" fill="#FF7229"/>
<path opacity="0.6" d="M165.673 87.1363C164.041 87.4673 156.493 101.783 156.493 101.783L137.067 100.836L136.776 104.156C136.776 104.156 154.183 107.94 158.105 107.212C162.026 106.484 169.1 94.261 169.523 92.9165C170.487 89.8558 166.769 86.9122 165.673 87.1363Z" fill="white"/>
<path d="M150.725 49.7506H96.9355C96.3945 49.7506 95.8756 49.9652 95.493 50.3473C95.1104 50.7293 94.8955 51.2474 94.8955 51.7877C94.8955 52.328 95.1104 52.8461 95.493 53.2281C95.8756 53.6102 96.3945 53.8248 96.9355 53.8248H150.725C151.266 53.8248 151.785 53.6102 152.168 53.2281C152.55 52.8461 152.765 52.328 152.765 51.7877C152.765 51.2474 152.55 50.7293 152.168 50.3473C151.785 49.9652 151.266 49.7506 150.725 49.7506Z" fill="#FF7229"/>
<path opacity="0.6" d="M150.725 49.7506H96.9355C96.3945 49.7506 95.8756 49.9652 95.493 50.3473C95.1104 50.7293 94.8955 51.2474 94.8955 51.7877C94.8955 52.328 95.1104 52.8461 95.493 53.2281C95.8756 53.6102 96.3945 53.8248 96.9355 53.8248H150.725C151.266 53.8248 151.785 53.6102 152.168 53.2281C152.55 52.8461 152.765 52.328 152.765 51.7877C152.765 51.2474 152.55 50.7293 152.168 50.3473C151.785 49.9652 151.266 49.7506 150.725 49.7506Z" fill="white"/>
<path d="M129.403 50.2089H96.9767C96.571 50.2318 96.1894 50.409 95.9102 50.704C95.6311 50.9989 95.4756 51.3894 95.4756 51.7952C95.4756 52.2011 95.6311 52.5915 95.9102 52.8865C96.1894 53.1815 96.571 53.3587 96.9767 53.3816H129.403C129.808 53.3587 130.19 53.1815 130.469 52.8865C130.748 52.5915 130.904 52.2011 130.904 51.7952C130.904 51.3894 130.748 50.9989 130.469 50.704C130.19 50.409 129.808 50.2318 129.403 50.2089Z" fill="#FF7229"/>
<path d="M112.251 44.2455C112.251 44.7547 111.869 45.0909 111.231 45.0909H110.629V45.8344H110.277V43.4001H111.231C111.869 43.395 112.251 43.7158 112.251 44.2455ZM111.904 44.2455C111.904 43.8941 111.67 43.6955 111.226 43.6955H110.634V44.8159H111.226C111.69 44.8159 111.904 44.5918 111.904 44.2455Z" fill="#263238"/>
<path d="M114.398 45.8343L113.888 45.0857H113.735H113.133V45.8343H112.787V43.4H113.73C114.368 43.4 114.75 43.7209 114.75 44.2505C114.758 44.4197 114.71 44.5868 114.613 44.7258C114.516 44.8649 114.376 44.9681 114.215 45.0195L114.791 45.8343H114.398ZM114.398 44.2505C114.398 43.8991 114.164 43.7005 113.715 43.7005H113.123V44.8158H113.73C114.153 44.8158 114.388 44.5917 114.388 44.2454L114.398 44.2505Z" fill="#263238"/>
<path d="M115.102 44.612C115.093 44.3544 115.161 44.0999 115.298 43.8813C115.434 43.6626 115.633 43.4897 115.869 43.3847C116.105 43.2797 116.366 43.2475 116.621 43.2921C116.875 43.3367 117.11 43.4562 117.296 43.6351C117.482 43.8141 117.61 44.0444 117.663 44.2964C117.717 44.5485 117.694 44.8109 117.598 45.05C117.501 45.289 117.335 45.4938 117.122 45.6381C116.908 45.7824 116.655 45.8595 116.397 45.8597C116.229 45.8673 116.061 45.8406 115.903 45.7812C115.746 45.7218 115.602 45.6309 115.481 45.5141C115.36 45.3974 115.263 45.2571 115.198 45.102C115.133 44.9469 115.1 44.7802 115.102 44.612ZM117.346 44.612C117.348 44.4242 117.294 44.2401 117.191 44.083C117.088 43.9259 116.941 43.8029 116.767 43.7296C116.594 43.6563 116.403 43.6361 116.219 43.6715C116.034 43.7069 115.864 43.7963 115.73 43.9284C115.597 44.0604 115.505 44.2292 115.468 44.4132C115.43 44.5972 115.448 44.7882 115.52 44.9619C115.591 45.1356 115.713 45.2841 115.869 45.3887C116.025 45.4932 116.209 45.549 116.397 45.549C116.522 45.5532 116.647 45.5319 116.763 45.4865C116.879 45.441 116.985 45.3723 117.074 45.2845C117.163 45.1968 117.232 45.0919 117.279 44.9763C117.326 44.8606 117.349 44.7367 117.346 44.612Z" fill="#263238"/>
<path d="M119.916 44.5968H120.253V45.5492C119.988 45.756 119.66 45.8657 119.324 45.8598C119.121 45.8509 118.923 45.7923 118.747 45.6893C118.571 45.5863 118.423 45.442 118.316 45.2688C118.209 45.0957 118.146 44.8991 118.133 44.696C118.119 44.493 118.156 44.2898 118.239 44.104C118.322 43.9183 118.449 43.7557 118.61 43.6303C118.77 43.505 118.959 43.4208 119.16 43.385C119.36 43.3493 119.567 43.363 119.761 43.4251C119.955 43.4872 120.131 43.5957 120.273 43.7413L120.054 43.9551C119.962 43.8632 119.852 43.7909 119.731 43.7427C119.61 43.6946 119.48 43.6715 119.35 43.675C119.101 43.675 118.862 43.7738 118.686 43.9495C118.51 44.1252 118.412 44.3636 118.412 44.6121C118.412 44.8606 118.51 45.099 118.686 45.2747C118.862 45.4504 119.101 45.5492 119.35 45.5492C119.552 45.5542 119.751 45.4992 119.921 45.3913L119.916 44.5968Z" fill="#263238"/>
<path d="M122.548 45.8343L122.038 45.0857H121.885H121.278V45.8343H120.931V43.4H121.89C122.522 43.4 122.91 43.7209 122.91 44.2505C122.92 44.4165 122.875 44.5812 122.783 44.7198C122.691 44.8585 122.557 44.9636 122.4 45.0195L122.91 45.8343H122.548ZM122.548 44.2505C122.548 43.8991 122.313 43.7005 121.87 43.7005H121.273V44.8158H121.87C122.303 44.8158 122.538 44.5917 122.538 44.2454L122.548 44.2505Z" fill="#263238"/>
<path d="M125.22 45.5288V45.8343H123.45V43.4H125.169V43.7005H123.797V44.4491H125.021V44.7445H123.797V45.5339L125.22 45.5288Z" fill="#263238"/>
<path d="M125.562 45.5544L125.69 45.2794C125.917 45.4649 126.202 45.5658 126.495 45.5645C126.919 45.5645 127.097 45.4016 127.097 45.1877C127.097 44.5918 125.618 44.9687 125.618 44.0622C125.618 43.6853 125.914 43.3645 126.557 43.3645C126.833 43.3583 127.104 43.4345 127.337 43.5835L127.225 43.8585C127.024 43.7326 126.793 43.6639 126.557 43.6599C126.138 43.6599 125.96 43.8381 125.96 44.0469C125.96 44.6428 127.439 44.271 127.439 45.1673C127.439 45.5391 127.138 45.8599 126.495 45.8599C126.158 45.8689 125.828 45.7609 125.562 45.5544Z" fill="#263238"/>
<path d="M127.725 45.5543L127.852 45.2793C128.08 45.4641 128.364 45.5648 128.658 45.5645C129.081 45.5645 129.265 45.4015 129.265 45.1876C129.265 44.5917 127.786 44.9686 127.786 44.0621C127.786 43.6852 128.077 43.3644 128.719 43.3644C128.997 43.359 129.27 43.4352 129.505 43.5834L129.387 43.8584C129.187 43.7318 128.956 43.663 128.719 43.6598C128.306 43.6598 128.128 43.838 128.128 44.0468C128.128 44.6427 129.607 44.2709 129.607 45.1672C129.607 45.539 129.306 45.8598 128.658 45.8598C128.321 45.8688 127.991 45.7608 127.725 45.5543Z" fill="#263238"/>
<path d="M132.63 43.395V43.6293L131.641 45.8344H131.274L132.237 43.7006H131.121V44.1386H130.789V43.4001L132.63 43.395Z" fill="#263238"/>
<path d="M132.865 44.6121C132.865 43.8176 133.289 43.3644 133.885 43.3644C134.482 43.3644 134.875 43.8176 134.875 44.6121C134.875 45.4066 134.451 45.8598 133.885 45.8598C133.319 45.8598 132.865 45.4066 132.865 44.6121ZM134.507 44.6121C134.507 43.9908 134.242 43.675 133.865 43.675C133.487 43.675 133.212 43.9908 133.212 44.6121C133.212 45.2334 133.477 45.5492 133.865 45.5492C134.252 45.5492 134.507 45.2334 134.507 44.6121Z" fill="#263238"/>
<path d="M135.15 44.0364C135.139 43.9546 135.146 43.8715 135.17 43.7924C135.193 43.7134 135.233 43.6402 135.287 43.5777C135.341 43.5152 135.408 43.4648 135.482 43.4297C135.557 43.3947 135.639 43.3758 135.721 43.3744C136.058 43.3744 136.282 43.6392 136.282 44.0364C136.282 44.4337 136.058 44.7036 135.721 44.7036C135.638 44.7014 135.557 44.6819 135.482 44.6463C135.407 44.6107 135.341 44.5598 135.287 44.4969C135.233 44.434 135.193 44.3605 135.17 44.2812C135.146 44.2019 135.139 44.1185 135.15 44.0364ZM136.063 44.0364C136.063 43.7462 135.93 43.573 135.721 43.573C135.512 43.573 135.38 43.7462 135.38 44.0364C135.38 44.3267 135.512 44.505 135.721 44.505C135.93 44.505 136.063 44.3318 136.063 44.0364ZM137.19 43.3948H137.46L135.793 45.8342H135.522L137.19 43.3948ZM136.68 45.1874C136.68 44.7902 136.904 44.5203 137.246 44.5203C137.405 44.5444 137.551 44.6248 137.655 44.7467C137.76 44.8686 137.818 45.0241 137.818 45.1849C137.818 45.3456 137.76 45.5011 137.655 45.623C137.551 45.7449 137.405 45.8253 137.246 45.8494C137.164 45.8473 137.083 45.8279 137.009 45.7926C136.935 45.7572 136.869 45.7067 136.815 45.6443C136.762 45.5819 136.722 45.5089 136.699 45.4302C136.676 45.3515 136.669 45.2688 136.68 45.1874ZM137.583 45.1874C137.583 44.8971 137.455 44.7189 137.246 44.7189C137.037 44.7189 136.904 44.892 136.904 45.1874C136.904 45.4828 137.032 45.6508 137.246 45.6508C137.46 45.6508 137.603 45.4777 137.603 45.1874H137.583Z" fill="#263238"/>
<path d="M58.6901 105.873V104.207H57.5732L58.6901 103.555H57.8537L58.9706 102.827H60.0314V101.987H58.8023L60.0314 101.498V99.6798H58.8023V98.4932H57.5732L58.8023 98.0807V97.2353H57.92L58.6391 96.5173L59.2664 95.8909H78.3302V96.7464H79.5899L78.1874 97.3729V98.0807H80.7578V99.3896H81.8951L80.7578 99.96V101.427H79.952V102.124H78.3302V104.207H79.238L78.4934 104.951V105.878L58.6901 105.873Z" fill="#FF7229"/>
<path opacity="0.7" d="M58.6901 105.873V104.207H57.5732L58.6901 103.555H57.8537L58.9706 102.827H60.0314V101.987H58.8023L60.0314 101.498V99.6798H58.8023V98.4932H57.5732L58.8023 98.0807V97.2353H57.92L58.6391 96.5173L59.2664 95.8909H78.3302V96.7464H79.5899L78.1874 97.3729V98.0807H80.7578V99.3896H81.8951L80.7578 99.96V101.427H79.952V102.124H78.3302V104.207H79.238L78.4934 104.951V105.878L58.6901 105.873Z" fill="white"/>
<path opacity="0.1" d="M58.6901 105.873V104.207H57.5732L58.6901 103.555H57.8537L58.9706 102.827H60.0314V101.987H58.8023L60.0314 101.498V99.6798H58.8023V98.4932H57.5732L58.8023 98.0807V97.2353H57.92L58.6391 96.5173L59.2664 95.8909H69.3083V96.7464H70.568L69.1655 97.3729V98.0807H71.7359V99.3896H72.8732L71.7359 99.96V101.427H70.9301V102.124H69.3083V104.207H70.2161L69.4715 104.951V105.878L58.6901 105.873Z" fill="black"/>
<path opacity="0.1" d="M78.1879 98.0806H69.166L78.1879 97.7546V98.0806Z" fill="black"/>
<path opacity="0.1" d="M78.3303 102.124H69.3084L69.2676 102.756L78.3303 102.124Z" fill="black"/>
<path opacity="0.1" d="M79.9526 101.427H70.9307L79.9526 101.743V101.427Z" fill="black"/>
<path opacity="0.1" d="M78.3305 104.207H69.3086L78.3305 103.871V104.207Z" fill="black"/>
<path opacity="0.1" d="M78.4931 104.951H69.4712V105.292L78.4931 104.951Z" fill="black"/>
<path opacity="0.1" d="M80.7577 99.3896H71.7358L80.7577 99.1044V99.3896Z" fill="black"/>
<path opacity="0.1" d="M78.3305 96.7465H69.3086L78.3305 96.4308V96.7465Z" fill="black"/>
<path opacity="0.1" d="M58.8022 97.2355H67.9516L58.8022 97.5156V97.2355Z" fill="black"/>
<path opacity="0.1" d="M69.1654 98.0808H58.8022L68.1964 98.3864L69.1654 98.0808Z" fill="black"/>
<path opacity="0.1" d="M71.7358 99.3895L58.8022 99.6798V99.3895H71.7358Z" fill="black"/>
<path opacity="0.1" d="M71.7362 99.96H65.3408L71.7362 100.276V99.96Z" fill="black"/>
<path opacity="0.1" d="M60.0312 101.498L69.3081 101.427L60.0312 101.218V101.498Z" fill="black"/>
<path opacity="0.1" d="M60.0312 101.987H69.4714L60.0312 102.303V101.987Z" fill="black"/>
<path opacity="0.1" d="M58.6899 103.555H69.1653V103.871L58.6899 103.555Z" fill="black"/>
<path opacity="0.1" d="M58.6899 104.207H66.2838L58.6899 104.416V104.207Z" fill="black"/>
<path d="M112.057 106.194L112.475 104.615H129.687L137.613 105.404L137.914 106.194H112.057Z" fill="#263238"/>
<path opacity="0.4" d="M129.687 104.615V106.194H112.057L112.475 104.615H129.687Z" fill="black"/>
<path d="M75.0001 87.0856L78.769 104.146C78.8367 104.421 78.9935 104.665 79.2149 104.841C79.4364 105.017 79.71 105.115 79.993 105.119H92.177C92.3054 105.116 92.4315 105.083 92.5452 105.023C92.6589 104.964 92.7572 104.878 92.8323 104.774C92.9074 104.67 92.9573 104.55 92.9781 104.423C92.9989 104.297 92.99 104.167 92.9521 104.044L89.1883 87.1161C89.1118 86.8575 88.9482 86.6331 88.7252 86.481C88.5022 86.3288 88.2335 86.2581 87.9643 86.2809H75.7804C75.2245 86.2962 74.8777 86.5457 75.0001 87.0856Z" fill="#263238"/>
<path opacity="0.4" d="M75.6988 87.0856L79.4626 104.146C79.5303 104.421 79.6871 104.665 79.9085 104.841C80.13 105.017 80.4036 105.115 80.6866 105.119H92.1769C92.305 105.115 92.4305 105.082 92.5437 105.021C92.6568 104.961 92.7547 104.876 92.8296 104.772C92.9045 104.668 92.9545 104.549 92.9758 104.423C92.997 104.296 92.9889 104.167 92.9521 104.044L89.1883 87.1161C89.1118 86.8575 88.9482 86.6331 88.7252 86.481C88.5022 86.3288 88.2335 86.2581 87.9643 86.2809H76.4995C75.9232 86.2962 75.5764 86.5457 75.6988 87.0856Z" fill="white"/>
<path d="M80.7886 104.009V105.593C80.7886 105.995 81.268 106.163 81.6658 106.163H109.859C110.261 106.163 110.751 105.995 110.751 105.593V104.009H80.7886Z" fill="#263238"/>
<path opacity="0.2" d="M110.751 104.009V105.593C110.751 105.995 110.272 106.163 109.874 106.163H81.6862C81.2782 106.163 80.7886 105.995 80.7886 105.593V104.009H110.751Z" fill="white"/>
<path opacity="0.4" d="M110.751 104.009V105.593C110.751 105.995 110.272 106.163 109.874 106.163H96.8993C96.4913 106.163 96.0068 105.995 96.0068 105.593V104.009H110.751Z" fill="black"/>
<path d="M92.2688 102.756L88.8467 87.3912H76.3823L79.7738 102.756H92.2688Z" fill="#FF7229"/>
<path d="M126.23 97.0469C126.255 97.2397 126.238 97.4355 126.18 97.6211C126.123 97.8067 126.026 97.9778 125.896 98.1227C125.767 98.2677 125.607 98.383 125.429 98.461C125.251 98.539 125.058 98.5778 124.863 98.5747H98.4963C98.0812 98.5667 97.6835 98.4066 97.3788 98.1249C97.0742 97.8432 96.8838 97.4596 96.8439 97.0469L95.2782 80.1901C95.2579 80.0198 95.2682 79.8474 95.3088 79.6808C95.3836 79.3853 95.5564 79.1238 95.799 78.9388C96.0416 78.7539 96.3398 78.6564 96.645 78.6622H123.012C123.427 78.6703 123.825 78.8304 124.129 79.1121C124.434 79.3937 124.624 79.7774 124.664 80.1901L126.23 97.0469Z" fill="#263238"/>
<path opacity="0.4" d="M124.766 98.5594H98.4963C98.0812 98.5513 97.6835 98.3912 97.3788 98.1095C97.0742 97.8279 96.8838 97.4442 96.8439 97.0316L95.2782 80.1747C95.2579 80.0045 95.2682 79.832 95.3088 79.6654H121.584C121.998 79.6757 122.395 79.8365 122.699 80.1177C123.003 80.399 123.194 80.7814 123.236 81.1932L124.802 98.0501C124.821 98.2206 124.809 98.3931 124.766 98.5594Z" fill="black"/>
<path d="M106.651 88.2213H112.108L110.654 103.815L119.279 105.109V106.193H101.112V105.109L104.835 103.815L106.651 88.2213Z" fill="#263238"/>
<path opacity="0.1" d="M112.108 88.2213L108.068 105.949L104.835 105.852L106.651 88.2213H112.108Z" fill="white"/>
<path d="M93.9109 184.988H90.8917L85.4551 109.478H89.4688L93.9109 184.988Z" fill="#263238"/>
<path opacity="0.1" d="M93.916 184.988H90.8917L85.7254 113.226L85.4551 109.595H89.4688L89.683 113.226L93.916 184.988Z" fill="white"/>
<path opacity="0.2" d="M89.683 113.048H85.7254L85.4551 109.595H89.4688L89.683 113.048Z" fill="black"/>
<path d="M130.901 184.988H127.877L127.387 109.478H131.396L130.901 184.988Z" fill="#263238"/>
<path opacity="0.1" d="M131.396 109.595L131.319 121.782L130.906 184.988H127.877L127.464 121.782L127.387 109.595H131.396Z" fill="white"/>
<path opacity="0.2" d="M131.396 109.595L131.319 121.915H127.464L127.387 109.595H131.396Z" fill="black"/>
<path d="M162.995 184.988H159.976L154.54 109.478H158.553L162.995 184.988Z" fill="#263238"/>
<path opacity="0.1" d="M163 184.988H159.976L154.805 113.226L154.54 109.595H158.553L158.767 113.226L163 184.988Z" fill="white"/>
<path opacity="0.2" d="M158.767 113.048H154.805L154.54 109.595H158.553L158.767 113.048Z" fill="black"/>
<path d="M59.3278 184.988H56.3086L60.7507 109.478H64.7593L59.3278 184.988Z" fill="#263238"/>
<path opacity="0.1" d="M64.7593 109.595L64.4941 113.226L59.3278 184.988H56.3086L60.5314 113.226L60.7507 109.595H64.7593Z" fill="white"/>
<path opacity="0.2" d="M60.751 109.595H64.7596L64.4944 113.048H60.5317L60.751 109.595Z" fill="black"/>
<path d="M57.5734 107.584H161.731V110.263C161.731 110.554 161.615 110.834 161.408 111.04C161.201 111.247 160.921 111.363 160.629 111.363H58.6495C58.3573 111.363 58.0771 111.247 57.8705 111.04C57.6639 110.834 57.5479 110.554 57.5479 110.263V107.584H57.5734Z" fill="#FF7229"/>
<path opacity="0.4" d="M57.5734 107.584H161.731V110.263C161.731 110.554 161.615 110.834 161.408 111.04C161.201 111.247 160.921 111.363 160.629 111.363H58.6495C58.3573 111.363 58.0771 111.247 57.8705 111.04C57.6639 110.834 57.5479 110.554 57.5479 110.263V107.584H57.5734Z" fill="white"/>
<path opacity="0.2" d="M161.736 107.584H57.5732V109.473H161.736V107.584Z" fill="black"/>
<path d="M163.608 108.078H55.6968C55.4145 108.076 55.1441 107.964 54.9445 107.764C54.7449 107.565 54.6322 107.295 54.6309 107.013C54.6309 106.731 54.7432 106.46 54.9431 106.261C55.1429 106.061 55.4141 105.949 55.6968 105.949H163.608C163.89 105.949 164.161 106.061 164.361 106.261C164.561 106.46 164.674 106.731 164.674 107.013C164.672 107.295 164.559 107.565 164.36 107.764C164.16 107.964 163.89 108.076 163.608 108.078Z" fill="#FF7229"/>
<path opacity="0.4" d="M163.608 108.078H55.6968C55.4145 108.076 55.1441 107.964 54.9445 107.764C54.7449 107.565 54.6322 107.295 54.6309 107.013C54.6309 106.731 54.7432 106.46 54.9431 106.261C55.1429 106.061 55.4141 105.949 55.6968 105.949H163.608C163.89 105.949 164.161 106.061 164.361 106.261C164.561 106.46 164.674 106.731 164.674 107.013C164.672 107.295 164.559 107.565 164.36 107.764C164.16 107.964 163.89 108.076 163.608 108.078Z" fill="white"/>
<path d="M137.506 101.141V101.498L136.276 101.987H137.506V102.827H136.445L135.323 103.555H136.164L135.047 104.207H136.164V105.873L155.968 105.878V104.951L156.712 104.207H155.799V102.124H157.426V101.427H158.232V101.141H137.506Z" fill="#FF7229"/>
<path opacity="0.9" d="M137.506 101.141V101.498L136.276 101.987H137.506V102.827H136.445L135.323 103.555H136.164L135.047 104.207H136.164V105.873L155.968 105.878V104.951L156.712 104.207H155.799V102.124H157.426V101.427H158.232V101.141H137.506Z" fill="white"/>
<path opacity="0.1" d="M137.506 101.141V101.498L136.276 101.987H137.506V102.827H136.445L135.323 103.555H136.164L135.047 104.207H136.164V105.873L146.946 105.878V104.951L147.69 104.207H146.777V102.124H148.404V101.427H149.21V101.141H137.506Z" fill="black"/>
<path opacity="0.1" d="M155.799 102.124H146.777L146.742 102.756L155.799 102.124Z" fill="black"/>
<path opacity="0.1" d="M157.426 101.427H148.404L157.426 101.743V101.427Z" fill="black"/>
<path opacity="0.1" d="M155.8 104.207H146.778L155.8 103.871V104.207Z" fill="black"/>
<path opacity="0.1" d="M155.968 104.951H146.946V105.292L155.968 104.951Z" fill="black"/>
<path opacity="0.1" d="M137.506 101.498L146.778 101.427L137.506 101.218V101.498Z" fill="black"/>
<path opacity="0.1" d="M137.506 101.987H146.946L137.506 102.303V101.987Z" fill="black"/>
<path opacity="0.1" d="M136.165 103.555H146.64V103.871L136.165 103.555Z" fill="black"/>
<path opacity="0.1" d="M136.165 104.207H143.753L136.165 104.416V104.207Z" fill="black"/>
</svg>
