<svg width="524" height="499" viewBox="0 0 524 499" fill="none" xmlns="http://www.w3.org/2000/svg">
<g clip-path="url(#clip0_464_9315)">
<g opacity="0.5">
<path d="M499 -499C774.59 -499 998 -275.59 998 -4.3624e-05C998 275.59 774.59 499 499 499C223.41 499 -9.76556e-06 275.59 -2.1812e-05 0C-3.38584e-05 -275.59 223.41 -499 499 -499ZM499 479.04C763.566 479.04 978.04 264.566 978.04 -4.27515e-05C978.04 -264.567 763.566 -479.04 499 -479.04C234.433 -479.04 19.96 -264.566 19.96 -8.7248e-07C19.96 264.566 234.434 479.04 499 479.04Z" fill="#FF7229"/>
<path d="M499 -374.25C705.693 -374.25 873.25 -206.693 873.25 -3.2718e-05C873.25 206.693 705.693 374.25 499 374.25C292.307 374.25 124.75 206.693 124.75 0C124.75 -206.693 292.307 -374.25 499 -374.25ZM499 366.765C701.559 366.765 865.765 202.559 865.765 -3.23908e-05C865.765 -202.559 701.559 -366.765 499 -366.765C296.441 -366.765 132.235 -202.559 132.235 -3.27179e-07C132.235 202.559 296.441 366.765 499 366.765Z" fill="#FF7229"/>
<path d="M499 -244.51C636.795 -244.51 748.5 -132.805 748.5 4.99046C748.5 142.786 636.795 254.49 499 254.49C361.205 254.49 249.5 142.786 249.5 4.99048C249.5 -132.805 361.205 -244.51 499 -244.51ZM499 247.005C632.661 247.005 741.015 138.652 741.015 4.99046C741.015 -128.671 632.661 -237.025 499 -237.025C365.339 -237.025 256.985 -128.671 256.985 4.99048C256.985 138.652 365.339 247.005 499 247.005Z" fill="#FF7229"/>
</g>
</g>
<defs>
<clipPath id="clip0_464_9315">
<rect width="499" height="524" fill="white" transform="translate(0 499) rotate(-90)"/>
</clipPath>
</defs>
</svg>
