<svg width="442" height="998" viewBox="0 0 442 998" fill="none" xmlns="http://www.w3.org/2000/svg">
<g clip-path="url(#clip0_491_6174)">
<g opacity="0.3">
<mask id="path-1-inside-1_491_6174" fill="white">
<path d="M442 499C442 774.59 218.59 998 -57 998C-332.59 998 -556 774.59 -556 499C-556 223.41 -332.59 0 -57 0C218.59 0 442 223.41 442 499ZM-536.04 499C-536.04 763.566 -321.566 978.04 -57 978.04C207.566 978.04 422.04 763.566 422.04 499C422.04 234.434 207.566 19.96 -57 19.96C-321.566 19.96 -536.04 234.434 -536.04 499Z"/>
</mask>
<path d="M442 499C442 774.59 218.59 998 -57 998C-332.59 998 -556 774.59 -556 499C-556 223.41 -332.59 0 -57 0C218.59 0 442 223.41 442 499ZM-536.04 499C-536.04 763.566 -321.566 978.04 -57 978.04C207.566 978.04 422.04 763.566 422.04 499C422.04 234.434 207.566 19.96 -57 19.96C-321.566 19.96 -536.04 234.434 -536.04 499Z" stroke="#FF7229" stroke-width="6" stroke-dasharray="4 4" mask="url(#path-1-inside-1_491_6174)"/>
<mask id="path-2-inside-2_491_6174" fill="white">
<path d="M317.25 499C317.25 705.693 149.693 873.25 -57 873.25C-263.693 873.25 -431.25 705.693 -431.25 499C-431.25 292.307 -263.693 124.75 -57 124.75C149.693 124.75 317.25 292.307 317.25 499ZM-423.765 499C-423.765 701.559 -259.559 865.765 -57 865.765C145.559 865.765 309.765 701.559 309.765 499C309.765 296.441 145.559 132.235 -57 132.235C-259.559 132.235 -423.765 296.441 -423.765 499Z"/>
</mask>
<path d="M317.25 499C317.25 705.693 149.693 873.25 -57 873.25C-263.693 873.25 -431.25 705.693 -431.25 499C-431.25 292.307 -263.693 124.75 -57 124.75C149.693 124.75 317.25 292.307 317.25 499ZM-423.765 499C-423.765 701.559 -259.559 865.765 -57 865.765C145.559 865.765 309.765 701.559 309.765 499C309.765 296.441 145.559 132.235 -57 132.235C-259.559 132.235 -423.765 296.441 -423.765 499Z" stroke="#FF7229" stroke-width="6" stroke-dasharray="4 4" mask="url(#path-2-inside-2_491_6174)"/>
<mask id="path-3-inside-3_491_6174" fill="white">
<path d="M187.51 499C187.51 636.795 75.8048 748.5 -61.9902 748.5C-199.785 748.5 -311.49 636.795 -311.49 499C-311.49 361.205 -199.785 249.5 -61.9902 249.5C75.8048 249.5 187.51 361.205 187.51 499ZM-304.005 499C-304.005 632.661 -195.651 741.015 -61.9902 741.015C71.671 741.015 180.025 632.661 180.025 499C180.025 365.339 71.671 256.985 -61.9902 256.985C-195.651 256.985 -304.005 365.339 -304.005 499Z"/>
</mask>
<path d="M187.51 499C187.51 636.795 75.8048 748.5 -61.9902 748.5C-199.785 748.5 -311.49 636.795 -311.49 499C-311.49 361.205 -199.785 249.5 -61.9902 249.5C75.8048 249.5 187.51 361.205 187.51 499ZM-304.005 499C-304.005 632.661 -195.651 741.015 -61.9902 741.015C71.671 741.015 180.025 632.661 180.025 499C180.025 365.339 71.671 256.985 -61.9902 256.985C-195.651 256.985 -304.005 365.339 -304.005 499Z" stroke="#FF7229" stroke-width="6" stroke-dasharray="4 4" mask="url(#path-3-inside-3_491_6174)"/>
</g>
</g>
<defs>
<clipPath id="clip0_491_6174">
<rect width="442" height="998" fill="white"/>
</clipPath>
</defs>
</svg>
