<svg width="344" height="344" viewBox="0 0 344 344" fill="none" xmlns="http://www.w3.org/2000/svg">
<g clip-path="url(#clip0_651_9250)">
<g opacity="0.3">
<mask id="path-1-inside-1_651_9250" fill="white">
<path d="M608 44C608 211.895 471.895 348 304 348C136.105 348 0 211.895 0 44C0 -123.895 136.105 -260 304 -260C471.895 -260 608 -123.895 608 44ZM12.16 44C12.16 205.179 142.821 335.84 304 335.84C465.179 335.84 595.84 205.179 595.84 44C595.84 -117.179 465.179 -247.84 304 -247.84C142.821 -247.84 12.16 -117.179 12.16 44Z"/>
</mask>
<path d="M608 44C608 211.895 471.895 348 304 348C136.105 348 0 211.895 0 44C0 -123.895 136.105 -260 304 -260C471.895 -260 608 -123.895 608 44ZM12.16 44C12.16 205.179 142.821 335.84 304 335.84C465.179 335.84 595.84 205.179 595.84 44C595.84 -117.179 465.179 -247.84 304 -247.84C142.821 -247.84 12.16 -117.179 12.16 44Z" stroke="#FF7229" stroke-width="8" stroke-dasharray="8 8" mask="url(#path-1-inside-1_651_9250)"/>
<mask id="path-2-inside-2_651_9250" fill="white">
<path d="M532 44C532 169.921 429.921 272 304 272C178.079 272 76 169.921 76 44C76 -81.9209 178.079 -184 304 -184C429.921 -184 532 -81.9209 532 44ZM80.56 44C80.56 167.402 180.597 267.44 304 267.44C427.402 267.44 527.44 167.402 527.44 44C527.44 -79.4025 427.402 -179.44 304 -179.44C180.597 -179.44 80.56 -79.4025 80.56 44Z"/>
</mask>
<path d="M532 44C532 169.921 429.921 272 304 272C178.079 272 76 169.921 76 44C76 -81.9209 178.079 -184 304 -184C429.921 -184 532 -81.9209 532 44ZM80.56 44C80.56 167.402 180.597 267.44 304 267.44C427.402 267.44 527.44 167.402 527.44 44C527.44 -79.4025 427.402 -179.44 304 -179.44C180.597 -179.44 80.56 -79.4025 80.56 44Z" stroke="#FF7229" stroke-width="8" stroke-dasharray="8 8" mask="url(#path-2-inside-2_651_9250)"/>
<mask id="path-3-inside-3_651_9250" fill="white">
<path d="M452.96 44C452.96 127.947 384.907 196 300.96 196C217.013 196 148.96 127.947 148.96 44C148.96 -39.9473 217.013 -108 300.96 -108C384.907 -108 452.96 -39.9473 452.96 44ZM153.52 44C153.52 125.429 219.531 191.44 300.96 191.44C382.389 191.44 448.4 125.429 448.4 44C448.4 -37.4289 382.389 -103.44 300.96 -103.44C219.531 -103.44 153.52 -37.4289 153.52 44Z"/>
</mask>
<path d="M452.96 44C452.96 127.947 384.907 196 300.96 196C217.013 196 148.96 127.947 148.96 44C148.96 -39.9473 217.013 -108 300.96 -108C384.907 -108 452.96 -39.9473 452.96 44ZM153.52 44C153.52 125.429 219.531 191.44 300.96 191.44C382.389 191.44 448.4 125.429 448.4 44C448.4 -37.4289 382.389 -103.44 300.96 -103.44C219.531 -103.44 153.52 -37.4289 153.52 44Z" stroke="#FF7229" stroke-width="8" stroke-dasharray="8 8" mask="url(#path-3-inside-3_651_9250)"/>
</g>
</g>
<defs>
<clipPath id="clip0_651_9250">
<rect width="344" height="344" fill="white"/>
</clipPath>
</defs>
</svg>
