<svg width="963" height="365" viewBox="0 0 963 365" fill="none" xmlns="http://www.w3.org/2000/svg">
<g clip-path="url(#clip0_651_9276)">
<g opacity="0.3">
<mask id="path-1-inside-1_651_9276" fill="white">
<path d="M963 481.5C963 747.425 747.425 963 481.5 963C215.575 963 0 747.425 0 481.5C0 215.575 215.575 0 481.5 0C747.425 0 963 215.575 963 481.5ZM19.26 481.5C19.26 736.788 226.212 943.74 481.5 943.74C736.788 943.74 943.74 736.788 943.74 481.5C943.74 226.212 736.788 19.26 481.5 19.26C226.212 19.26 19.26 226.212 19.26 481.5Z"/>
</mask>
<path d="M963 481.5C963 747.425 747.425 963 481.5 963C215.575 963 0 747.425 0 481.5C0 215.575 215.575 0 481.5 0C747.425 0 963 215.575 963 481.5ZM19.26 481.5C19.26 736.788 226.212 943.74 481.5 943.74C736.788 943.74 943.74 736.788 943.74 481.5C943.74 226.212 736.788 19.26 481.5 19.26C226.212 19.26 19.26 226.212 19.26 481.5Z" stroke="#FF7229" stroke-width="8" stroke-dasharray="8 8" mask="url(#path-1-inside-1_651_9276)"/>
<mask id="path-2-inside-2_651_9276" fill="white">
<path d="M842.625 481.5C842.625 680.944 680.944 842.625 481.5 842.625C282.056 842.625 120.375 680.944 120.375 481.5C120.375 282.056 282.056 120.375 481.5 120.375C680.944 120.375 842.625 282.056 842.625 481.5ZM127.598 481.5C127.598 676.955 286.045 835.402 481.5 835.402C676.955 835.402 835.402 676.955 835.402 481.5C835.402 286.045 676.955 127.598 481.5 127.598C286.045 127.598 127.598 286.045 127.598 481.5Z"/>
</mask>
<path d="M842.625 481.5C842.625 680.944 680.944 842.625 481.5 842.625C282.056 842.625 120.375 680.944 120.375 481.5C120.375 282.056 282.056 120.375 481.5 120.375C680.944 120.375 842.625 282.056 842.625 481.5ZM127.598 481.5C127.598 676.955 286.045 835.402 481.5 835.402C676.955 835.402 835.402 676.955 835.402 481.5C835.402 286.045 676.955 127.598 481.5 127.598C286.045 127.598 127.598 286.045 127.598 481.5Z" stroke="#FF7229" stroke-width="8" stroke-dasharray="8 8" mask="url(#path-2-inside-2_651_9276)"/>
<mask id="path-3-inside-3_651_9276" fill="white">
<path d="M717.435 481.5C717.435 614.463 609.647 722.25 476.685 722.25C343.722 722.25 235.935 614.463 235.935 481.5C235.935 348.537 343.722 240.75 476.685 240.75C609.647 240.75 717.435 348.537 717.435 481.5ZM243.157 481.5C243.157 610.474 347.711 715.028 476.685 715.028C605.658 715.028 710.212 610.474 710.212 481.5C710.212 352.526 605.658 247.972 476.685 247.972C347.711 247.972 243.157 352.526 243.157 481.5Z"/>
</mask>
<path d="M717.435 481.5C717.435 614.463 609.647 722.25 476.685 722.25C343.722 722.25 235.935 614.463 235.935 481.5C235.935 348.537 343.722 240.75 476.685 240.75C609.647 240.75 717.435 348.537 717.435 481.5ZM243.157 481.5C243.157 610.474 347.711 715.028 476.685 715.028C605.658 715.028 710.212 610.474 710.212 481.5C710.212 352.526 605.658 247.972 476.685 247.972C347.711 247.972 243.157 352.526 243.157 481.5Z" stroke="#FF7229" stroke-width="8" stroke-dasharray="8 8" mask="url(#path-3-inside-3_651_9276)"/>
</g>
</g>
<defs>
<clipPath id="clip0_651_9276">
<rect width="963" height="365" fill="white"/>
</clipPath>
</defs>
</svg>
