<svg width="300" height="300" viewBox="0 0 300 300" fill="none" xmlns="http://www.w3.org/2000/svg">
<rect width="300" height="300" fill="white"/>
<path d="M79.0599 104.17C79.0599 104.17 118.8 111.91 114.55 87.57C110.3 63.23 80.4199 78.85 78.7199 84.46C78.7199 84.46 45.3599 80.55 46.8899 104.72C48.0599 123.23 51.5099 124.77 51.9099 132.04C52.3799 140.51 53.9099 146.3 50.2899 153.91C45.9399 163.08 45.3099 172.68 52.7999 171.36C57.3299 170.56 53.8199 162.42 69.0099 152.59C75.8799 148.14 77.1799 151.82 80.5799 156.63C83.4199 160.64 94.0299 169.74 96.5799 163.1C96.5799 163.1 92.9599 156.55 95.6899 156.55C98.4199 156.55 96.4599 147.49 96.4599 147.49L95.8199 143.66C95.8199 143.66 91.6499 144.89 84.8399 141.32C78.0299 137.75 77.5199 137.23 75.8199 131.79C74.1199 126.35 72.3299 126.68 72.3299 126.68C72.3299 126.68 66.4499 128.01 64.5399 123.49C62.1099 117.75 69.2499 114.39 72.0699 118C76.6799 123.87 69.9999 108.38 79.0599 104.17Z" fill="black"/>
<path d="M107.91 192.55C107.91 192.55 101.59 190.64 105.42 182.91C112.76 183.48 118.38 185.53 121.89 176.59C127.32 183.04 131.46 188.33 111.55 193.38" stroke="black" stroke-miterlimit="10" stroke-linecap="round" stroke-linejoin="round"/>
<path d="M106.77 153.68L120.74 178.32" stroke="black" stroke-miterlimit="10" stroke-linecap="round" stroke-linejoin="round"/>
<path d="M104.85 151C103.98 142.96 108.32 138.77 108.23 133.32C107.4 124.64 104.03 121.83 102.44 121.83C101.76 121.83 102.83 127.29 102.85 130.3C103.13 133.24 101.34 134.85 101.34 134.85C101.34 134.85 91.1899 141.62 97.5699 156.94C103.95 172.26 105.93 181.83 105.93 181.83" stroke="black" stroke-miterlimit="10" stroke-linecap="round"/>
<path d="M102.28 132.54C102.28 132.54 102.65 127.95 102.19 122.55C101.54 114.87 100.19 105.49 91.8298 105.55C79.2298 105.65 82.3798 103.85 78.9398 104.4C75.4998 104.95 72.5098 112.1 73.5398 119.42C73.1798 118.91 72.1898 117.63 70.3898 117.04C69.8298 116.85 67.1698 116.27 65.6098 117.02C61.6098 118.95 61.6998 124.66 67.1398 126.88C69.4398 127.82 72.1498 127.17 72.1798 127.17C72.6198 128.98 73.8698 131.02 75.5698 133.72C77.7998 137.26 80.4898 139.43 82.2098 140.61C83.5498 141.5 85.6798 142.69 88.5098 143.42C91.3498 144.16 94.5198 145.66 95.1898 144.2C95.8598 142.75 96.0998 140.43 97.9598 137.72C99.2198 135.89 102.2 133.67 102.28 132.54Z" stroke="black" stroke-miterlimit="10"/>
<path d="M96.64 109.57C96.64 109.57 91.7 105.4 88.3 110.59C84.9 115.78 91.02 126.5 96.04 127.36" stroke="black" stroke-miterlimit="10" stroke-linecap="round" stroke-linejoin="round"/>
<path d="M91.1099 118.68C91.1099 118.68 93.1499 106.77 96.9799 118.42" stroke="black" stroke-miterlimit="10" stroke-linecap="round" stroke-linejoin="round"/>
<path d="M81.7396 121.57C81.7396 121.57 81.2296 109.74 86.8496 120.12" stroke="black" stroke-miterlimit="10" stroke-linecap="round" stroke-linejoin="round"/>
<path d="M76.6396 113.32C76.6396 113.32 77.7497 108.3 84.7297 110.68" stroke="black" stroke-miterlimit="10" stroke-linecap="round" stroke-linejoin="round"/>
<path d="M91.7896 132.81C91.7896 132.81 93.2396 136.38 97.1496 132.55" stroke="black" stroke-miterlimit="10" stroke-linecap="round" stroke-linejoin="round"/>
<path d="M107.4 195.55C107.4 195.55 107.14 203.27 110.59 205.12" stroke="black" stroke-miterlimit="10" stroke-linecap="round" stroke-linejoin="round"/>
<path d="M125.15 187.77C125.15 187.77 138.68 209.66 116.6 210.75" stroke="black" stroke-miterlimit="10" stroke-linecap="round" stroke-linejoin="round"/>
<path d="M53.1498 171.55L43.8898 198.1C43.8898 198.1 37.7598 215.91 45.0398 220.12" stroke="black" stroke-miterlimit="10" stroke-linecap="round" stroke-linejoin="round"/>
<path d="M64.3798 189.04C64.3798 189.04 58.0598 195.81 58.3198 201.93" stroke="black" stroke-miterlimit="10" stroke-linecap="round" stroke-linejoin="round"/>
<path d="M57.2998 208.89L65.8498 209.53" stroke="black" stroke-miterlimit="10" stroke-linecap="round" stroke-linejoin="round"/>
<path d="M75.5497 209.47C75.5497 209.47 73.2497 205.19 69.1697 207.49C65.0797 209.79 61.2597 215.6 61.8897 220C62.5197 224.4 69.8697 222.36 70.2497 220.45C70.6297 218.54 70.5097 210.11 76.3797 210.75" stroke="black" stroke-miterlimit="10" stroke-linecap="round" stroke-linejoin="round"/>
<path d="M97.6397 174.39C96.9797 173.65 95.9397 173.4 95.0497 173.75C94.2897 174.06 93.7597 174.77 93.6497 175.6C93.6297 175.7 93.3897 176.71 94.0997 177.55C94.7897 178.36 95.7797 178.32 95.8897 178.32C96.0397 178.31 96.8097 178.27 97.3897 177.62C98.0597 176.87 97.9197 175.95 97.8997 175.83" stroke="black" stroke-miterlimit="10" stroke-linecap="round" stroke-linejoin="round"/>
<path d="M97.5097 183.07C96.7397 182.93 95.9497 183.21 95.4697 183.8C95.0497 184.32 94.8197 185.13 95.1497 185.87C95.1697 185.92 95.6197 186.87 96.6497 186.99C97.6297 187.1 98.2597 186.35 98.3397 186.26C98.9097 185.55 98.7797 184.73 98.7497 184.6" stroke="black" stroke-miterlimit="10" stroke-linecap="round" stroke-linejoin="round"/>
<path d="M75.9102 210.84C75.9102 210.84 89.0002 215.05 94.8702 213.27C100.74 211.49 106.61 212.44 106.61 212.44C107.82 212.95 109.15 213.58 110.55 214.37C111.78 215.07 112.88 215.79 113.84 216.48C114.7 217.02 115.09 217.85 114.87 218.4C114.86 218.42 114.69 218.83 114.27 218.95C113.69 219.12 113.08 218.6 112.79 218.36C110.73 216.67 108.03 215.16 105.85 214.48C104.45 214.5 103.04 214.52 101.64 214.54" stroke="black" stroke-miterlimit="10" stroke-linecap="round" stroke-linejoin="round"/>
<path d="M101.96 217.04C102.91 216.95 103.93 216.91 105 216.94C105.25 216.95 105.5 216.96 105.74 216.97C106.09 217.06 106.36 217.16 106.53 217.23C108.6 218.04 110.27 219.24 110.97 219.77C110.97 219.77 111.7 220.26 111.71 220.27C112.31 220.56 112.75 220.65 112.75 220.65C113.1 220.68 113.49 220.59 113.64 220.07C113.75 219.72 113.6 219 113.34 218.74" stroke="black" stroke-miterlimit="10" stroke-linecap="round" stroke-linejoin="round"/>
<path d="M111.93 220.61C111.99 220.7 112.33 221.21 112.09 221.77C111.96 222.08 111.72 222.26 111.63 222.32C111.24 222.6 110.81 222.65 110.59 222.67C110.05 222.72 109.64 222.59 109.24 222.46C108.91 222.35 108.74 222.26 107.98 221.86C107.6 221.66 107.22 221.47 106.84 221.27C106.14 220.9 104.99 220.59 103.07 220.91C102.12 221.3 101.01 221.68 99.7701 221.99C99.2801 222.11 98.8001 222.22 98.3501 222.3C97.1101 222.2 95.8601 222.12 94.6001 222.04C85.3001 221.48 76.4501 221.58 68.1401 222.13" stroke="black" stroke-miterlimit="10" stroke-linecap="round" stroke-linejoin="round"/>
<path d="M116.64 219.87H131.28" stroke="black" stroke-miterlimit="10" stroke-linecap="round" stroke-linejoin="round"/>
<path d="M38.6001 220.98H61.4901" stroke="black" stroke-miterlimit="10" stroke-linecap="round" stroke-linejoin="round"/>
<path d="M160.3 220.21H207.7" stroke="black" stroke-miterlimit="10" stroke-linecap="round" stroke-linejoin="round"/>
<path d="M221.23 220.13H258.6" stroke="black" stroke-miterlimit="10" stroke-linecap="round" stroke-linejoin="round"/>
<path d="M150.45 220.96C150.45 220.96 153.45 221.41 153.28 218.13C153.11 214.85 148.83 215.36 148.83 215.36V227.98C148.83 227.98 148.68 235.41 141.74 235.07C134.8 234.73 135.48 227.58 135.48 227.58V215.62C135.48 215.62 143.31 219.28 145.31 215.45" stroke="black" stroke-miterlimit="10" stroke-linecap="round" stroke-linejoin="round"/>
<path d="M142.85 214.77C142.85 214.77 143.66 213.58 142.76 212.43C141.87 211.28 140.25 211.03 140.25 209.62C140.25 208.21 143.78 208.22 143.91 206.17C144.04 204.13 142.21 203.87 142 202.47" stroke="black" stroke-miterlimit="10" stroke-linecap="round" stroke-linejoin="round"/>
<path d="M136.38 232.43C136.38 232.43 127.57 234.94 141.74 235.07L136.38 232.43Z" fill="black"/>
<path d="M136.38 232.43C136.38 232.43 127.57 234.94 141.74 235.07" stroke="black" stroke-miterlimit="10" stroke-linecap="round" stroke-linejoin="round"/>
<path d="M201.23 106.38C201.23 106.38 195.87 112.64 191.78 112.51C187.69 112.38 176.59 102.3 191.14 86.21C205.69 70.12 225.23 86.08 225.23 86.08C225.23 86.08 228.43 84.11 232.97 84.47C244.67 85.39 251.36 102.1 253.69 107.91C255.68 112.87 257.37 117.21 256.97 123.19C256.79 125.92 255.9 133.08 250.33 139.53C246.66 143.79 242.52 145.91 240.2 146.89C238.82 147.35 230.3 150.06 223.22 145.27C221.2 143.91 219.8 142.27 218.84 140.84C220.93 137.18 223.01 133.52 225.1 129.86C228.84 131.85 233.09 131.09 235.19 128.46C237.29 125.82 237.38 121.1 234.98 119.69C233.01 118.54 229.38 119.61 227.15 122.97C226.45 122.03 224.93 119.71 224.68 116.37C224.38 112.35 226.12 109.43 226.72 108.5C225.77 109.83 223.91 112.03 220.85 113.65C219.02 114.61 217.32 115.08 216.04 115.31C215.39 114.35 214.51 112.78 214.04 110.67C213.39 107.73 213.9 105.3 214.25 104.07C213.49 105.4 212.03 107.54 209.48 109.3C208.09 110.26 206.76 110.85 205.69 111.21C205.15 111.07 203.95 110.68 202.88 109.59C201.65 108.36 201.33 106.92 201.23 106.38Z" fill="black" stroke="black" stroke-miterlimit="10" stroke-linecap="round" stroke-linejoin="round"/>
<path d="M191.79 122.94L192.13 133.83C192.13 133.83 178.68 135.19 191.79 122.94Z" fill="black" stroke="black" stroke-miterlimit="10" stroke-linecap="round" stroke-linejoin="round"/>
<path d="M192.81 115.11C192.81 115.11 189.83 141.07 199.53 145.15C209.23 149.24 218.76 140.55 218.76 140.55" stroke="black" stroke-miterlimit="10" stroke-linecap="round" stroke-linejoin="round"/>
<path d="M198.51 135.87C198.51 135.87 200.47 138.76 203.11 134.85" stroke="black" stroke-miterlimit="10" stroke-linecap="round" stroke-linejoin="round"/>
<path d="M196.38 129.83C196.38 129.83 215.19 115.11 198.51 110.43" stroke="black" stroke-miterlimit="10" stroke-linecap="round" stroke-linejoin="round"/>
<path d="M210.94 113.06C210.94 113.06 217.49 110.17 219.37 116.72" stroke="black" stroke-miterlimit="10" stroke-linecap="round" stroke-linejoin="round"/>
<path d="M207.87 119.28C207.87 119.28 203.78 130.51 213.4 122.34" stroke="black" stroke-miterlimit="10" stroke-linecap="round" stroke-linejoin="round"/>
<path d="M196.38 115.45C196.38 115.45 195.02 127.88 203.1 117.92" stroke="black" stroke-miterlimit="10" stroke-linecap="round" stroke-linejoin="round"/>
<path d="M197.74 155.62C197.74 155.62 192.29 165.41 197.31 168.47C202.33 171.53 214.08 156.47 214.08 156.47" stroke="black" stroke-miterlimit="10" stroke-linecap="round" stroke-linejoin="round"/>
<path d="M216.04 154.85C216.04 154.85 226.68 151.45 233.91 158.51C241.14 165.57 249.31 186.77 250.25 195.28C251.19 203.79 255.1 220.56 235.95 219.62" stroke="black" stroke-miterlimit="10" stroke-linecap="round" stroke-linejoin="round"/>
<path d="M193.49 159.02C193.49 159.02 187.28 167.11 187.28 172.13" stroke="black" stroke-miterlimit="10" stroke-linecap="round" stroke-linejoin="round"/>
<path d="M203.36 178.34L220.47 194.77" stroke="black" stroke-miterlimit="10" stroke-linecap="round" stroke-linejoin="round"/>
<path d="M215.11 193.23C215.11 193.23 218.26 187.36 219.88 187.36" stroke="black" stroke-miterlimit="10" stroke-linecap="round" stroke-linejoin="round"/>
<path d="M204.72 183.79C204.72 183.79 209.15 176.9 211.44 176.81" stroke="black" stroke-miterlimit="10" stroke-linecap="round" stroke-linejoin="round"/>
<path d="M226.68 166.09C226.68 166.09 237.49 175.11 239.02 178.43" stroke="black" stroke-miterlimit="10" stroke-linecap="round" stroke-linejoin="round"/>
<path d="M225.66 170.68C225.66 170.68 229.06 165.91 232.04 166.25" stroke="black" stroke-miterlimit="10" stroke-linecap="round" stroke-linejoin="round"/>
<path d="M232.47 178.51L236.38 173.91" stroke="black" stroke-miterlimit="10" stroke-linecap="round" stroke-linejoin="round"/>
<path d="M244.81 201.57C244.81 201.57 243.11 214 235.62 214.51" stroke="black" stroke-miterlimit="10" stroke-linecap="round" stroke-linejoin="round"/>
<path d="M236.81 210.17C236.81 210.17 241.07 215.53 243.62 213.66" stroke="black" stroke-miterlimit="10" stroke-linecap="round" stroke-linejoin="round"/>
<path d="M231.11 191.36L235.7 202.68" stroke="black" stroke-miterlimit="10" stroke-linecap="round" stroke-linejoin="round"/>
<path d="M215.53 206.85C215.53 206.85 235.1 201.57 240.21 202.25" stroke="black" stroke-miterlimit="10" stroke-linecap="round" stroke-linejoin="round"/>
<path d="M203.6 207.2C203.6 207.2 207.37 198.72 215.79 209.66C221.53 217.12 217.15 219.7 211.96 221.15" stroke="black" stroke-miterlimit="10" stroke-linecap="round" stroke-linejoin="round"/>
<path d="M203.45 207.53C203.45 207.53 208.56 211.49 207.88 219.91" stroke="black" stroke-miterlimit="10" stroke-linecap="round" stroke-linejoin="round"/>
<path d="M203.12 207.71C203.12 207.71 197.24 211.1 193.66 210.93C193.66 210.93 192.98 205.31 190.43 204.8C190.43 204.8 190.86 208.89 184.22 209.57C177.58 210.25 171.88 205.48 171.88 205.48C171.88 205.48 170.69 209.14 173.33 209.99C175.97 210.84 177.76 211.27 177.76 211.27" stroke="black" stroke-miterlimit="10" stroke-linecap="round" stroke-linejoin="round"/>
<path d="M171.45 209.49C171.45 209.49 167.85 212.34 179.65 215.2" stroke="black" stroke-miterlimit="10" stroke-linecap="round" stroke-linejoin="round"/>
<path d="M171.87 212.72C171.87 212.72 168.76 215.93 179.66 217.89" stroke="black" stroke-miterlimit="10" stroke-linecap="round" stroke-linejoin="round"/>
<path d="M173.6 216.14C172.74 218.02 174.2 219.58 178.04 220.19" stroke="black" stroke-miterlimit="10" stroke-linecap="round" stroke-linejoin="round"/>
<path d="M172.3 205.4V200.46C172.3 200.46 179.87 205.23 189.92 201.14V205.74" stroke="black" stroke-miterlimit="10" stroke-linecap="round" stroke-linejoin="round"/>
<path d="M172.45 200.38C178.12 198.67 183.3 198.42 189.77 201.04" stroke="black" stroke-miterlimit="10" stroke-linecap="round" stroke-linejoin="round"/>
<path d="M179.02 197.13C179.02 197.13 178.41 194.57 180.04 193.15C181.28 192.07 185.59 190.03 181.91 187.02C177.11 183.1 178.85 180.96 178.85 180.96" stroke="black" stroke-miterlimit="10" stroke-linecap="round" stroke-linejoin="round"/>
</svg>
