<svg width="400" height="400" viewBox="0 0 400 400" fill="none" xmlns="http://www.w3.org/2000/svg">
<rect width="400" height="400" fill="#FCEAE2"/>
<path d="M28.7832 250.6C40.8196 267.295 51.3866 271.593 56.3262 272.953C58.2176 273.469 62.4538 274.642 63.7043 272.953C65.5332 270.484 59.9058 263.434 57.311 260.386" stroke="black" stroke-width="3" stroke-miterlimit="10" stroke-linecap="round" stroke-linejoin="round"/>
<path d="M16.029 285.443C15.8883 281.488 16.1697 275.048 18.9052 267.748C21.0468 262.043 23.9386 257.822 26.174 255.071" stroke="black" stroke-width="3" stroke-miterlimit="10" stroke-linecap="round" stroke-linejoin="round"/>
<path d="M63.7061 278.94C63.9093 282.426 63.7842 289.179 60.1108 296.307C58.36 299.699 56.281 302.263 54.5303 304.092" stroke="black" stroke-width="3" stroke-miterlimit="10" stroke-linecap="round" stroke-linejoin="round"/>
<path d="M46.1504 267.967C58.0461 274.157 60.6878 274.298 61.1724 273.61C61.6414 272.938 61.2193 269.733 52.4031 261.855" fill="black"/>
<path d="M46.1504 267.967C58.0461 274.157 60.6878 274.298 61.1724 273.61C61.6414 272.938 61.2193 269.733 52.4031 261.855" stroke="black" stroke-width="3" stroke-miterlimit="10" stroke-linecap="round" stroke-linejoin="round"/>
<path d="M45.8536 287.725C48.4435 287.725 50.5431 285.626 50.5431 283.036C50.5431 280.446 48.4435 278.346 45.8536 278.346C43.2636 278.346 41.1641 280.446 41.1641 283.036C41.1641 285.626 43.2636 287.725 45.8536 287.725Z" fill="#666666"/>
<path d="M29.6448 289.82C31.3283 289.82 32.693 288.455 32.693 286.772C32.693 285.088 31.3283 283.724 29.6448 283.724C27.9614 283.724 26.5967 285.088 26.5967 286.772C26.5967 288.455 27.9614 289.82 29.6448 289.82Z" fill="#666666"/>
<path d="M20.7969 267.342C20.5937 266.951 20.625 266.529 22.2663 263.09C23.3292 260.87 23.5325 260.573 23.9545 260.448C25.1269 260.12 26.7369 261.605 27.2841 263.168C27.3778 263.418 28.0031 265.294 26.8307 266.842C25.9397 268.03 24.5954 268.233 24.1577 268.295C23.2042 268.42 21.344 268.374 20.7969 267.342Z" fill="#B3B3B3"/>
<path d="M59.7671 294.509C60.6113 292.337 60.7207 292.024 60.8457 291.649C61.5023 289.742 61.4866 289.585 61.4241 289.398C61.0958 288.429 59.5796 287.866 58.329 288.069C56.4689 288.382 55.7029 290.336 55.6248 290.586C55.5622 290.758 54.9682 292.462 55.9218 294.04C56.6877 295.291 58.2978 296.244 59.1106 295.791C59.3138 295.697 59.4701 295.291 59.7671 294.509Z" fill="#B3B3B3"/>
<path d="M385 238.236C381.733 234.922 377.512 231.201 372.229 227.653C363.709 221.963 355.581 218.837 349.485 217.07C344.264 230.326 337.151 238.001 332.321 242.222C328.757 245.348 322.895 250.475 319.55 248.615C316.877 247.13 316.439 241.518 318.159 234.844" stroke="black" stroke-width="3" stroke-miterlimit="10" stroke-linecap="round" stroke-linejoin="round"/>
<path d="M322.737 252.601C326.286 255.79 330.647 259.198 335.915 262.386C347.701 269.53 359.018 272.578 367.037 273.954" stroke="black" stroke-width="3" stroke-miterlimit="10" stroke-linecap="round" stroke-linejoin="round"/>
<path d="M335.306 254.993C338.198 254.039 343.247 251.96 348.077 247.411C353.642 242.19 356.049 236.407 357.049 233.437" stroke="black" stroke-width="3" stroke-miterlimit="10" stroke-linecap="round" stroke-linejoin="round"/>
<path d="M327.194 227.528C321.082 239.736 318.925 246.489 320.738 247.818C322.286 248.943 326.741 246.083 334.104 239.236" fill="black"/>
<path d="M327.194 227.528C321.082 239.736 318.925 246.489 320.738 247.818C322.286 248.943 326.741 246.083 334.104 239.236" stroke="black" stroke-width="3" stroke-miterlimit="10" stroke-linecap="round" stroke-linejoin="round"/>
<path d="M344.546 216.883C340.122 213.772 333.479 208.535 326.992 200.657C319.004 190.95 318.566 186.12 310.766 178.569C305.467 173.458 299.011 167.127 288.944 165.798C283.192 165.032 276.689 167.596 263.668 172.723C262.98 172.989 257.947 175.037 256.212 178.835C255.962 179.382 255.43 180.617 255.946 181.633C256.477 182.665 257.869 182.962 258.869 183.103C263.902 183.759 269.514 181.524 274.829 181.242C276.72 181.133 282.238 180.836 286.803 184.166C291.32 187.464 294.15 193.763 292.383 195.874C291.102 197.406 287.6 196.452 285.99 196.014C278.753 194.029 277.174 188.871 268.295 184.978C265.184 183.618 263.512 183.431 262.714 184.181C261.651 185.166 262.339 187.495 262.714 188.699C264.09 193.185 267.06 195.936 272.828 201.345C279.565 207.66 279.206 207.379 279.487 207.597C282.739 210.224 288.726 214.929 297.448 217.305C301.903 218.524 305.733 218.649 313.408 218.899C318.535 219.071 322.787 218.93 325.773 218.758" stroke="black" stroke-width="3" stroke-miterlimit="10" stroke-linecap="round" stroke-linejoin="round"/>
<path d="M323.725 224.401C325.741 225.824 328.711 228.325 331.181 232.248C332.65 234.609 333.557 236.844 334.104 238.642" stroke="black" stroke-width="3" stroke-miterlimit="10" stroke-linecap="round" stroke-linejoin="round"/>
<path d="M30.3809 249.209C41.8858 227.715 53.7815 212.099 62.7071 201.72C72.4144 190.418 79.4487 184.306 89.2497 182.962C97.769 181.805 105.069 184.697 109.399 186.948" stroke="black" stroke-width="3" stroke-miterlimit="10" stroke-linecap="round" stroke-linejoin="round"/>
<path d="M108.805 187.339L86.0605 205.503" stroke="black" stroke-width="3" stroke-miterlimit="10" stroke-linecap="round" stroke-linejoin="round"/>
<path d="M82.4673 205.299C90.0643 211.052 95.5198 211.615 99.2245 210.88C104.383 209.864 108.385 205.909 114.59 207.081C116.607 207.472 118.17 208.269 119.186 208.879C119.624 209.457 120.327 210.583 120.187 211.865C119.655 216.836 107.619 216.007 95.848 224.042C88.1572 229.278 88.7981 232.686 81.2793 236.813C74.4639 240.549 67.6016 241.221 62.9277 241.205" stroke="black" stroke-width="3" stroke-miterlimit="10" stroke-linecap="round" stroke-linejoin="round"/>
<path d="M58.1263 251.006C54.828 256.462 51.5141 261.917 48.2158 267.373" stroke="black" stroke-width="3" stroke-miterlimit="10" stroke-linecap="round" stroke-linejoin="round"/>
<path d="M247.098 203.581C243.299 207.442 238.312 205.441 238.312 205.441L244.628 197.984" stroke="black" stroke-width="3" stroke-miterlimit="10" stroke-linecap="round" stroke-linejoin="round"/>
<path d="M265.463 194.326L250.941 203.236L244.829 196.78C250.66 192.638 256.24 189.293 262.071 185.135C262.071 186.213 262.196 187.667 262.712 189.324C263.446 191.7 264.634 193.357 265.463 194.326Z" fill="#FCEAE2" stroke="black" stroke-width="3" stroke-miterlimit="10" stroke-linecap="round" stroke-linejoin="round"/>
<path d="M106.412 239.502C110.82 239.033 117.307 237.751 124.107 233.922C138.785 225.652 144.194 211.615 145.663 207.316C142.115 221.948 138.566 236.579 135.018 251.226C125.483 247.302 115.947 243.394 106.412 239.502Z" fill="#999999"/>
<path d="M267.059 182.853C286.911 170.66 294.555 164.173 299.447 161.218C300.995 160.281 309.233 155.325 309.233 155.294C309.233 155.294 313.313 154.763 315.22 156.154C316.236 156.904 317.189 158.592 316.752 162.813C302.699 171.191 289.396 179.601 275.343 187.995" fill="#FCEAE2"/>
<path d="M267.059 182.853C286.911 170.66 294.555 164.173 299.447 161.218C300.995 160.281 309.233 155.325 309.233 155.294C309.233 155.294 313.313 154.763 315.22 156.154C316.236 156.904 317.189 158.592 316.752 162.813C302.699 171.191 289.396 179.601 275.343 187.995" stroke="black" stroke-width="3" stroke-miterlimit="10" stroke-linecap="round" stroke-linejoin="round"/>
<path d="M85.3242 206.034L158.762 151.761L135.611 248.74" stroke="black" stroke-width="3" stroke-miterlimit="10" stroke-linecap="round" stroke-linejoin="round"/>
<path d="M88.0605 232.843L132.361 251.804" stroke="black" stroke-width="3" stroke-miterlimit="10" stroke-linecap="round" stroke-linejoin="round"/>
<path d="M107.412 220.072L124.169 226.465L137.941 188.339L111.398 205.112" stroke="black" stroke-width="3" stroke-miterlimit="10" stroke-linecap="round" stroke-linejoin="round"/>
<path d="M135.156 232.045L140.471 234.437" stroke="black" stroke-width="3" stroke-miterlimit="10" stroke-linecap="round" stroke-linejoin="round"/>
<path d="M133.814 240.424L137.675 241.753" stroke="black" stroke-width="3" stroke-miterlimit="10" stroke-linecap="round" stroke-linejoin="round"/>
<path d="M139.801 222.729L142.333 224.589" stroke="black" stroke-width="3" stroke-miterlimit="10" stroke-linecap="round" stroke-linejoin="round"/>
<path d="M140.33 213.959L143.535 215.288" stroke="black" stroke-width="3" stroke-miterlimit="10" stroke-linecap="round" stroke-linejoin="round"/>
<path d="M143.803 203.846L145.522 205.034" stroke="black" stroke-width="3" stroke-miterlimit="10" stroke-linecap="round" stroke-linejoin="round"/>
<path d="M145.257 192.935L148.461 195.327" stroke="black" stroke-width="3" stroke-miterlimit="10" stroke-linecap="round" stroke-linejoin="round"/>
<path d="M148.586 184.947L151.65 185.885" stroke="black" stroke-width="3" stroke-miterlimit="10" stroke-linecap="round" stroke-linejoin="round"/>
<path d="M304.637 250.413C296.07 252.257 282.221 254.696 264.995 255.196C241.672 255.884 235.357 252.351 213.113 253.601C191.651 254.805 189.4 258.557 169.204 260.261C156.527 261.324 138.034 261.464 114.931 256.54" stroke="black" stroke-width="3" stroke-miterlimit="10" stroke-linecap="round" stroke-linejoin="round"/>
<path d="M114.664 252.273C114.492 249.959 114.305 247.662 114.133 245.348" stroke="black" stroke-width="3" stroke-miterlimit="10" stroke-linecap="round" stroke-linejoin="round"/>
<path d="M112.806 177.772C111.289 134.91 108.929 118.591 106.694 113.245C106.35 112.448 104.99 109.431 106.287 107.258C108.304 103.913 115.369 104.772 117.464 104.991C127.718 106.07 156.355 105.976 201.14 104.991" stroke="black" stroke-width="3" stroke-miterlimit="10" stroke-linecap="round" stroke-linejoin="round"/>
<path d="M200.732 104.991C211.956 106.711 267.339 107.586 284.815 104.522C292.35 103.194 299.102 101.349 304.964 99.3325" stroke="black" stroke-width="3" stroke-miterlimit="10" stroke-linecap="round" stroke-linejoin="round"/>
<path d="M306.967 105.132C308.046 111.338 308.89 118.966 308.765 127.688C308.64 136.348 307.608 143.898 306.373 150.042" stroke="black" stroke-width="3" stroke-miterlimit="10" stroke-linecap="round" stroke-linejoin="round"/>
<path d="M305.369 220.275C305.197 223.042 305.182 226.262 305.573 229.857C306.151 235.328 307.464 239.924 308.761 243.425" stroke="black" stroke-width="3" stroke-miterlimit="10" stroke-linecap="round" stroke-linejoin="round"/>
<path d="M140.237 261.574C141.081 262.043 142.332 262.902 143.223 264.372C144.927 267.17 144.02 270.093 145.521 270.859C146.521 271.375 147.897 270.546 148.209 270.359C150.882 268.842 162.325 266.545 191.306 262.981" stroke="black" stroke-width="3" stroke-miterlimit="10" stroke-linecap="round" stroke-linejoin="round"/>
<path d="M263.261 101.74C273.578 100.474 279.846 98.3948 283.816 96.5503C285.348 95.8312 288.803 94.1274 291.601 95.5498C293.289 96.4096 294.149 98.1134 294.587 99.3483" stroke="black" stroke-width="3" stroke-miterlimit="10" stroke-linecap="round" stroke-linejoin="round"/>
<path d="M106.817 116.528C105.613 117.184 102.706 118.638 100.236 119.091C97.5318 119.592 96.7502 119.107 96.0468 119.685C93.7802 121.561 97.9069 129.846 101.236 137.646C103.237 142.336 109.24 159.437 111.913 168.081" stroke="black" stroke-width="3" stroke-miterlimit="10" stroke-linecap="round" stroke-linejoin="round"/>
<path d="M161.466 163.203L168.375 162.531" stroke="black" stroke-width="3" stroke-miterlimit="10" stroke-linecap="round" stroke-linejoin="round"/>
<path d="M173.299 163.204L178.489 162.797" stroke="black" stroke-width="3" stroke-miterlimit="10" stroke-linecap="round" stroke-linejoin="round"/>
<path d="M182.209 162.531L190.197 162" stroke="black" stroke-width="3" stroke-miterlimit="10" stroke-linecap="round" stroke-linejoin="round"/>
<path d="M161.325 170.785L166.515 171.051" stroke="black" stroke-width="3" stroke-miterlimit="10" stroke-linecap="round" stroke-linejoin="round"/>
<path d="M171.298 170.91L177.957 171.051" stroke="black" stroke-width="3" stroke-miterlimit="10" stroke-linecap="round" stroke-linejoin="round"/>
<path d="M181.818 170.519L187.805 169.722" stroke="black" stroke-width="3" stroke-miterlimit="10" stroke-linecap="round" stroke-linejoin="round"/>
<path d="M200.06 121.358H121.308V134.129H200.06V121.358Z" stroke="black" stroke-width="3" stroke-miterlimit="10" stroke-linecap="round" stroke-linejoin="round"/>
<path d="M199.544 138.396H165.217V145.055H199.544V138.396Z" stroke="black" stroke-width="3" stroke-miterlimit="10" stroke-linecap="round" stroke-linejoin="round"/>
<path d="M146.865 138.928H121.854V145.04H146.865V138.928Z" stroke="black" stroke-width="3" stroke-miterlimit="10" stroke-linecap="round" stroke-linejoin="round"/>
<path d="M288.005 216.883V230.045L226.541 228.06V122.296L291.6 122.687V159.405" stroke="black" stroke-width="3" stroke-miterlimit="10" stroke-linecap="round" stroke-linejoin="round"/>
<path d="M281.22 130.674H233.324V137.068H281.22V130.674Z" stroke="black" stroke-width="3" stroke-miterlimit="10" stroke-linecap="round" stroke-linejoin="round"/>
<path d="M281.219 146.243H256.881V153.434H281.219V146.243Z" stroke="black" stroke-width="3" stroke-miterlimit="10" stroke-linecap="round" stroke-linejoin="round"/>
<path d="M253.286 146.337H233.324V153.527H253.286V146.337Z" stroke="black" stroke-width="3" stroke-miterlimit="10" stroke-linecap="round" stroke-linejoin="round"/>
<path d="M241.843 168.456H235.731V168.862H241.843V168.456Z" stroke="black" stroke-width="3" stroke-miterlimit="10" stroke-linecap="round" stroke-linejoin="round"/>
<path d="M252.613 167.924H246.36V168.987H252.613V167.924Z" stroke="black" stroke-width="3" stroke-miterlimit="10" stroke-linecap="round" stroke-linejoin="round"/>
<path d="M264.587 167.252H259.272V168.456H264.587V167.252Z" stroke="black" stroke-width="3" stroke-miterlimit="10" stroke-linecap="round" stroke-linejoin="round"/>
<path d="M254.351 172.848H235.062V174.583H254.351V172.848Z" stroke="black" stroke-width="3" stroke-miterlimit="10" stroke-linecap="round" stroke-linejoin="round"/>
<path d="M241.576 178.57H234.792V179.633H241.576V178.57Z" stroke="black" stroke-width="3" stroke-miterlimit="10" stroke-linecap="round" stroke-linejoin="round"/>
<path d="M253.021 178.304H245.705V179.367H253.021V178.304Z" stroke="black" stroke-width="3" stroke-miterlimit="10" stroke-linecap="round" stroke-linejoin="round"/>
<path d="M281.222 214.085H233.733V222.87H281.222V214.085Z" stroke="black" stroke-width="3" stroke-miterlimit="10" stroke-linecap="round" stroke-linejoin="round"/>
<path d="M204.203 119.904V186.151" stroke="black" stroke-width="3" stroke-miterlimit="10" stroke-linecap="round" stroke-linejoin="round"/>
<path d="M117.198 115.511L118.793 173.38" stroke="black" stroke-width="3" stroke-miterlimit="10" stroke-linecap="round" stroke-linejoin="round"/>
<path d="M201.406 114.308L117.198 115.511" stroke="black" stroke-width="3" stroke-miterlimit="10" stroke-linecap="round" stroke-linejoin="round"/>
<path d="M143.13 244.816H200.998V206.91" stroke="black" stroke-width="3" stroke-miterlimit="10" stroke-linecap="round" stroke-linejoin="round"/>
<path d="M146.319 213.288L192.229 212.897V224.058H145.928" stroke="black" stroke-width="3" stroke-miterlimit="10" stroke-linecap="round" stroke-linejoin="round"/>
<path d="M189.023 229.654L143.52 230.451" stroke="black" stroke-width="3" stroke-miterlimit="10" stroke-linecap="round" stroke-linejoin="round"/>
<path d="M188.229 238.032L189.026 229.654" stroke="black" stroke-width="3" stroke-miterlimit="10" stroke-linecap="round" stroke-linejoin="round"/>
<path d="M143.13 239.627L188.227 238.033" stroke="black" stroke-width="3" stroke-miterlimit="10" stroke-linecap="round" stroke-linejoin="round"/>
</svg>
