<svg width="400" height="400" viewBox="0 0 400 400" fill="none" xmlns="http://www.w3.org/2000/svg">
<rect width="400" height="400" fill="#FCEAE2"/>
<path d="M75.9766 130.916C80.9241 130.62 83.958 129.017 85.7472 127.726C102.737 115.388 85.4983 74.4075 102.472 54.2439C103.795 52.6725 107.078 48.8607 112.617 46.9159C121.158 43.9131 129.373 47.2893 132.547 48.7984C134.149 46.0913 142.878 32.0109 159.805 28.6814C178.771 24.963 193.442 37.6275 194.578 38.6388C209.499 51.9568 203.555 67.7174 220.327 84.8783C227.842 92.5641 234.625 95.1157 239.122 96.1581C243.276 97.1072 246.87 97.0916 249.266 96.9049C249.141 99.7988 247.368 129.235 221.447 146.147C197.876 161.519 173.014 154.347 169.576 153.289C165.795 155.576 143.562 168.473 115.822 160.803C91.0215 153.942 78.7304 135.334 75.9766 130.916Z" fill="black"/>
<path d="M186.815 101.899C186.986 103.548 188.433 121.176 174.648 132.985C166.2 140.219 154.422 143.238 144.013 140.686C143.391 140.531 139.642 139.582 135.736 137.31C118.031 126.917 114.81 99.1609 114.312 94.2755C117.331 92.144 120.863 89.2035 124.27 85.2517C131.022 77.4569 134.165 69.3821 135.69 64.2012C139.875 68.3553 147.561 74.9209 159.012 79.215C167.709 82.4823 175.457 83.2602 180.731 83.3691C180.731 85.6095 180.731 87.8344 180.731 90.0748C183.625 82.2178 191.389 79.1683 196.072 81.4554C200.21 83.4625 202.015 89.6702 200.226 94.5556C198.374 99.6276 192.758 102.848 186.815 101.899Z" fill="#FCEAE2" stroke="black" stroke-width="3" stroke-miterlimit="10" stroke-linecap="round" stroke-linejoin="round"/>
<path d="M132.92 77.7217C134.133 78.344 141.664 82.3114 144.2 91.4442C146.891 101.168 141.726 108.823 141.01 109.865" stroke="black" stroke-width="3" stroke-miterlimit="10" stroke-linecap="round" stroke-linejoin="round"/>
<path d="M148.527 91.2574C150.239 93.8712 153.366 95.2092 156.415 94.6336C159.543 94.0579 162.016 91.5841 162.623 88.4258" stroke="black" stroke-width="3" stroke-miterlimit="10" stroke-linecap="round" stroke-linejoin="round"/>
<path d="M127.662 98.2121C127.973 98.5699 130.291 101.184 133.87 101.028C137.044 100.904 139.907 98.6633 141.011 95.396" stroke="black" stroke-width="3" stroke-miterlimit="10" stroke-linecap="round" stroke-linejoin="round"/>
<path d="M158.297 118.516C158.546 118.609 161.797 119.651 164.505 117.582C166.605 115.964 167.507 113.133 166.761 110.441" stroke="black" stroke-width="3" stroke-miterlimit="10" stroke-linecap="round" stroke-linejoin="round"/>
<path d="M152.852 160.616C154.003 162.032 155.792 164.039 158.297 166.062C162.374 169.329 164.583 169.609 164.879 171.507C165.221 173.732 162.405 174.525 158.764 179.784C155.575 184.389 156.135 186.116 154.252 186.832C149.382 188.668 141.588 178.695 140.903 177.808C138.165 174.245 136.671 170.791 135.831 168.411" stroke="black" stroke-width="3" stroke-miterlimit="10" stroke-linecap="round" stroke-linejoin="round"/>
<path d="M180.374 156.104C179.223 158.703 177.2 162.297 173.513 165.222C169.904 168.084 166.916 168.551 166.559 170.854C166.247 172.876 168.285 174.106 171.817 178.275C177.169 184.592 176.998 187.159 178.865 187.672C181.526 188.419 187.033 184.639 199.636 159.014" stroke="black" stroke-width="3" stroke-miterlimit="10" stroke-linecap="round" stroke-linejoin="round"/>
<path d="M180.095 175.086C181.032 175.086 181.791 174.326 181.791 173.39C181.791 172.453 181.032 171.694 180.095 171.694C179.159 171.694 178.399 172.453 178.399 173.39C178.399 174.326 179.159 175.086 180.095 175.086Z" stroke="black" stroke-width="3" stroke-miterlimit="10" stroke-linecap="round" stroke-linejoin="round"/>
<path d="M186.956 164.739C187.42 164.739 187.797 164.363 187.797 163.899C187.797 163.435 187.42 163.059 186.956 163.059C186.492 163.059 186.116 163.435 186.116 163.899C186.116 164.363 186.492 164.739 186.956 164.739Z" stroke="black" stroke-width="3" stroke-miterlimit="10" stroke-linecap="round" stroke-linejoin="round"/>
<path d="M150.688 174.245C151.779 174.245 152.664 173.361 152.664 172.269C152.664 171.178 151.779 170.293 150.688 170.293C149.597 170.293 148.712 171.178 148.712 172.269C148.712 173.361 149.597 174.245 150.688 174.245Z" stroke="black" stroke-width="3" stroke-miterlimit="10" stroke-linecap="round" stroke-linejoin="round"/>
<path d="M144.293 166.622C144.293 167.042 143.951 167.369 143.547 167.369C143.127 167.369 142.8 167.026 142.8 166.622C142.8 166.202 143.142 165.875 143.547 165.875C143.951 165.875 144.293 166.217 144.293 166.622Z" stroke="black" stroke-width="3" stroke-miterlimit="10" stroke-linecap="round" stroke-linejoin="round"/>
<path d="M165.812 187.486C165.905 191.282 166.496 196.93 168.908 203.278C170.93 208.599 173.56 212.644 175.676 215.398" stroke="black" stroke-width="3" stroke-miterlimit="10" stroke-linecap="round" stroke-linejoin="round"/>
<path d="M215.304 148.014C226.957 150.161 234.752 154.393 239.73 157.909C249.983 165.128 252.457 172.114 263.659 179.333C271.081 184.11 278.222 186.35 283.076 187.47" stroke="black" stroke-width="3" stroke-miterlimit="10" stroke-linecap="round" stroke-linejoin="round"/>
<path d="M111.933 187.066C112.633 185.479 111.995 175.879 122.823 166.949C126.324 164.055 129.638 162.561 131.474 162.063" stroke="black" stroke-width="3" stroke-miterlimit="10" stroke-linecap="round" stroke-linejoin="round"/>
<path d="M285.472 201.768C286.234 197.116 287.945 190.488 291.991 183.472C294.184 179.66 296.596 176.579 298.759 174.199" stroke="black" stroke-width="3" stroke-miterlimit="10" stroke-linecap="round" stroke-linejoin="round"/>
<path d="M343.862 181.48C335.787 221.621 317.879 247.992 300.765 247.883C297.342 247.868 292.644 246.778 286.98 242.127" stroke="black" stroke-width="3" stroke-miterlimit="10" stroke-linecap="round" stroke-linejoin="round"/>
<path d="M301.698 171.616C308.948 173.265 338.696 179.738 342.477 173.312C343.395 171.741 343.317 170.122 343.317 170.122C343.084 165.097 335.46 162.079 334.386 161.659" stroke="black" stroke-width="3" stroke-miterlimit="10" stroke-linecap="round" stroke-linejoin="round"/>
<path d="M321.161 175.086C322.795 175.288 340.951 177.373 341.838 173.966C342.663 170.776 328.038 164.475 326.046 163.635" fill="black"/>
<path d="M321.161 175.086C322.795 175.288 340.951 177.373 341.838 173.966C342.663 170.776 328.038 164.475 326.046 163.635" stroke="black" stroke-width="3" stroke-miterlimit="10" stroke-linecap="round" stroke-linejoin="round"/>
<path d="M310.163 195.576C312.637 195.903 323.683 197.101 329.331 190.317C329.86 189.68 330.373 188.933 330.84 188.062" stroke="black" stroke-width="3" stroke-miterlimit="10" stroke-linecap="round" stroke-linejoin="round"/>
<path d="M39.2441 219.832C39.7265 226.662 44.6896 239.14 50.9129 251.135C55.2382 259.474 60.3724 265.573 64.4487 269.681" stroke="black" stroke-width="3" stroke-miterlimit="10" stroke-linecap="round" stroke-linejoin="round"/>
<path d="M80.6133 238.486C81.4068 242.034 82.8226 246.701 85.4986 251.773C88.4703 257.421 91.9398 261.544 94.6469 264.298" stroke="black" stroke-width="3" stroke-miterlimit="10" stroke-linecap="round" stroke-linejoin="round"/>
<path d="M90.2607 242.874C91.5365 242.391 94.9594 240.929 97.5265 237.241C100.265 233.305 101.245 223.223 101.214 221.901" stroke="black" stroke-width="3" stroke-miterlimit="10" stroke-linecap="round" stroke-linejoin="round"/>
<path d="M43.0254 213.686C46.4482 216.829 49.3421 219.38 51.4425 221.185C63.2824 231.391 68.2766 234.301 73.5976 234.363C75.6358 234.394 77.1138 233.99 78.1095 232.978C80.77 230.302 78.6696 224.795 78.4829 224.328" stroke="black" stroke-width="3" stroke-miterlimit="10" stroke-linecap="round" stroke-linejoin="round"/>
<path d="M68.9609 222.57C76.5845 229.416 77.5958 232.014 76.9735 233.087C76.5845 233.756 75.4955 233.974 74.3441 234.207C71.8392 234.721 69.7855 233.943 68.9609 233.585" fill="black"/>
<path d="M68.9609 222.57C76.5845 229.416 77.5958 232.014 76.9735 233.087C76.5845 233.756 75.4955 233.974 74.3441 234.207C71.8392 234.721 69.7855 233.943 68.9609 233.585" stroke="black" stroke-width="3" stroke-miterlimit="10" stroke-linecap="round" stroke-linejoin="round"/>
<path d="M52.171 218.571C51.2064 192.604 60.1214 172.55 72.3502 169.205C75.9598 168.225 81.2808 168.302 86.135 169.703C94.8477 172.223 103.14 179.364 102.051 182.989C101.74 184.016 100.666 184.748 99.7952 184.996C97.8349 185.541 96.4969 183.721 92.7784 181.356C92.2961 181.06 87.6908 178.182 81.623 177.093C79.756 176.75 78.4336 176.533 78.1069 177.093C77.4378 178.26 81.9031 181.371 86.8818 188.497C88.7488 191.173 90.1646 193.647 89.5111 196.136C89.4022 196.541 88.9044 198.237 87.753 198.517C86.7417 198.766 85.6838 197.801 84.5013 196.51C80.2383 191.858 79.8338 188.699 76.0376 185.105C74.6684 183.798 73.3771 182.943 73.346 182.974C73.3149 183.021 75.6953 184.732 78.0446 187.548C78.5114 188.108 80.2695 190.271 81.8097 193.569C83.0077 196.136 84.4702 199.295 83.1633 200.804C82.681 201.364 82.012 201.488 81.8097 201.519C81.343 201.613 79.2893 201.862 74.8551 196.261C71.9768 192.62 70.2499 189.228 70.2188 189.244C70.2032 189.259 70.6233 190.037 71.2767 191.126C72.1324 192.527 72.817 193.476 73.0971 193.88C74.9952 196.603 76.1465 198.268 76.2243 200.399C76.271 201.597 76.0065 203.76 74.7151 204.289C73.4549 204.802 71.8679 203.495 71.4634 203.169C70.1876 202.126 69.6586 200.835 69.4564 200.353C68.7096 198.563 67.4805 196.074 65.3179 192.651" stroke="black" stroke-width="3" stroke-miterlimit="10" stroke-linecap="round" stroke-linejoin="round"/>
<path d="M68.7101 201.909C67.9789 205.285 67.3565 209.33 67.201 213.935C66.9831 220.47 67.7611 226.055 68.7101 230.349" stroke="black" stroke-width="3" stroke-miterlimit="10" stroke-linecap="round" stroke-linejoin="round"/>
<path d="M314.298 143.705C314.5 146.598 314.469 151.546 312.509 157.24C310.61 162.732 307.732 166.56 305.834 168.707" stroke="black" stroke-width="3" stroke-miterlimit="10" stroke-linecap="round" stroke-linejoin="round"/>
<path d="M321.534 173.017C322.467 170.994 337.994 136.517 322.374 117.1C321.254 115.7 317.146 110.721 310.067 107.983C297.138 102.973 281.798 108.356 280.18 113.521C280.04 113.957 279.495 115.731 280.366 116.991C281.315 118.36 283.385 118.391 284.318 118.407C287.336 118.422 288.628 117.038 291.926 115.684C296.703 113.739 300.779 113.879 300.763 113.801C300.748 113.724 298.041 113.755 294.836 114.642C293.435 115.031 284.816 117.442 283.649 122.919C283.618 123.043 283.105 125.657 284.303 126.497C285.018 126.995 286.138 126.746 287.974 125.844C291.319 124.194 293.7 122.53 294.369 122.079C299.285 118.78 304.171 118.811 304.139 118.702C304.139 118.702 299.892 119.34 295.116 121.985C293.171 123.059 287.134 126.435 287.601 129.873C287.756 131.056 288.721 132.378 289.857 132.596C290.121 132.643 290.541 132.674 292.393 131.662C294.633 130.433 295.769 129.811 296.687 128.784C297.045 128.395 297.636 127.695 298.663 126.948C298.912 126.762 299.176 126.59 299.534 126.404C302.91 124.63 306.38 125.097 306.395 125.175C306.411 125.252 303.035 124.832 299.628 126.684C295.8 128.753 292.735 133.265 293.902 135.428C294.26 136.081 294.898 136.346 294.929 136.361C297.901 137.544 301.323 130.293 304.793 131.009C307.5 131.569 307.407 136.408 311.187 137.59C312.65 138.041 314.035 137.746 314.859 137.497" stroke="black" stroke-width="3" stroke-miterlimit="10" stroke-linecap="round" stroke-linejoin="round"/>
<path d="M290.4 287.293C310.86 275.811 334.073 285.193 339.767 300.58C344.077 312.202 338.6 327.791 325.485 337.173" fill="black"/>
<path d="M290.4 287.293C310.86 275.811 334.073 285.193 339.767 300.58C344.077 312.202 338.6 327.791 325.485 337.173" stroke="black" stroke-width="3" stroke-miterlimit="10" stroke-linecap="round" stroke-linejoin="round"/>
<path d="M118.076 289.487C108.881 286.266 88.1265 280.307 68.4607 286.733C63.0464 288.491 54.9716 291.26 51.4243 298.76C48.7171 304.485 49.9462 310.21 50.164 311.284C52.6223 322.688 66.4381 330.452 92.7629 339.6C109.224 345.326 131.69 352 159.415 356.886" fill="black"/>
<path d="M118.076 289.487C108.881 286.266 88.1265 280.307 68.4607 286.733C63.0464 288.491 54.9716 291.26 51.4243 298.76C48.7171 304.485 49.9462 310.21 50.164 311.284C52.6223 322.688 66.4381 330.452 92.7629 339.6C109.224 345.326 131.69 352 159.415 356.886" stroke="black" stroke-width="3" stroke-miterlimit="10" stroke-linecap="round" stroke-linejoin="round"/>
<path d="M296.251 142.88L283.213 158.672L260.155 141.138C270.595 125.439 281.035 109.725 291.474 94.0269L309.413 107.563" stroke="black" stroke-width="3" stroke-miterlimit="10" stroke-linecap="round" stroke-linejoin="round"/>
<path d="M92.2051 171.897L99.2841 168.194" stroke="black" stroke-width="3" stroke-miterlimit="10" stroke-linecap="round" stroke-linejoin="round"/>
<path d="M99.2828 168.194L125.436 208.443L103.328 224.469L92.3438 207.385" stroke="black" stroke-width="3" stroke-miterlimit="10" stroke-linecap="round" stroke-linejoin="round"/>
<path d="M152.664 225.464H250.013L339.474 360.402H306.77" stroke="black" stroke-width="3" stroke-miterlimit="10" stroke-linecap="round" stroke-linejoin="round"/>
<path d="M296.999 358.908L219.191 226.958L187.234 287.48L237.986 287.853L245.501 275.826" fill="#666666"/>
<path d="M296.999 358.908L219.191 226.958L187.234 287.48L237.986 287.853L245.501 275.826" stroke="black" stroke-width="3" stroke-miterlimit="10" stroke-linecap="round" stroke-linejoin="round"/>
<path d="M180.092 280.339L151.9 226.584L119.959 287.48L162.06 287.293L171.986 264.858" fill="#666666"/>
<path d="M180.092 280.339L151.9 226.584L119.959 287.48L162.06 287.293L171.986 264.858" stroke="black" stroke-width="3" stroke-miterlimit="10" stroke-linecap="round" stroke-linejoin="round"/>
<path d="M119.959 287.48L244.286 287.993" stroke="black" stroke-width="3" stroke-miterlimit="10" stroke-linecap="round" stroke-linejoin="round"/>
<path d="M194.92 226.227L206.153 244.259" stroke="black" stroke-width="3" stroke-miterlimit="10" stroke-linecap="round" stroke-linejoin="round"/>
<path d="M155.168 357.897L119.072 289.238L83.2412 358.908L128.843 358.146L145.132 341.607" fill="#666666"/>
<path d="M155.168 357.897L119.072 289.238L83.2412 358.908L128.843 358.146L145.132 341.607" stroke="black" stroke-width="3" stroke-miterlimit="10" stroke-linecap="round" stroke-linejoin="round"/>
<path d="M224.077 357.803C224.077 357.492 185.741 288.195 185.741 288.195L155.169 358.535L203.789 359.266L213.808 341.81" fill="#666666"/>
<path d="M224.077 357.803C224.077 357.492 185.741 288.195 185.741 288.195L155.169 358.535L203.789 359.266L213.808 341.81" stroke="black" stroke-width="3" stroke-miterlimit="10" stroke-linecap="round" stroke-linejoin="round"/>
<path d="M259.58 297.235L227.499 358.504L278.982 358.768L287.585 344.906" fill="#666666"/>
<path d="M259.58 297.235L227.499 358.504L278.982 358.768L287.585 344.906" stroke="black" stroke-width="3" stroke-miterlimit="10" stroke-linecap="round" stroke-linejoin="round"/>
<path d="M165.935 287.978L176.717 302.26" stroke="black" stroke-width="3" stroke-miterlimit="10" stroke-linecap="round" stroke-linejoin="round"/>
<path d="M240.615 292.987L251.895 310.039" stroke="black" stroke-width="3" stroke-miterlimit="10" stroke-linecap="round" stroke-linejoin="round"/>
<path d="M306.77 360.402C307.765 360.153 365.16 360.402 365.16 360.402L337.342 356.139" fill="black"/>
<path d="M306.77 360.402C307.765 360.153 365.16 360.402 365.16 360.402L337.342 356.139" stroke="black" stroke-width="3" stroke-miterlimit="10" stroke-linecap="round" stroke-linejoin="round"/>
<path d="M45.7148 358.52L83.2417 358.908" stroke="black" stroke-width="3" stroke-miterlimit="10" stroke-linecap="round" stroke-linejoin="round"/>
<path d="M69.0225 365.676L97.961 365.474" stroke="black" stroke-width="3" stroke-miterlimit="10" stroke-linecap="round" stroke-linejoin="round"/>
<path d="M297.76 365.676H319.184" stroke="black" stroke-width="3" stroke-miterlimit="10" stroke-linecap="round" stroke-linejoin="round"/>
<path d="M317.303 372.055L350.753 371.309" stroke="black" stroke-width="3" stroke-miterlimit="10" stroke-linecap="round" stroke-linejoin="round"/>
<path d="M291.958 64.0615C293.327 65.1351 295.552 67.1888 297.217 70.456C298.508 72.9765 298.99 75.2791 299.193 76.8505" stroke="black" stroke-width="3" stroke-miterlimit="10" stroke-linecap="round" stroke-linejoin="round"/>
<path d="M308.123 82.5759C308.59 80.6156 309.586 77.5039 311.982 74.4078C313.288 72.7119 314.673 71.4517 315.84 70.5493" stroke="black" stroke-width="3" stroke-miterlimit="10" stroke-linecap="round" stroke-linejoin="round"/>
<path d="M320.04 87.5079C320.911 86.7455 322.296 85.7187 324.194 85.0496C325.112 84.7229 325.952 84.5362 326.683 84.4429" stroke="black" stroke-width="3" stroke-miterlimit="10" stroke-linecap="round" stroke-linejoin="round"/>
<path d="M42.2617 143.643C44.2221 144.996 47.2093 147.423 49.7764 151.282C51.9079 154.502 52.9814 157.552 53.5416 159.683" stroke="black" stroke-width="3" stroke-miterlimit="10" stroke-linecap="round" stroke-linejoin="round"/>
<path d="M34 171.585C35.1202 171.585 36.8316 171.741 38.7609 172.457C40.4412 173.095 41.7014 173.935 42.526 174.588" stroke="black" stroke-width="3" stroke-miterlimit="10" stroke-linecap="round" stroke-linejoin="round"/>
</svg>
