<svg width="400" height="400" viewBox="0 0 400 400" fill="none" xmlns="http://www.w3.org/2000/svg">
<rect width="400" height="400" fill="#FCEAE2"/>
<path d="M96.5996 75.5248C106.235 77.4384 113.269 77.9756 118.036 78.0931C118.875 78.1099 121.377 78.1603 124.683 78.731C130.307 79.7046 134.873 80.4936 137.324 83.8677C140.429 88.1315 138.465 94.2082 137.962 95.6519C139.741 96.3737 141.537 97.0787 143.317 97.8005C147.161 95.0475 149.209 92.3113 150.384 90.2969C151.072 89.1051 151.811 87.5607 153.388 87.0907C154.933 86.6207 156.947 87.2754 157.887 88.5847C159.952 91.472 156.158 96.4744 155.957 96.7262C153.842 99.4456 150.988 100.453 149.746 100.805C151.038 101.846 157.216 106.647 165.811 105.741C173.079 104.968 177.595 100.604 179.307 98.8749C186.811 91.3713 186.844 81.5176 186.811 79.3689C181.439 82.189 178.921 81.7694 177.595 80.8629C173.482 78.0428 178.904 68.9445 173.952 60.0812C173.281 58.8725 169.789 52.9804 163.024 51.7215C155.47 50.3114 149.612 55.7335 148.873 56.4385C146.741 53.7526 139.942 45.9301 129.803 45.074C116.005 43.9325 100.947 56.086 96.5996 75.5248Z" fill="black" stroke="black" stroke-width="3" stroke-miterlimit="10" stroke-linecap="round" stroke-linejoin="round"/>
<path d="M98.21 74.3499C98.8814 71.4962 100.04 67.971 102.104 64.2444C106.687 55.9518 113.184 51.2852 116.86 49.0693C113.687 51.6713 107.829 57.2947 104.958 66.3259C103.884 69.6832 103.464 72.7719 103.347 75.3235C101.634 74.9878 99.9222 74.6688 98.21 74.3499Z" fill="#B3B3B3"/>
<path d="M153.891 100.52L157.533 97.3809C158.843 98.3881 161.008 99.7478 163.963 100.453C169.754 101.829 174.505 99.7142 176.032 98.9588C175.344 99.6638 169.67 105.287 161.814 104.179C157.903 103.609 155.183 101.628 153.891 100.52Z" fill="#B3B3B3"/>
<path d="M107.847 78.8486C107.041 81.7023 102.928 97.4313 112.245 109.82C113.621 111.65 115.921 114.638 119.966 116.887C130.005 122.494 138.18 116.568 152.432 119.674C155.856 120.412 160.741 121.923 166.364 125.347" stroke="black" stroke-width="3" stroke-miterlimit="10" stroke-linecap="round" stroke-linejoin="round"/>
<path d="M112.027 108.309C112.33 108.393 114.948 109.014 117.114 107.285C118.675 106.043 119.061 104.348 119.145 103.861" stroke="black" stroke-width="3" stroke-miterlimit="10" stroke-linecap="round" stroke-linejoin="round"/>
<path d="M105.983 90.0454C102.173 94.4099 100.309 98.1701 101.434 99.5802C101.652 99.8488 102.626 100.856 106.789 99.5802" stroke="black" stroke-width="3" stroke-miterlimit="10" stroke-linecap="round" stroke-linejoin="round"/>
<path d="M113.419 79.3859C115.182 77.7911 117.582 77.2204 119.68 77.9422C121.812 78.664 122.803 80.4266 123.054 80.8967" stroke="black" stroke-width="3" stroke-miterlimit="10" stroke-linecap="round" stroke-linejoin="round"/>
<path d="M119.968 85.0092C116.527 84.2874 113.74 84.7574 113.169 86.0836C112.985 86.5032 113.001 87.074 113.001 87.4265C113.035 88.6687 113.539 90.2466 114.126 90.2634C114.63 90.2802 115.335 89.1723 115.15 88.2826C114.932 87.309 113.673 86.8054 113.807 86.52C113.857 86.4025 114.126 86.4025 114.294 86.4193" stroke="black" stroke-width="3" stroke-miterlimit="10" stroke-linecap="round" stroke-linejoin="round"/>
<path d="M155.604 128.235C157.334 131.139 159.18 132.213 160.456 132.666C166.717 134.882 176.42 128.436 183.604 115.812C192.283 115.812 203.194 116.635 215.465 119.522C232.353 123.518 245.547 129.997 254.612 135.386C254.612 139.817 254.074 146.465 251.321 153.952C247.612 164.023 241.736 170.654 238.178 174.095" stroke="black" stroke-width="3" stroke-miterlimit="10" stroke-linecap="round" stroke-linejoin="round"/>
<path d="M218.469 133.959C223.841 138.877 234.08 149.822 236.615 166.24C237.203 170.016 240.056 188.549 230.908 194.391C225.654 197.748 218.536 195.482 204.335 190.966C196.244 188.398 189.814 185.51 185.483 183.395" stroke="black" stroke-width="3" stroke-miterlimit="10" stroke-linecap="round" stroke-linejoin="round"/>
<path d="M213.601 166.105C208.431 161.338 199.685 154.875 187.599 152.676C185.4 152.273 183.301 152.055 181.32 151.954C184.409 169.496 184.779 178.645 182.462 179.383C181.136 179.803 178.954 177.52 175.898 172.518" stroke="black" stroke-width="3" stroke-miterlimit="10" stroke-linecap="round" stroke-linejoin="round"/>
<path d="M196.615 145.088C198.193 146.532 200.275 148.765 202.037 151.954C203.38 154.371 204.152 156.621 204.606 158.383" stroke="black" stroke-width="3" stroke-miterlimit="10" stroke-linecap="round" stroke-linejoin="round"/>
<path d="M68.3135 118.381C72.2919 119.371 77.6468 120.697 83.9585 122.242C110.767 128.789 116.625 129.947 124.028 130.383C128.98 130.685 136.265 130.769 145.246 129.527" stroke="black" stroke-width="3" stroke-miterlimit="10" stroke-linecap="round" stroke-linejoin="round"/>
<path d="M133.462 158.232C124.398 156.688 116.928 156.117 111.824 155.882C94.2154 155.043 86.0067 157.258 71.5367 154.388C64.9061 153.062 59.6686 151.215 56.3281 149.889" stroke="black" stroke-width="3" stroke-miterlimit="10" stroke-linecap="round" stroke-linejoin="round"/>
<path d="M64.8899 117.307C65.511 121.453 65.8803 128.335 62.7412 135.52C60.2904 141.11 55.5734 147.254 53.5254 146.448C52.5686 146.079 51.8468 144.031 52.8875 136.813" stroke="black" stroke-width="3" stroke-miterlimit="10" stroke-linecap="round" stroke-linejoin="round"/>
<path d="M65.1073 117.172C65.3423 120.58 65.292 125.616 63.7476 131.391C61.8675 138.391 57.9562 145.693 56.4622 145.256C55.6565 145.021 55.1697 142.453 56.8148 131.76" fill="black"/>
<path d="M65.1073 117.172C65.3423 120.58 65.292 125.616 63.7476 131.391C61.8675 138.391 57.9562 145.693 56.4622 145.256C55.6565 145.021 55.1697 142.453 56.8148 131.76" stroke="black" stroke-width="3" stroke-miterlimit="10" stroke-linecap="round" stroke-linejoin="round"/>
<path d="M158.458 132.666C155.134 141.915 150.786 152.273 145.028 163.234C138.33 176.009 131.213 186.803 124.599 195.666C124.784 197.815 124.834 200.484 124.448 203.522C123.995 207.198 123.055 210.253 122.165 212.52C124.448 211.58 127.554 210.018 130.743 207.383C133.328 205.234 135.175 203.018 136.45 201.239C139.405 194.776 142.46 188.246 145.599 181.666C147.832 176.982 150.064 172.366 152.314 167.8" stroke="black" stroke-width="3" stroke-miterlimit="10" stroke-linecap="round" stroke-linejoin="round"/>
<path d="M254.863 135.688C258.12 136.443 269.484 139.498 277.189 150.393C279.254 153.313 285.465 162.093 283.619 173.827C282.242 182.589 277.072 188.263 274.906 190.395C284.945 186.903 297.451 183.462 312.055 181.397C324.276 179.668 335.288 179.299 344.621 179.534C346.753 182.505 349.355 186.903 351.05 192.678C354.24 203.555 352.276 212.906 351.05 217.253C344.554 218.546 242.727 238.707 224.228 234.006C218.05 232.428 214.693 228.651 214.693 228.651C208.432 221.601 210.53 210.589 210.765 209.397C210.899 208.726 211.604 205.452 213.636 201.642C215.096 198.906 216.724 196.858 218.017 195.431C220.182 196.253 225.588 197.932 230.019 195.33C234.669 192.594 236.18 186.349 236.767 183.966C237.657 180.356 237.388 177.57 239.655 173.407C240.041 172.685 240.326 172.265 241.686 170.301C245.026 165.484 246.688 163.083 248.333 160.817C250.549 157.745 253.185 151.148 254.863 135.688Z" fill="black"/>
<path d="M285.046 173.172C285.164 174.75 285.147 177.134 284.324 179.887C283.133 183.882 280.866 186.484 279.607 187.743C289.092 184.486 300.305 181.364 313.029 179.098C323.504 177.234 333.156 176.294 341.751 175.891C342.943 173.39 344.454 169.479 344.89 164.46C345.495 157.695 343.866 152.323 342.742 149.453C334.818 151.568 326.173 154.304 317.025 157.879C304.77 162.68 294.094 168.002 285.046 173.172Z" fill="black"/>
<path d="M351.402 194.138L352.544 201.491C355.633 201.726 357.748 202.649 359.007 203.354C360.484 204.177 362.918 205.889 368.441 215.407C370.002 218.11 371.21 220.376 371.983 221.887C374.836 223.716 376.23 223.632 376.968 223.179C380.091 221.232 376.834 209.146 371.983 200.467C369.649 196.304 367.115 193.198 365.234 191.15C360.618 192.141 356.002 193.131 351.402 194.138Z" fill="#808080"/>
<path d="M343.632 154.489C343.816 157.292 344.001 160.095 344.203 162.899C347.896 161.807 350.095 162.395 351.404 163.083C354.761 164.846 354.845 168.606 359.361 172.92C360.872 174.364 362.315 175.321 363.222 175.875C364.8 176.63 365.555 176.479 365.958 176.194C368.107 174.666 364.598 165.971 362.231 161.321C360.116 157.158 357.783 154.018 356.104 151.987C351.924 152.827 347.778 153.649 343.632 154.489Z" fill="#808080"/>
<path d="M344.286 154.522C346.519 154.388 349.826 153.884 353.435 152.239C355.567 151.266 357.279 150.107 358.571 149.1" stroke="black" stroke-width="3" stroke-miterlimit="10" stroke-linecap="round" stroke-linejoin="round"/>
<path d="M344.286 163.234C347.056 162.361 348.902 162.697 349.994 163.083C355.248 164.946 354.895 171.863 361.559 175.371C362.768 176.009 365.051 177.201 366.125 176.378C368.66 174.431 362.886 162.697 357.699 153.229" stroke="black" stroke-width="3" stroke-miterlimit="10" stroke-linecap="round" stroke-linejoin="round"/>
<path d="M351.722 193.232C359.729 191.47 367.719 189.707 375.726 187.944" stroke="black" stroke-width="3" stroke-miterlimit="10" stroke-linecap="round" stroke-linejoin="round"/>
<path d="M353.147 202.381C354.306 202.347 356.152 202.414 358.15 203.237C367.45 207.064 367.097 221.954 374.869 223.666C375.49 223.8 376.749 224.069 377.723 223.381C380.627 221.35 377.908 212.99 377.001 210.237C375.759 206.443 373.375 200.887 368.423 194.944" stroke="black" stroke-width="3" stroke-miterlimit="10" stroke-linecap="round" stroke-linejoin="round"/>
<path d="M178.737 156.789C177.529 154.489 173.533 147.573 165.291 144.366C160.893 142.654 157.183 142.721 153.02 142.805C150.351 142.856 143.821 142.99 143.166 145.374C142.948 146.163 143.401 147.086 143.922 147.573C144.358 147.992 145.114 148.362 149.596 147.892C151.274 147.724 150.989 147.69 152.282 147.573C154.447 147.371 156.075 147.237 158.006 147.573C159.718 147.858 161.044 148.412 161.061 148.378C161.078 148.345 160.205 148.009 159.399 147.791C157.25 147.187 155.437 147.354 153.927 147.522C148.354 148.143 145.567 148.462 145.147 149.772C144.912 150.51 145.248 151.467 145.836 152.071C147.934 154.237 152.567 151.182 160.087 152.021C161.413 152.172 161.85 152.323 161.85 152.34C161.85 152.374 157.049 151.098 151.828 152.29C150.435 152.609 147.816 153.23 147.548 154.707C147.413 155.462 147.9 156.302 148.505 156.789C150.368 158.316 152.836 156.201 157.989 156.201C161.262 156.201 163.646 157.04 163.663 156.956C163.68 156.872 161.783 156.318 159.483 156.151C158.409 156.067 157.133 155.983 155.572 156.318C155.186 156.402 150.804 157.342 150.704 159.273C150.67 159.877 151.056 160.465 151.509 160.767C152.517 161.455 153.792 160.733 155.589 160.33C158.19 159.743 160.591 160.129 161.85 160.549C164.368 161.388 165.526 163.453 166.567 164.729C168.514 167.129 172.493 169.731 181.457 170.033" fill="#FCEAE2"/>
<path d="M178.737 156.789C177.529 154.489 173.533 147.573 165.291 144.366C160.893 142.654 157.183 142.721 153.02 142.805C150.351 142.856 143.821 142.99 143.166 145.374C142.948 146.163 143.401 147.086 143.922 147.573C144.358 147.992 145.114 148.362 149.596 147.892C151.274 147.724 150.989 147.69 152.282 147.573C154.447 147.371 156.075 147.237 158.006 147.573C159.718 147.858 161.044 148.412 161.061 148.378C161.078 148.345 160.205 148.009 159.399 147.791C157.25 147.187 155.437 147.354 153.927 147.522C148.354 148.143 145.567 148.462 145.147 149.772C144.912 150.51 145.248 151.467 145.836 152.071C147.934 154.237 152.567 151.182 160.087 152.021C161.413 152.172 161.85 152.323 161.85 152.34C161.85 152.374 157.049 151.098 151.828 152.29C150.435 152.609 147.816 153.23 147.548 154.707C147.413 155.462 147.9 156.302 148.505 156.789C150.368 158.316 152.836 156.201 157.989 156.201C161.262 156.201 163.646 157.04 163.663 156.956C163.68 156.872 161.783 156.318 159.483 156.151C158.409 156.067 157.133 155.983 155.572 156.318C155.186 156.402 150.804 157.342 150.704 159.273C150.67 159.877 151.056 160.465 151.509 160.767C152.517 161.455 153.792 160.733 155.589 160.33C158.19 159.743 160.591 160.129 161.85 160.549C164.368 161.388 165.526 163.453 166.567 164.729C168.514 167.129 172.493 169.731 181.457 170.033" stroke="black" stroke-width="3" stroke-miterlimit="10" stroke-linecap="round" stroke-linejoin="round"/>
<path d="M62.1037 119.774C30.2597 106.378 21.0606 104.481 20.1038 106.278C19.6338 107.151 20.9095 109.383 20.9599 109.484C22.0846 111.431 23.9311 112.371 27.2884 113.764C31.5354 115.544 35.3796 116.887 35.3292 117.088C35.2453 117.374 27.7752 114.067 24.9383 116.87C23.3436 118.448 23.8472 121.369 24.0822 122.762C24.5858 125.7 26.4995 129.342 28.581 129.292C29.4707 129.275 30.4107 128.587 30.6122 127.798C30.864 126.824 29.7561 126.321 29.0007 124.256C28.6481 123.299 28.2285 122.124 28.6817 121.151C29.4875 119.388 32.6433 119.321 32.6433 119.321C32.6433 119.321 29.5546 119.371 28.6817 121.151C28.5306 121.453 28.2621 122.191 29.0007 124.256C29.6889 126.17 31.1661 130.047 34.4731 130.786C35.9167 131.105 37.7968 130.702 38.2165 129.712C38.6361 128.755 36.8064 127.865 35.7489 124.894C35.3124 123.635 35.1949 122.577 35.3124 122.544C35.4971 122.477 35.7489 124.642 37.2429 125.549C39.2405 126.757 42.346 125.095 42.3795 125.23C42.3963 125.297 41.6577 125.7 40.5498 125.868C38.2668 126.22 36.5546 125.196 36.4707 125.33C36.37 125.532 39.9959 128.318 44.9311 129.93C47.9023 130.904 53.1565 132.062 60.3579 130.685" fill="#FCEAE2"/>
<path d="M62.1037 119.774C30.2597 106.378 21.0606 104.481 20.1038 106.278C19.6338 107.151 20.9095 109.383 20.9599 109.484C22.0846 111.431 23.9311 112.371 27.2884 113.764C31.5354 115.544 35.3796 116.887 35.3292 117.088C35.2453 117.374 27.7752 114.067 24.9383 116.87C23.3436 118.448 23.8472 121.369 24.0822 122.762C24.5858 125.7 26.4995 129.342 28.581 129.292C29.4707 129.275 30.4107 128.587 30.6122 127.798C30.864 126.824 29.7561 126.321 29.0007 124.256M29.0007 124.256C28.6481 123.299 28.2285 122.124 28.6817 121.151M29.0007 124.256C28.2621 122.191 28.5306 121.453 28.6817 121.151M29.0007 124.256C29.6889 126.17 31.1661 130.047 34.4731 130.786C35.9167 131.105 37.7968 130.702 38.2165 129.712C38.6361 128.755 36.8064 127.865 35.7489 124.894C35.3124 123.635 35.1949 122.577 35.3124 122.544C35.4971 122.477 35.7489 124.642 37.2429 125.549C39.2405 126.757 42.346 125.095 42.3795 125.23C42.3963 125.297 41.6577 125.7 40.5498 125.868C38.2668 126.22 36.5546 125.196 36.4707 125.33C36.37 125.532 39.9959 128.318 44.9311 129.93C47.9023 130.904 53.1565 132.062 60.3579 130.685M28.6817 121.151C29.4875 119.388 32.6433 119.321 32.6433 119.321C32.6433 119.321 29.5546 119.371 28.6817 121.151Z" stroke="black" stroke-width="3" stroke-miterlimit="10" stroke-linecap="round" stroke-linejoin="round"/>
<path d="M153.607 162.949C154.95 161.388 158.559 160.498 161.161 161.455C162.974 162.11 163.192 163.268 166.785 166.273C169.185 168.27 169.672 168.237 171.384 169.697C174.137 172.014 177.176 176.882 177.176 176.882C185.099 191.251 216.792 234.157 209.171 240.956C208.348 241.695 207.358 241.745 206.317 241.812C196.648 242.4 190.236 227.09 174.742 202.38C160.406 179.5 149.965 167.196 153.607 162.949Z" fill="black" stroke="black" stroke-width="3" stroke-miterlimit="10" stroke-linecap="round" stroke-linejoin="round"/>
<path d="M226.645 234.711C223.389 236.289 220.653 236.843 220.753 237.364C221.223 239.848 239.386 238.942 249.777 238.136C259.9 237.347 265.876 236.306 272.204 234.275C275.679 233.167 276.804 232.546 279.489 231.556C285.533 229.356 288.554 227.779 307.103 226.738C308.765 227.812 309.034 229.541 309.051 230.129C309.336 237.313 268.209 244.028 239.47 245.992C214.895 247.671 211.739 245.018 211.319 243.424C210.732 241.141 211.823 238.673 216.003 236.34C220.669 233.771 225.521 234.527 226.645 234.711Z" fill="black" stroke="black" stroke-width="3" stroke-miterlimit="10" stroke-linecap="round" stroke-linejoin="round"/>
<path d="M240.175 249.954L265.606 301.388" stroke="black" stroke-width="3" stroke-miterlimit="10" stroke-linecap="round" stroke-linejoin="round"/>
<path d="M239.034 332.812C239.622 326.164 241.317 315.958 246.756 304.812C250.902 296.301 253.84 290.258 259.9 288.244C269.888 284.92 281.185 294.908 288.185 301.102C293.07 305.416 300.876 313.541 306.751 326.819" stroke="black" stroke-width="3" stroke-miterlimit="10" stroke-linecap="round" stroke-linejoin="round"/>
<path d="M312.038 331.251C309.386 331.066 305.861 332.107 304.182 335.246C302.839 337.764 303.04 340.92 304.534 343.035C307.506 347.249 315.697 347.618 318.534 343.253C320.331 340.484 319.743 336.186 317.242 333.618C315.328 331.604 312.877 331.301 312.038 331.251Z" stroke="black" stroke-width="3" stroke-miterlimit="10" stroke-linecap="round" stroke-linejoin="round"/>
<path d="M311.048 332.174C307.859 333.248 307.372 337.361 307.338 337.814C307.288 338.368 306.952 341.625 309.403 343.673C311.468 345.402 314.724 345.603 316.907 343.958C319.055 342.347 319.173 339.728 319.19 339.241C319.341 336.035 317.074 334.004 316.755 333.735C316.386 333.433 313.851 331.234 311.048 332.174Z" fill="black" stroke="black" stroke-width="3" stroke-miterlimit="10" stroke-linecap="round" stroke-linejoin="round"/>
<path d="M239.118 339.812C236.466 339.627 232.941 340.668 231.262 343.807C229.919 346.325 230.12 349.481 231.614 351.596C234.586 355.81 242.778 356.179 245.614 351.814C247.411 349.045 246.823 344.747 244.322 342.179C242.391 340.181 239.941 339.879 239.118 339.812Z" stroke="black" stroke-width="3" stroke-miterlimit="10" stroke-linecap="round" stroke-linejoin="round"/>
<path d="M238.111 340.752C234.921 341.826 234.434 345.939 234.401 346.392C234.35 346.946 234.015 350.203 236.465 352.251C238.53 353.98 241.787 354.181 243.969 352.536C246.118 350.925 246.235 348.306 246.252 347.819C246.403 344.613 244.137 342.582 243.818 342.313C243.465 342.011 240.914 339.812 238.111 340.752Z" fill="black" stroke="black" stroke-width="3" stroke-miterlimit="10" stroke-linecap="round" stroke-linejoin="round"/>
</svg>
