<svg width="182" height="60" viewBox="0 0 182 60" fill="none" xmlns="http://www.w3.org/2000/svg">
<path d="M16.9021 5.53987L18.1921 3.10464C16.3492 1.41871 11.8572 -1.43806 6.21309 0.856729C0.684293 3.10464 1.56225 9.94725 1.97435 10.785C2.52723 11.909 3.63298 15.0935 8.79319 16.0301C12.9214 16.7794 14.1377 18.8385 14.1377 20.1513C14.1377 23.1485 11.5576 24.3524 9.71466 24.3524C7.86253 24.3524 5.66021 22.9612 4.00157 22.0245C2.67466 21.2752 2.09721 21.8372 1.97435 22.2119C1.4829 23.0236 0.5 24.6846 0.5 24.8344C0.5 24.9843 3.2644 26.2256 4.55445 26.9749C7.13455 28.3661 11.7419 28.2168 13.9534 27.2697C16.6387 26.1196 18.9293 23.9108 18.9293 20.1513C18.9293 16.4048 15.7963 13.1578 13.5848 12.4709C12.7862 12.1587 10.7098 11.3844 8.79319 10.785C6.39738 10.0357 5.10733 6.85116 7.68743 4.9779C10.2675 3.10464 14.322 5.35255 15.2435 5.91453C15.9806 6.36411 16.6564 5.85208 16.9021 5.53987Z" fill="black"/>
<path d="M23.9052 27.9391V0.58949H28.8812V12.391H37.3586C40.0125 12.391 41.0445 14.8887 41.2288 16.1375H28.8812V27.9391H23.9052Z" fill="black"/>
<path d="M41.7817 0.58949V27.9391H46.5733V0.58949H41.7817Z" fill="black"/>
<path d="M60.9482 0.58949L50.4435 27.9391H54.6822C55.5668 27.9391 55.9108 27.3146 55.9723 27.0024L57.9995 21.3827H68.3199C67.8776 18.3854 66.1698 17.6361 65.3712 17.6361H59.1052L63.5283 5.27264L69.2414 21.3827C69.7328 22.8188 70.8263 25.9159 71.2686 26.8151C71.7109 27.7143 72.8044 27.9391 73.2958 27.9391H76.6131L65.9241 0.58949H60.9482Z" fill="black"/>
<path d="M146.092 27.9391L137.614 0.58949H142.037C143.217 0.58949 143.634 1.58856 143.696 2.0881L148.856 20.6334L154.753 2.0881C154.901 0.889211 155.675 0.58949 156.043 0.58949H158.071C158.955 0.58949 159.422 1.58856 159.545 2.0881L165.627 20.6334C167.162 15.0136 170.345 3.43684 170.787 2.0881C171.229 0.73935 172.323 0.527048 172.814 0.58949H176.5L168.023 27.9391H163.599L156.965 7.14589L150.33 27.9391H146.092Z" fill="black"/>
<path fill-rule="evenodd" clip-rule="evenodd" d="M121.765 0.58949C117.158 0.58949 107.943 3.32445 107.943 14.2643C107.943 25.2041 117.158 27.9391 121.765 27.9391C126.372 27.9391 135.587 25.2041 135.587 14.2643C135.587 3.32445 126.372 0.58949 121.765 0.58949ZM121.765 24.0052C114.688 24.0052 113.165 17.5113 113.287 14.2643C113.287 11.0797 114.983 4.71066 121.765 4.71066C128.547 4.71066 130.365 11.0797 130.427 14.2643C130.488 17.5113 128.842 24.0052 121.765 24.0052Z" fill="black"/>
<path fill-rule="evenodd" clip-rule="evenodd" d="M80.4832 27.9391V0.58949H92.278C96.4553 0.58949 104.736 3.32445 104.441 14.2643C104.146 25.2041 96.2096 27.9391 92.278 27.9391H86.1963C86.1963 25.6272 88.8898 24.0052 89.8822 24.0052H92.278C94.7353 23.9428 99.6129 21.9072 99.4654 14.2643C99.318 6.62138 94.6124 4.71066 92.278 4.71066H85.4592V24.0052V27.9391H80.4832Z" fill="black"/>
<path d="M81.7613 59.9902V32.1088H91.4072C100.86 32.1088 101.439 38.7472 101.439 40.4543C101.439 42.1613 100.667 43.6786 99.5098 45.3857C98.5838 46.7513 96.1658 47.7249 95.0726 48.041C95.5357 48.041 96.1659 48.6733 96.4231 48.9894L103.947 59.9902H99.3168C98.2365 59.9902 97.452 59.358 97.1947 59.0419C95.78 57.0187 92.7576 52.5931 91.986 51.0758C91.2143 49.5584 90.2497 49.0526 89.8639 48.9894H88.1276C88.1276 46.4099 90.314 45.5121 91.4072 45.3857C93.0149 45.0696 96.2302 43.6407 96.2302 40.4543C96.2302 37.2678 93.0149 36.2183 91.4072 36.0918H87.163V59.9902H81.7613Z" fill="url(#paint0_linear_259_869)"/>
<path fill-rule="evenodd" clip-rule="evenodd" d="M120.152 32.3082C115.329 32.3082 105.683 35.0774 105.683 46.1541C105.683 57.2308 115.329 60 120.152 60C124.975 60 134.621 57.2308 134.621 46.1541C134.621 35.0774 124.975 32.3082 120.152 32.3082ZM120.152 56.0169C112.744 56.0169 111.149 49.4417 111.278 46.1541C111.278 42.9297 113.053 36.4809 120.152 36.4809C127.251 36.4809 129.155 42.9297 129.219 46.1541C129.283 49.4417 127.56 56.0169 120.152 56.0169Z" fill="url(#paint1_linear_259_869)"/>
<path d="M55.1386 31.9191V59.8006H60.5403V35.9022H64.7845C66.3921 36.0286 69.6074 37.0781 69.6074 40.2646C69.6074 43.451 66.3921 44.8799 64.7845 45.196C63.6913 45.3225 61.5049 46.2202 61.5049 48.7997H63.2411C63.627 48.863 64.5916 49.3687 65.3632 50.8861C66.1349 52.4035 69.1573 56.8291 70.572 58.8522C70.8293 59.1684 71.6138 59.8006 72.6941 59.8006H77.3242L69.8004 48.7997C69.5431 48.4836 68.9129 47.8514 68.4499 47.8514C69.5431 47.5353 71.9611 46.5616 72.8871 45.196C74.0446 43.489 74.8162 41.9716 74.8162 40.2646C74.8162 38.5576 74.2375 31.9191 64.7845 31.9191H55.1386Z" fill="url(#paint2_linear_259_869)"/>
<path d="M34.6893 31.9191L23.5 59.8006H27.3584C27.8085 59.8006 28.8245 59.573 29.2875 58.6626C29.7505 57.7521 30.8952 54.4898 31.4096 52.9725H42.5989C42.4703 51.7712 41.5571 49.3687 38.9335 49.3687H32.7601L37.1972 36.8505L45.2998 58.6626C45.3641 59.0419 45.8399 59.8006 47.2289 59.8006H51.2802L40.091 31.9191H34.6893Z" fill="url(#paint3_linear_259_869)"/>
<path d="M145.038 59.8006L136.357 32.1088H140.794C141.821 32.2822 142.211 32.6027 142.531 33.6261L147.932 52.5931L154.106 33.6261C154.438 32.4806 154.759 32.054 155.842 32.1088H157.964C158.913 32.1642 159.239 32.5148 159.507 33.6261L165.681 52.5931C168.96 44.243 171.082 38.1736 174.169 31.3455L171.468 30.2075L180.342 23L181.5 34.1905L178.606 33.0525C176.098 39.3116 170.118 54.1058 167.996 59.8006H163.366L156.614 39.3162L149.861 59.8006H145.038Z" fill="url(#paint4_linear_259_869)"/>
<defs>
<linearGradient id="paint0_linear_259_869" x1="23.5" y1="16" x2="181.5" y2="76.5" gradientUnits="userSpaceOnUse">
<stop stop-color="#C4002E"/>
<stop offset="0.491395" stop-color="#C95300"/>
<stop offset="1" stop-color="#C4002E"/>
</linearGradient>
<linearGradient id="paint1_linear_259_869" x1="23.5" y1="16" x2="181.5" y2="76.5" gradientUnits="userSpaceOnUse">
<stop stop-color="#C4002E"/>
<stop offset="0.491395" stop-color="#C95300"/>
<stop offset="1" stop-color="#C4002E"/>
</linearGradient>
<linearGradient id="paint2_linear_259_869" x1="23.5" y1="16" x2="181.5" y2="76.5" gradientUnits="userSpaceOnUse">
<stop stop-color="#C4002E"/>
<stop offset="0.491395" stop-color="#C95300"/>
<stop offset="1" stop-color="#C4002E"/>
</linearGradient>
<linearGradient id="paint3_linear_259_869" x1="23.5" y1="16" x2="181.5" y2="76.5" gradientUnits="userSpaceOnUse">
<stop stop-color="#C4002E"/>
<stop offset="0.491395" stop-color="#C95300"/>
<stop offset="1" stop-color="#C4002E"/>
</linearGradient>
<linearGradient id="paint4_linear_259_869" x1="23.5" y1="16" x2="181.5" y2="76.5" gradientUnits="userSpaceOnUse">
<stop stop-color="#C4002E"/>
<stop offset="0.491395" stop-color="#C95300"/>
<stop offset="1" stop-color="#C4002E"/>
</linearGradient>
</defs>
</svg>
