<svg width="22" height="40" viewBox="0 0 22 40" fill="none" xmlns="http://www.w3.org/2000/svg">
<path d="M3.42222 34.1463L3.42222 39.0244C3.42222 39.8049 4.72593 40 5.37778 40L8.8 40C19.36 39.6098 22 31.0569 22 26.8293L22 4.87805C22 1.36585 19.3926 0.162602 18.0889 3.4192e-07L4.4 1.53864e-06C1.27111 1.81218e-06 0.162961 3.25204 -3.07046e-06 4.87805L-2.04697e-06 16.5854C-1.73993e-06 20.0976 3.58518 21.626 5.37778 21.9512L11.2444 21.9512C13.2 21.9512 14.0148 23.5772 14.1778 24.3902L14.1778 26.8293C14.1778 31.122 10.5926 32.1951 8.8 32.1951L5.37778 32.1951C3.81333 32.1951 3.42222 33.4959 3.42222 34.1463Z" fill="#FF7229"/>
</svg>
