<svg width="488" height="804" viewBox="0 0 488 804" fill="none" xmlns="http://www.w3.org/2000/svg">
<g opacity="0.3">
<mask id="path-1-inside-1_259_768" fill="white">
<path d="M488 402C488 624.018 308.018 804 86 804C-136.018 804 -316 624.018 -316 402C-316 179.982 -136.018 0 86 0C308.018 0 488 179.982 488 402ZM-299.92 402C-299.92 615.138 -127.138 787.92 86 787.92C299.138 787.92 471.92 615.138 471.92 402C471.92 188.862 299.138 16.08 86 16.08C-127.138 16.08 -299.92 188.862 -299.92 402Z"/>
</mask>
<path d="M488 402C488 624.018 308.018 804 86 804C-136.018 804 -316 624.018 -316 402C-316 179.982 -136.018 0 86 0C308.018 0 488 179.982 488 402ZM-299.92 402C-299.92 615.138 -127.138 787.92 86 787.92C299.138 787.92 471.92 615.138 471.92 402C471.92 188.862 299.138 16.08 86 16.08C-127.138 16.08 -299.92 188.862 -299.92 402Z" stroke="#FF7229" stroke-width="8" stroke-dasharray="8 8" mask="url(#path-1-inside-1_259_768)"/>
<mask id="path-2-inside-2_259_768" fill="white">
<path d="M387.5 402C387.5 568.514 252.514 703.5 86 703.5C-80.5139 703.5 -215.5 568.514 -215.5 402C-215.5 235.486 -80.5139 100.5 86 100.5C252.514 100.5 387.5 235.486 387.5 402ZM-209.47 402C-209.47 565.184 -77.1836 697.47 86 697.47C249.184 697.47 381.47 565.184 381.47 402C381.47 238.816 249.184 106.53 86 106.53C-77.1836 106.53 -209.47 238.816 -209.47 402Z"/>
</mask>
<path d="M387.5 402C387.5 568.514 252.514 703.5 86 703.5C-80.5139 703.5 -215.5 568.514 -215.5 402C-215.5 235.486 -80.5139 100.5 86 100.5C252.514 100.5 387.5 235.486 387.5 402ZM-209.47 402C-209.47 565.184 -77.1836 697.47 86 697.47C249.184 697.47 381.47 565.184 381.47 402C381.47 238.816 249.184 106.53 86 106.53C-77.1836 106.53 -209.47 238.816 -209.47 402Z" stroke="#FF7229" stroke-width="8" stroke-dasharray="8 8" mask="url(#path-2-inside-2_259_768)"/>
<mask id="path-3-inside-3_259_768" fill="white">
<path d="M282.98 402C282.98 513.009 192.989 603 81.98 603C-29.0293 603 -119.02 513.009 -119.02 402C-119.02 290.991 -29.0293 201 81.98 201C192.989 201 282.98 290.991 282.98 402ZM-112.99 402C-112.99 509.679 -25.699 596.97 81.98 596.97C189.659 596.97 276.95 509.679 276.95 402C276.95 294.321 189.659 207.03 81.98 207.03C-25.699 207.03 -112.99 294.321 -112.99 402Z"/>
</mask>
<path d="M282.98 402C282.98 513.009 192.989 603 81.98 603C-29.0293 603 -119.02 513.009 -119.02 402C-119.02 290.991 -29.0293 201 81.98 201C192.989 201 282.98 290.991 282.98 402ZM-112.99 402C-112.99 509.679 -25.699 596.97 81.98 596.97C189.659 596.97 276.95 509.679 276.95 402C276.95 294.321 189.659 207.03 81.98 207.03C-25.699 207.03 -112.99 294.321 -112.99 402Z" stroke="#FF7229" stroke-width="8" stroke-dasharray="8 8" mask="url(#path-3-inside-3_259_768)"/>
</g>
</svg>
